<svg width="76" height="100" fill="none" xmlns="http://www.w3.org/2000/svg"><g clip-path="url(#clip0)" stroke="#fff" stroke-width="2" stroke-miterlimit="10"><path d="M37.5 98.68a9.27 9.27 0 100-18.54 9.27 9.27 0 000 18.54zM37.99 19.44c18.85 0 34.13-4.128 34.13-9.22C72.12 5.128 56.84 1 37.99 1S3.86 5.128 3.86 10.22c0 5.092 15.28 9.22 34.13 9.22zM72.12 25.4c0 5.09-15.28 9.22-34.13 9.22S3.86 30.49 3.86 25.4M72.12 43.01c0 5.09-15.28 9.22-34.13 9.22S3.86 48.1 3.86 43.01M26.92 68.68C13.5 67.43 3.86 64 3.86 59.95M72.12 59.95c0 4.21-10.42 7.76-24.66 8.87M46.77 89.4h28.34M28.22 89.4H0M37.5 80.13V60.55M4.02 62.39V10.61M72.12 59.95V10.22"/></g><defs><clipPath id="clip0"><path fill="#fff" d="M0 0h75.11v99.68H0z"/></clipPath></defs></svg>