<svg width="107" height="91" fill="none" xmlns="http://www.w3.org/2000/svg"><path d="M53.15 56.51c-4.57 0-8.66-2.73-10.41-6.95a11.2 11.2 0 010-8.62c1.15-2.78 3.31-4.94 6.09-6.09 1.38-.57 2.83-.86 4.3-.86 4.57 0 8.66 2.73 10.41 6.95a11.2 11.2 0 010 8.62 11.158 11.158 0 01-6.09 6.09c-1.37.57-2.82.86-4.3.86zm-.01-20.27c-1.18 0-2.34.23-3.44.69a8.945 8.945 0 00-4.87 4.87 8.945 8.945 0 000 6.89 8.982 8.982 0 008.32 5.56c1.18 0 2.34-.23 3.44-.69a8.945 8.945 0 004.87-4.87c.92-2.22.92-4.67 0-6.89a8.962 8.962 0 00-8.32-5.56z" fill="#fff"/><path d="M59.67 73.18l-3.25-5.5c-2.18.32-4.38.32-6.54 0l-3.26 5.49L38 69.61l1.58-6.18c-1.75-1.3-3.3-2.85-4.62-4.62l-6.19 1.59-3.57-8.62 5.5-3.26c-.32-2.17-.33-4.36 0-6.53l-5.5-3.25 3.57-8.62 6.19 1.59c1.31-1.76 2.86-3.31 4.62-4.61L38 20.88l8.62-3.57 3.26 5.5c2.16-.32 4.37-.32 6.53 0l3.26-5.5 8.62 3.57-1.58 6.19c1.76 1.31 3.31 2.85 4.62 4.62l6.19-1.58 3.57 8.62-5.5 3.26c.32 2.17.33 4.36.01 6.53l5.5 3.25-3.57 8.62-6.19-1.59a22.479 22.479 0 01-4.62 4.62l1.59 6.19-8.64 3.57zm-2.11-7.98l3.05 5.15 5.01-2.08-1.49-5.81.65-.45c2.02-1.39 3.76-3.12 5.15-5.14l.45-.65 5.81 1.49 2.08-5.01-5.15-3.05.14-.77c.44-2.41.44-4.86-.01-7.27l-.14-.77 5.16-3.06-2.07-5.01-5.71 1.46-.54-.62c-1.4-2.02-3.13-3.75-5.14-5.14l-.65-.45 1.48-5.81-5.01-2.08-3.06 5.16-.77-.14c-2.39-.44-4.88-.44-7.27 0l-.77.14-3.06-5.15-5.01 2.08 1.49 5.81-.65.45a19.82 19.82 0 00-5.15 5.14l-.45.65-5.8-1.49-2.08 5.01 5.16 3.05-.14.77c-.45 2.41-.45 4.86 0 7.27l.14.77-5.16 3.06 2.08 5.01 5.8-1.49.45.65c1.4 2.04 3.14 3.77 5.14 5.15l.65.45-1.48 5.8 5.01 2.08 3.05-5.15.77.14c2.38.44 4.86.44 7.28 0l.76-.15zM88.51 50.42c-2.85 0-5.17-2.32-5.17-5.17s2.32-5.17 5.17-5.17 5.17 2.32 5.17 5.17-2.32 5.17-5.17 5.17zm0-8.09c-1.61 0-2.92 1.31-2.92 2.92 0 1.61 1.31 2.92 2.92 2.92 1.61 0 2.92-1.31 2.92-2.92 0-1.61-1.31-2.92-2.92-2.92z" fill="#fff"/><path d="M102.33 49.05c-.32 1.15-.77 2.25-1.36 3.27l2.4 3.21-4.57 4.57-3.21-2.4c-1.03.59-2.13 1.05-3.28 1.36l-.56 3.97h-6.47l-.57-3.97c-1.21-.33-2.35-.81-3.42-1.43l.86-2.12c1.16.74 2.44 1.25 3.8 1.54l.77.17.51 3.56h2.57l.51-3.57.77-.17c1.42-.3 2.76-.85 3.97-1.64l.66-.43 2.88 2.16 1.82-1.82-2.16-2.88.43-.66a11.72 11.72 0 001.64-3.97l.17-.77 3.57-.51v-2.57l-3.54-.5-.18-.74c-.32-1.46-.87-2.8-1.65-4.01l-.43-.66 2.16-2.88-1.82-1.82-2.88 2.16-.66-.43c-1.22-.78-2.55-1.34-3.97-1.64l-.77-.17-.51-3.56h-2.57l-.51 3.57-.77.17c-1.35.29-2.62.8-3.79 1.52l-.86-2.1a13.65 13.65 0 013.41-1.44l.57-3.97h6.47l.57 3.97c1.15.32 2.25.77 3.28 1.36l3.21-2.4 4.57 4.57-2.4 3.21c.59 1.03 1.04 2.13 1.36 3.27l3.97.57v6.47l-3.99.58zM17.78 50.42c-2.85 0-5.17-2.32-5.17-5.17s2.32-5.17 5.17-5.17 5.17 2.32 5.17 5.17-2.32 5.17-5.17 5.17zm0-8.09c-1.61 0-2.92 1.31-2.92 2.92 0 1.61 1.31 2.92 2.92 2.92 1.61 0 2.92-1.31 2.92-2.92 0-1.61-1.31-2.92-2.92-2.92z" fill="#fff"/><path d="M25.09 57.58c-1.1.65-2.27 1.15-3.51 1.49l-.56 3.97h-6.47l-.57-3.97c-1.15-.31-2.25-.77-3.28-1.36l-3.21 2.4-4.57-4.57 2.4-3.21c-.59-1.03-1.04-2.13-1.35-3.27L0 48.48v-6.47l3.97-.57c.32-1.15.77-2.25 1.35-3.27l-2.4-3.21 4.57-4.57 3.21 2.4c1.03-.59 2.13-1.04 3.28-1.36l.57-3.97h6.47l.57 3.97c1.23.34 2.4.83 3.48 1.49l-.86 2.11c-1.19-.76-2.48-1.28-3.88-1.58l-.77-.17-.51-3.57H16.5l-.51 3.56-.77.17c-1.43.31-2.76.86-3.97 1.64l-.66.43-2.87-2.16-1.82 1.82 2.16 2.88-.43.66c-.78 1.22-1.34 2.55-1.64 3.97l-.06.2-.2.59-3.47.5v2.57l3.57.51.17.77c.3 1.42.85 2.76 1.64 3.97l.43.66-2.16 2.88 1.81 1.82 2.88-2.16.66.43c1.22.79 2.55 1.34 3.97 1.64l.77.17.51 3.57h2.57l.51-3.56.77-.17c1.39-.3 2.7-.83 3.88-1.58l.85 2.09zM88.74 76.87l-.77-6.43-6.43.77-.27-2.24 8.67-1.04 1.04 8.67-2.24.27z" fill="#fff"/><path d="M52.39 90.49c-14.7 0-28.34-7.32-36.47-19.59l1.88-1.25c7.72 11.64 20.65 18.59 34.6 18.59 13.95 0 26.88-6.95 34.6-18.59l1.88 1.25C80.73 83.17 67.1 90.49 52.39 90.49zM16.34 22.6l-1.04-8.66 2.23-.27.78 6.43 6.43-.78.27 2.24-8.67 1.04z" fill="#fff"/><path d="M88.49 20.84C80.78 9.2 67.84 2.25 53.9 2.25c-13.95 0-26.88 6.95-34.6 18.59l-1.88-1.25C25.56 7.32 39.19 0 53.9 0c14.7 0 28.34 7.32 36.47 19.59l-1.88 1.25z" fill="#fff"/></svg>