<svg width="107" height="89" fill="none" xmlns="http://www.w3.org/2000/svg"><g clip-path="url(#clip0)" stroke="#fff" stroke-width="2" stroke-miterlimit="10"><path d="M20.65 29.88c1.4-4.3 2.68-6.34 5.27-9.93M31.12 13.8C38.92 6.32 50.3 1 61.96 1c23.99 0 43.44 19.45 43.44 43.44S85.95 87.88 61.96 87.88 18.52 68.43 18.52 44.44c0-3.56.17-6.5.97-9.81"/><path d="M61.03 14.22c.31-.01.61-.01.92-.01C78.55 14.21 92 27.66 92 44.25S78.55 74.3 61.96 74.3c-4.94 0-9.59-1.19-13.7-3.3"/><path d="M61.96 49.64a5.2 5.2 0 100-10.4 5.2 5.2 0 000 10.4zM41.45 67.16l17.16-18.74M91.03 1.08l10.12 8.78M48.57 14.21H0M56.94 29.28H8.31"/></g><defs><clipPath id="clip0"><path fill="#fff" d="M0 0h106.4v88.88H0z"/></clipPath></defs></svg>