<svg width="32" height="31" fill="none" xmlns="http://www.w3.org/2000/svg"><path d="M16 0C7.16 0 0 7.04 0 15.723c0 6.948 4.584 12.84 10.94 14.917.8.148 1.093-.339 1.093-.756 0-.373-.013-1.363-.02-2.673-4.45.948-5.389-2.11-5.389-2.11-.728-1.814-1.78-2.3-1.78-2.3-1.45-.974.112-.954.112-.954 1.607.109 2.45 1.62 2.45 1.62 1.427 2.404 3.746 1.709 4.66 1.308.145-1.018.557-1.71 1.014-2.103-3.553-.393-7.288-1.745-7.288-7.77 0-1.715.62-3.118 1.647-4.218-.18-.397-.72-1.996.14-4.161 0 0 1.34-.422 4.4 1.612a15.62 15.62 0 014-.531c1.36.008 2.72.181 4 .53 3.04-2.033 4.38-1.611 4.38-1.611.86 2.165.32 3.764.16 4.161 1.02 1.1 1.64 2.503 1.64 4.219 0 6.04-3.74 7.369-7.3 7.756.56.472 1.08 1.436 1.08 2.909 0 2.104-.02 3.795-.02 4.305 0 .412.28.904 1.1.747C27.42 28.556 32 22.66 32 15.723 32 7.04 24.836 0 16 0z" fill="#000"/></svg>