<svg width="139" height="49" fill="none" xmlns="http://www.w3.org/2000/svg"><path d="M44.922 29.644h2.548l-1.28-8.534-1.268 8.534zM50.962 35h-2.665l-.452-3.06h-3.246L44.147 35h-2.431l2.69-16.886h3.866L50.962 35zM54.763 20.526v5.188h1.034c.983 0 1.59-.428 1.59-1.79v-1.66c0-1.206-.413-1.738-1.344-1.738h-1.28zM57.647 35c-.143-.428-.246-.7-.246-2.075v-2.659c0-1.569-.53-2.153-1.733-2.153h-.918v6.874H52.1V18.114h3.995c2.741 0 3.918 1.284 3.918 3.878v1.323c0 1.737-.556 2.866-1.733 3.424 1.32.557 1.759 1.828 1.759 3.592v2.607c0 .817.026 1.427.284 2.05h-2.676V35zM61.022 18.114h8.172v2.412h-2.767V35h-2.638V20.526h-2.767v-2.412zM70.319 18.114h2.65V35h-2.65V18.114zM77.16 25.623h3.413v2.413H77.16V35h-2.638V18.114h6.995v2.412H77.16v5.097zM84.53 29.644h2.547L85.81 21.11l-1.28 8.534zM90.57 35h-2.664l-.453-3.06h-3.245L83.754 35h-2.43l2.689-16.886h3.866L90.57 35zM99.272 28.71v2.244c0 2.698-1.345 4.241-3.945 4.241-2.599 0-3.943-1.543-3.943-4.241v-8.78c0-2.698 1.344-4.242 3.944-4.242 2.599 0 3.944 1.544 3.944 4.241v1.634h-2.496v-1.815c0-1.207-.53-1.66-1.37-1.66-.841 0-1.372.453-1.372 1.66v9.117c0 1.207.53 1.635 1.371 1.635.84 0 1.37-.428 1.37-1.634v-2.413h2.496v.013zM100.19 18.114h8.172v2.412h-2.767V35h-2.638V20.526h-2.767v-2.412zM111.97 31.122c0 1.207.53 1.66 1.37 1.66.841 0 1.371-.453 1.371-1.66v-9.117c0-1.207-.53-1.66-1.371-1.66-.84 0-1.37.453-1.37 1.66v9.117zm-2.651-8.949c0-2.697 1.422-4.24 4.021-4.24 2.6 0 4.022 1.543 4.022 4.24v8.78c0 2.699-1.422 4.242-4.022 4.242-2.599 0-4.021-1.543-4.021-4.241v-8.78zM121.435 20.526v5.188h1.035c.983 0 1.59-.428 1.59-1.79v-1.66c0-1.206-.413-1.738-1.344-1.738h-1.281zM124.319 35c-.142-.428-.246-.7-.246-2.075v-2.659c0-1.569-.53-2.153-1.732-2.153h-.919v6.874h-2.638V18.114h3.996c2.742 0 3.918 1.284 3.918 3.878v1.323c0 1.737-.556 2.866-1.732 3.424 1.318.557 1.758 1.828 1.758 3.592v2.607c0 .817.026 1.427.285 2.05h-2.69V35zM130.655 29.41l-3.336-11.296h2.767l2.017 7.704 2.018-7.704h2.534l-3.349 11.296V35h-2.651v-5.59z" fill="#000"/><path d="M30.517 35.26H.04v-2.348h30.478v2.348zM41.819 14.625c-.4 0-.763-.04-1.06-.13v-1.504c.31.077.594.116.853.116.4 0 .685-.13.853-.376.169-.246.26-.635.26-1.154v-7.99h1.81v7.977c0 .999-.233 1.75-.686 2.283-.465.518-1.138.778-2.03.778zM48.427 12.122h-1.772V3.587h4.875v1.479h-3.103v2.205h2.896v1.478h-2.896v3.373zM56.69 5.468c.245 0 .44.013.595.052l-.13 1.673a2.04 2.04 0 00-.53-.065c-.569 0-1.009.143-1.319.441-.31.298-.478.7-.478 1.232v3.32h-1.772V5.599h1.345l.258 1.102h.091c.207-.363.478-.661.815-.882.349-.233.724-.35 1.125-.35zM59.884 8.84c0 .649.103 1.129.323 1.466.207.337.556.493 1.034.493.479 0 .815-.169 1.022-.493.207-.324.31-.817.31-1.466 0-.648-.103-1.128-.31-1.452-.207-.325-.556-.48-1.035-.48-.478 0-.814.155-1.021.48-.207.324-.323.804-.323 1.452zm4.5 0c0 1.064-.285 1.894-.841 2.49-.556.597-1.332.895-2.328.895-.62 0-1.176-.142-1.655-.415-.478-.272-.84-.674-1.099-1.18-.258-.519-.388-1.115-.388-1.803 0-1.063.272-1.893.828-2.49.556-.57 1.345-.869 2.34-.869.621 0 1.177.143 1.656.415.478.272.84.662 1.099 1.167.258.506.388 1.103.388 1.79zM67.138 7.725c0 .35.078.635.246.843.155.207.4.311.737.311.336 0 .582-.104.737-.311.155-.208.233-.48.233-.843 0-.791-.324-1.18-.97-1.18-.66 0-.983.402-.983 1.18zm-.647 5.317c0 .247.117.441.35.584.232.143.568.208.982.208.634 0 1.138-.091 1.5-.26.362-.181.543-.415.543-.713 0-.247-.103-.415-.323-.506-.22-.09-.543-.143-.996-.143h-.918c-.323 0-.595.078-.814.234a.663.663 0 00-.324.596zm5.018-7.444v.908l-1.022.259c.181.298.285.623.285.986 0 .7-.246 1.245-.725 1.634-.491.389-1.163.584-2.03.584l-.323-.013-.259-.026c-.18.142-.271.298-.271.467 0 .259.323.389.983.389h1.112c.71 0 1.254.155 1.629.467.375.31.556.765.556 1.348 0 .766-.323 1.35-.957 1.777-.634.415-1.552.636-2.728.636-.906 0-1.604-.156-2.082-.48a1.516 1.516 0 01-.725-1.336c0-.389.117-.726.363-.986.245-.259.607-.454 1.073-.57a1.312 1.312 0 01-.479-.376.88.88 0 01-.207-.558c0-.247.078-.454.22-.623.143-.168.35-.324.621-.493a1.804 1.804 0 01-.815-.713 2.22 2.22 0 01-.297-1.154c0-.714.233-1.258.698-1.647.466-.39 1.125-.584 1.979-.584.18 0 .4.013.646.052s.414.052.479.078h2.276v-.026z" fill="#41BF47"/><path d="M43.59 45.532v1.025c0 .518-.22.7-.581.7-.362 0-.582-.182-.582-.7v-3.878c0-.52.22-.714.582-.714s.581.195.581.714v.765h1.06v-.7c0-1.155-.568-1.803-1.68-1.803s-1.681.661-1.681 1.802v3.736c0 1.154.569 1.803 1.68 1.803 1.113 0 1.682-.662 1.682-1.803v-.96h-1.06v.013zm2.78-2.853c0-.52.22-.714.583-.714.362 0 .581.195.581.714v3.878c0 .518-.22.713-.581.713-.363 0-.582-.195-.582-.713v-3.878zm-1.124 3.8c0 1.154.607 1.803 1.706 1.803 1.1 0 1.707-.662 1.707-1.803v-3.736c0-1.154-.607-1.802-1.706-1.802-1.1 0-1.707.661-1.707 1.802v3.736zm5.702-5.46h-1.564v7.185h.982V43.12l.84 5.084h1.061l.776-5.15v5.15h1.06v-7.185H52.54l-.763 5.097-.828-5.097zm5.535 0h-1.565v7.185h.983V43.12l.84 5.084h1.06l.776-5.15v5.15h1.06v-7.185h-1.564l-.763 5.097-.827-5.097zm3.93 0v5.473c0 1.154.57 1.803 1.682 1.803 1.099 0 1.68-.662 1.68-1.803v-5.473h-1.06v5.538c0 .518-.22.7-.581.7-.362 0-.582-.182-.582-.7v-5.538h-1.138zm6.53 7.185h1.152v-7.185h-1.009v4.306l-1.15-4.306h-1.41v7.185h1.008v-5.201l1.41 5.2zm1.954 0h1.124v-7.185h-1.124v7.185zm1.629-6.16h1.177v6.16h1.124v-6.16h1.177v-1.025h-3.478v1.024zm5.017 6.16h1.125v-2.387l1.422-4.798h-1.073l-.853 3.268-.854-3.268h-1.176l1.422 4.798v2.387h-.013zm5.716-6.16h1.94v-1.025h-3.065v7.185h3.064v-1.025h-1.94v-2.1h1.54v-1.026h-1.54v-2.01zm2.638 6.16h1.784c1.125 0 1.681-.623 1.681-1.777v-3.632c0-1.154-.556-1.776-1.681-1.776h-1.784v7.185zm1.758-6.16c.362 0 .57.18.57.7v3.735c0 .519-.22.7-.57.7h-.633v-5.136h.633zm2.418 6.16h1.125v-7.185h-1.125v7.185zm1.617-6.16h1.176v6.16h1.125v-6.16h1.177v-1.025H89.69v1.024zm3.97 6.16h1.124v-7.185H93.66v7.185zm2.974-5.525c0-.52.22-.714.582-.714s.581.195.581.714v3.878c0 .518-.22.713-.581.713-.363 0-.582-.195-.582-.713v-3.878zm-1.125 3.8c0 1.154.607 1.803 1.707 1.803 1.099 0 1.706-.662 1.706-1.803v-3.736c0-1.154-.607-1.802-1.706-1.802-1.1 0-1.707.661-1.707 1.802v3.736zm6.556 1.725h1.15v-7.185h-1.008v4.306l-1.151-4.306h-1.41v7.185h1.009v-5.201l1.41 5.2zm4.668-6.16h1.849v-1.025h-2.974v7.185h1.125v-2.97h1.448v-1.025h-1.448v-2.166zm3.426.635c0-.52.22-.714.582-.714s.582.195.582.714v3.878c0 .518-.22.713-.582.713s-.582-.195-.582-.713v-3.878zm-1.125 3.8c0 1.154.608 1.803 1.707 1.803 1.099 0 1.707-.662 1.707-1.803v-3.736c0-1.154-.608-1.802-1.707-1.802-1.099 0-1.707.661-1.707 1.802v3.736zm7.643 1.725c-.117-.273-.117-.519-.117-.87v-1.102c0-.752-.181-1.297-.75-1.53.505-.233.737-.713.737-1.453v-.57c0-1.103-.504-1.648-1.668-1.648h-1.694v7.186h1.125v-2.931h.388c.517 0 .737.246.737.907v1.129c0 .584.039.7.104.882h1.138zm-1.824-6.16c.401 0 .569.22.569.738v.714c0 .57-.258.765-.672.765h-.44v-2.205h.543v-.013zm6.233 3.488v1.025c0 .518-.22.7-.582.7s-.582-.182-.582-.7v-3.878c0-.52.22-.714.582-.714s.582.195.582.714v.765h1.061v-.7c0-1.155-.569-1.803-1.682-1.803-1.099 0-1.681.661-1.681 1.802v3.736c0 1.154.569 1.803 1.681 1.803 1.1 0 1.682-.662 1.682-1.803v-.96h-1.061v.013zm1.384 2.672h.97l2.819-7.185h-.97l-2.819 7.185zm6.465-2.672v1.025c0 .518-.22.7-.582.7s-.581-.182-.581-.7v-3.878c0-.52.219-.714.581-.714s.582.195.582.714v.765h1.061v-.7c0-1.155-.569-1.803-1.681-1.803-1.1 0-1.681.661-1.681 1.802v3.736c0 1.154.569 1.803 1.681 1.803 1.099 0 1.681-.662 1.681-1.803v-.96h-1.061v.013zm3.763-2.698h-.801v1.388h-1.371v.804h1.371v1.4h.801v-1.4h1.371v-.804h-1.371v-1.388zm4.048 0h-.802v1.388h-1.371v.804h1.371v1.4h.802v-1.4h1.37v-.804h-1.37v-1.388z" fill="#4D4D4D"/><path d="M20.625 1.772c.595.298.84 1.011.556 1.608a1.207 1.207 0 01-1.603.558 10.466 10.466 0 00-2.238-.805 10.464 10.464 0 00-9.776 2.801A10.473 10.473 0 004.5 13.368c0 2.905 1.177 5.525 3.065 7.431a10.41 10.41 0 007.41 3.074c1.111 0 2.197-.168 3.219-.506a10.447 10.447 0 002.91-1.478 1.199 1.199 0 011.68.272 1.207 1.207 0 01-.271 1.686c-1.1.791-2.302 1.401-3.582 1.816-1.28.415-2.612.636-3.957.636a12.823 12.823 0 01-9.103-3.787 12.9 12.9 0 01-3.776-9.131A12.9 12.9 0 015.87 4.249 12.823 12.823 0 0114.974.462c.97 0 1.953.116 2.91.337.93.194 1.862.532 2.741.973zm-2.91 10.246a1.21 1.21 0 011.203-1.206c.66 0 1.203.544 1.203 1.206v1.57h1.564c.66 0 1.203.544 1.203 1.205A1.21 1.21 0 0121.685 16h-1.564v1.569a1.21 1.21 0 01-1.203 1.206 1.21 1.21 0 01-1.203-1.206v-1.57h-1.564a1.21 1.21 0 01-1.203-1.206 1.21 1.21 0 011.203-1.206h1.564v-1.57zm6.518-5.927a1.21 1.21 0 011.202-1.207c.66 0 1.203.545 1.203 1.207V7.66h1.565c.66 0 1.202.545 1.202 1.206a1.21 1.21 0 01-1.202 1.206h-1.565v1.57a1.21 1.21 0 01-1.203 1.206 1.21 1.21 0 01-1.202-1.206v-1.57h-1.565a1.21 1.21 0 01-1.203-1.206 1.21 1.21 0 011.203-1.206h1.565V6.09z" fill="#40BE47"/></svg>