<svg xmlns="http://www.w3.org/2000/svg" width="101.156" height="123.73" viewBox="0 0 11904 14560" shape-rendering="geometricPrecision" text-rendering="geometricPrecision" image-rendering="optimizeQuality" fill-rule="evenodd" clip-rule="evenodd"><defs><style>.fil0{fill:#40be46;fill-rule:nonzero}</style></defs><g id="Layer_x0020_1"><g id="_1524099114720"><path class="fil0" d="M11285 14560H25v-1004h11260zM8079 575c259 126 367 440 240 699-127 260-440 367-699 240-310-152-638-268-977-347-335-77-681-117-1032-117-1260 0-2400 511-3225 1336S1050 4351 1050 5611c0 1259 511 2399 1336 3224s1965 1336 3225 1336c482 0 956-75 1404-220 451-146 879-362 1267-642 235-169 562-116 731 119 168 234 115 561-119 730-478 345-1005 611-1559 790-557 180-1138 273-1724 273-1550 0-2952-628-3968-1643C628 8562 0 7160 0 5611c0-1550 628-2952 1643-3968C2659 628 4061 0 5611 0c424 0 849 49 1266 146 412 95 815 239 1202 429zM6810 5026c0-290 235-525 525-525s525 235 525 525v683h683c290 0 525 235 525 525s-235 525-525 525h-683v683c0 290-235 525-525 525s-525-235-525-525v-683h-683c-290 0-525-235-525-525s235-525 525-525h683v-683zm2836-2573c0-290 235-525 525-525s525 235 525 525v683h683c290 0 525 235 525 525s-235 525-525 525h-683v683c0 290-235 525-525 525s-525-235-525-525v-683h-683c-290 0-525-235-525-525s235-525 525-525h683v-683z"/></g></g></svg>