<?xml version="1.0" encoding="UTF-8"?>
<!DOCTYPE svg PUBLIC "-//W3C//DTD SVG 1.0//EN" "http://www.w3.org/TR/2001/REC-SVG-20010904/DTD/svg10.dtd">
<!-- Creator: CorelDRAW 2018 (64-Bit) -->
<svg xmlns="http://www.w3.org/2000/svg" xml:space="preserve" width="16.6667in" height="0.90278in" version="1.0" style="shape-rendering:geometricPrecision; text-rendering:geometricPrecision; image-rendering:optimizeQuality; fill-rule:evenodd; clip-rule:evenodd"
viewBox="0 0 12026.54 651.44"
 xmlns:xlink="http://www.w3.org/1999/xlink">
 <defs>
  <style type="text/css">
   <![CDATA[
    .fil0 {fill:none}
    .fil1 {fill:#FEFEFE}
    .fil2 {fill:white;fill-rule:nonzero}
   ]]>
  </style>
 </defs>
 <g id="Layer_x0020_1">
  <metadata id="CorelCorpID_0Corel-Layer"/>
  <path class="fil0" d="M-0 0l12026.54 0 0 651.44 -12026.54 0 0 -651.44z"/>
  <g id="_2384754212544">
   <path class="fil1" d="M3346.5 275.37c1.91,0.21 3.93,0.32 6.06,0.32 2.13,0 4.15,0 6.06,0 5.53,0 10.26,-1.38 14.2,-4.15 3.93,-2.76 5.9,-8.51 5.9,-17.23l0 -170.36 35.09 0 0 167.81c0,11.27 -1.38,20.52 -4.14,27.75 -2.77,7.23 -6.49,12.92 -11.17,17.07 -4.68,4.15 -10.05,7.07 -16.11,8.78 -6.06,1.7 -12.39,2.55 -18.98,2.55 -3.19,0 -6.06,0 -8.61,0 -2.55,0 -5.32,-0.21 -8.3,-0.64l0 -31.9zm123.47 -19.46c0,8.08 1.65,13.77 4.94,17.07 3.3,3.3 7.71,4.95 13.24,4.95 5.53,0 9.94,-1.65 13.24,-4.95 3.3,-3.3 4.94,-8.99 4.94,-17.07l0 -120.59c0,-8.08 -1.65,-13.77 -4.94,-17.07 -3.3,-3.3 -7.71,-4.95 -13.24,-4.95 -5.53,0 -9.94,1.65 -13.24,4.95 -3.3,3.3 -4.94,8.99 -4.94,17.07l0 120.59zm-35.1 -118.36c0,-18.08 4.57,-31.95 13.72,-41.63 9.15,-9.68 22.34,-14.52 39.56,-14.52 17.23,0 30.41,4.84 39.56,14.52 9.15,9.68 13.72,23.55 13.72,41.63l0 116.13c0,18.08 -4.57,31.95 -13.72,41.63 -9.14,9.68 -22.33,14.52 -39.56,14.52 -17.22,0 -30.41,-4.84 -39.56,-14.52 -9.14,-9.68 -13.72,-23.55 -13.72,-41.63l0 -116.13zm129.21 -53.59l35.09 0 0 223.32 -35.09 0 0 -223.32zm91.88 61.57l0 161.75 -31.59 0 0 -223.32 44.03 0 36.05 133.67 0 -133.67 31.26 0 0 223.32 -36.05 0 -43.71 -161.75zm187.91 -61.57l0 172.28c0,8.08 1.65,13.72 4.94,16.91 3.3,3.19 7.71,4.78 13.24,4.78 5.53,0 9.94,-1.59 13.24,-4.78 3.3,-3.19 4.94,-8.83 4.94,-16.91l0 -172.28 33.18 0 0 170.04c0,18.08 -4.41,31.95 -13.24,41.63 -8.83,9.68 -21.86,14.52 -39.08,14.52 -17.23,0 -30.26,-4.84 -39.08,-14.52 -8.82,-9.68 -13.24,-23.55 -13.24,-41.63l0 -170.04 35.09 0zm89.01 53.59c0,-18.08 4.31,-31.95 12.92,-41.63 8.61,-9.68 21.53,-14.52 38.76,-14.52 17.23,0 30.15,4.84 38.76,14.52 8.61,9.68 12.92,23.55 12.92,41.63l0 7.02 -33.18 0 0 -9.25c0,-8.08 -1.54,-13.77 -4.63,-17.07 -3.08,-3.3 -7.39,-4.95 -12.92,-4.95 -5.53,0 -9.84,1.65 -12.92,4.95 -3.09,3.3 -4.63,8.99 -4.63,17.07 0,7.66 1.7,14.41 5.1,20.26 3.4,5.85 7.66,11.38 12.76,16.59 5.11,5.21 10.58,10.42 16.43,15.63 5.85,5.21 11.32,10.9 16.43,17.07 5.11,6.16 9.36,13.19 12.76,21.05 3.4,7.87 5.11,17.12 5.11,27.76 0,18.08 -4.41,31.95 -13.24,41.63 -8.83,9.68 -21.86,14.52 -39.08,14.52 -17.23,0 -30.26,-4.84 -39.08,-14.52 -8.82,-9.68 -13.24,-23.55 -13.24,-41.63l0 -13.72 33.18 0 0 15.95c0,8.08 1.65,13.72 4.95,16.91 3.3,3.19 7.71,4.79 13.24,4.79 5.53,0 9.94,-1.6 13.24,-4.79 3.3,-3.19 4.95,-8.83 4.95,-16.91 0,-7.66 -1.7,-14.41 -5.11,-20.26 -3.4,-5.85 -7.66,-11.38 -12.76,-16.59 -5.1,-5.21 -10.58,-10.42 -16.43,-15.63 -5.85,-5.21 -11.33,-10.9 -16.43,-17.07 -5.1,-6.16 -9.36,-13.19 -12.76,-21.05 -3.41,-7.87 -5.11,-17.12 -5.11,-27.76zm286.81 169.73l-35.41 0 -6.06 -40.52 -43.07 0 -6.06 40.52 -32.22 0 35.73 -223.32 51.36 0 35.73 223.32zm-80.08 -70.83l33.82 0 -16.91 -112.93 -16.91 112.93zm74.01 -152.49l108.47 0 0 31.9 -36.69 0 0 191.42 -35.09 0 0 -191.42 -36.69 0 0 -31.9zm168.77 53.59c0,-18.08 4.31,-31.95 12.92,-41.63 8.62,-9.68 21.54,-14.52 38.76,-14.52 17.23,0 30.15,4.84 38.76,14.52 8.61,9.68 12.92,23.55 12.92,41.63l0 7.02 -33.18 0 0 -9.25c0,-8.08 -1.54,-13.77 -4.63,-17.07 -3.08,-3.3 -7.39,-4.95 -12.92,-4.95 -5.53,0 -9.84,1.65 -12.92,4.95 -3.09,3.3 -4.63,8.99 -4.63,17.07 0,7.66 1.7,14.41 5.1,20.26 3.4,5.85 7.66,11.38 12.76,16.59 5.11,5.21 10.58,10.42 16.43,15.63 5.85,5.21 11.32,10.9 16.43,17.07 5.11,6.16 9.36,13.19 12.76,21.05 3.4,7.87 5.11,17.12 5.11,27.76 0,18.08 -4.41,31.95 -13.24,41.63 -8.83,9.68 -21.86,14.52 -39.08,14.52 -17.23,0 -30.26,-4.84 -39.08,-14.52 -8.82,-9.68 -13.24,-23.55 -13.24,-41.63l0 -13.72 33.18 0 0 15.95c0,8.08 1.65,13.72 4.95,16.91 3.3,3.19 7.71,4.79 13.24,4.79 5.53,0 9.94,-1.6 13.24,-4.79 3.3,-3.19 4.95,-8.83 4.95,-16.91 0,-7.66 -1.7,-14.41 -5.11,-20.26 -3.4,-5.85 -7.66,-11.38 -12.76,-16.59 -5.1,-5.21 -10.58,-10.42 -16.43,-15.63 -5.85,-5.21 -11.33,-10.9 -16.43,-17.07 -5.1,-6.16 -9.36,-13.19 -12.76,-21.05 -3.41,-7.87 -5.11,-17.12 -5.11,-27.76zm201.63 50.73l-12.76 119 -48.17 0 -24.88 -223.32 34.14 0 18.82 176.1 16.91 -176.1 33.82 0 17.55 177.38 18.18 -177.38 30.63 0 -24.88 223.32 -46.58 0 -12.76 -119zm210.56 119l-35.41 0 -6.06 -40.52 -43.07 0 -6.06 40.52 -32.22 0 35.73 -223.32 51.36 0 35.73 223.32zm-80.08 -70.83l33.82 0 -16.91 -112.93 -16.91 112.93zm170.68 6.06l23.93 -158.56 48.81 0 0 223.32 -33.18 0 0 -160.16 -24.25 160.16 -33.18 0 -26.16 -157.92 0 157.92 -30.63 0 0 -223.32 48.81 0 25.84 158.56zm149.95 -158.56c17.65,0 30.78,4.68 39.4,14.04 8.62,9.36 12.92,23.07 12.92,41.15l0 29.03c0,18.08 -4.31,31.8 -12.92,41.16 -8.61,9.36 -21.75,14.04 -39.4,14.04l-16.59 0 0 83.91 -35.09 0 0 -223.32 51.68 0zm-16.59 31.9l0 75.61 16.59 0c5.53,0 9.78,-1.49 12.76,-4.47 2.98,-2.98 4.46,-8.51 4.46,-16.59l0 -33.5c0,-8.08 -1.49,-13.61 -4.46,-16.59 -2.98,-2.98 -7.23,-4.47 -12.76,-4.47l-16.59 0zm118.68 -31.9l0 172.28c0,8.08 1.65,13.72 4.94,16.91 3.3,3.19 7.71,4.78 13.24,4.78 5.53,0 9.94,-1.59 13.24,-4.78 3.3,-3.19 4.94,-8.83 4.94,-16.91l0 -172.28 33.18 0 0 170.04c0,18.08 -4.41,31.95 -13.24,41.63 -8.83,9.68 -21.86,14.52 -39.08,14.52 -17.23,0 -30.26,-4.84 -39.08,-14.52 -8.82,-9.68 -13.24,-23.55 -13.24,-41.63l0 -170.04 35.09 0zm145.16 0c17.65,0 30.78,4.68 39.4,14.04 8.61,9.36 12.92,23.07 12.92,41.15l0 29.03c0,18.08 -4.31,31.8 -12.92,41.16 -8.61,9.36 -21.75,14.04 -39.4,14.04l-16.59 0 0 83.91 -35.09 0 0 -223.32 51.68 0zm-16.59 31.9l0 75.61 16.59 0c5.53,0 9.78,-1.49 12.76,-4.47 2.98,-2.98 4.47,-8.51 4.47,-16.59l0 -33.5c0,-8.08 -1.49,-13.61 -4.47,-16.59 -2.98,-2.98 -7.23,-4.47 -12.76,-4.47l-16.59 0zm61.26 191.42l0 -33.82 33.82 0 0 30.31 -15.32 35.41 -14.36 0 9.25 -31.9 -13.4 0zm99.22 -31.9c1.91,0.21 3.93,0.32 6.06,0.32 2.13,0 4.14,0 6.06,0 5.53,0 10.26,-1.38 14.2,-4.15 3.93,-2.76 5.9,-8.51 5.9,-17.23l0 -170.36 35.09 0 0 167.81c0,11.27 -1.38,20.52 -4.15,27.75 -2.76,7.23 -6.49,12.92 -11.17,17.07 -4.68,4.15 -10.05,7.07 -16.11,8.78 -6.06,1.7 -12.39,2.55 -18.98,2.55 -3.19,0 -6.06,0 -8.61,0 -2.55,0 -5.32,-0.21 -8.3,-0.64l0 -31.9zm126.33 -92.2l45.3 0 0 31.9 -45.3 0 0 92.2 -35.09 0 0 -223.32 92.84 0 0 31.9 -57.75 0 0 67.32zm148.03 124.1c-0.43,-1.49 -0.85,-2.87 -1.28,-4.15 -0.43,-1.28 -0.8,-2.87 -1.12,-4.79 -0.32,-1.91 -0.53,-4.36 -0.64,-7.34 -0.11,-2.98 -0.16,-6.7 -0.16,-11.16l0 -35.09c0,-10.42 -1.81,-17.76 -5.43,-22.01 -3.61,-4.26 -9.46,-6.38 -17.55,-6.38l-12.13 0 0 90.93 -35.09 0 0 -223.32 52.96 0c18.29,0 31.53,4.25 39.72,12.76 8.19,8.51 12.28,21.38 12.28,38.61l0 17.55c0,22.97 -7.66,38.07 -22.97,45.3 8.93,3.62 15.05,9.52 18.34,17.71 3.3,8.19 4.95,18.13 4.95,29.83l0 34.45c0,5.53 0.21,10.37 0.64,14.51 0.43,4.15 1.49,8.35 3.19,12.61l-35.73 0zm-38.29 -191.42l0 68.59 13.72 0c6.59,0 11.75,-1.7 15.47,-5.11 3.72,-3.4 5.58,-9.57 5.58,-18.5l0 -22.01c0,-8.08 -1.43,-13.93 -4.3,-17.55 -2.87,-3.62 -7.39,-5.43 -13.56,-5.43l-16.91 0zm125.38 140.06c0,8.08 1.65,13.77 4.94,17.07 3.3,3.3 7.71,4.95 13.24,4.95 5.53,0 9.94,-1.65 13.24,-4.95 3.3,-3.3 4.94,-8.99 4.94,-17.07l0 -120.59c0,-8.08 -1.65,-13.77 -4.94,-17.07 -3.3,-3.3 -7.71,-4.95 -13.24,-4.95 -5.53,0 -9.94,1.65 -13.24,4.95 -3.3,3.3 -4.94,8.99 -4.94,17.07l0 120.59zm-35.1 -118.36c0,-18.08 4.57,-31.95 13.72,-41.63 9.15,-9.68 22.34,-14.52 39.56,-14.52 17.23,0 30.41,4.84 39.56,14.52 9.15,9.68 13.72,23.55 13.72,41.63l0 116.13c0,18.08 -4.57,31.95 -13.72,41.63 -9.14,9.68 -22.33,14.52 -39.56,14.52 -17.22,0 -30.41,-4.84 -39.56,-14.52 -9.14,-9.68 -13.72,-23.55 -13.72,-41.63l0 -116.13zm181.85 45.3l49.13 0 0 70.83c0,18.08 -4.41,31.95 -13.24,41.63 -8.83,9.68 -21.85,14.52 -39.08,14.52 -17.23,0 -30.25,-4.84 -39.08,-14.52 -8.83,-9.68 -13.24,-23.55 -13.24,-41.63l0 -116.13c0,-18.08 4.41,-31.95 13.24,-41.63 8.83,-9.68 21.86,-14.52 39.08,-14.52 17.23,0 30.25,4.84 39.08,14.52 8.83,9.68 13.24,23.55 13.24,41.63l0 21.7 -33.18 0 0 -23.93c0,-8.08 -1.65,-13.77 -4.94,-17.07 -3.3,-3.3 -7.71,-4.95 -13.24,-4.95 -5.53,0 -9.94,1.65 -13.24,4.95 -3.3,3.3 -4.94,8.99 -4.94,17.07l0 120.59c0,8.08 1.65,13.72 4.94,16.91 3.3,3.19 7.71,4.79 13.24,4.79 5.53,0 9.94,-1.6 13.24,-4.79 3.3,-3.19 4.94,-8.83 4.94,-16.91l0 -41.16 -15.95 0 0 -31.9zm68.59 -65.08l0 -33.82 33.82 0 0 30.31 -15.31 35.41 -14.36 0 9.25 -31.9 -13.4 0zm53.28 19.78c0,-18.08 4.31,-31.95 12.92,-41.63 8.61,-9.68 21.53,-14.52 38.76,-14.52 17.23,0 30.15,4.84 38.76,14.52 8.61,9.68 12.92,23.55 12.92,41.63l0 7.02 -33.18 0 0 -9.25c0,-8.08 -1.54,-13.77 -4.63,-17.07 -3.08,-3.3 -7.39,-4.95 -12.92,-4.95 -5.53,0 -9.84,1.65 -12.92,4.95 -3.09,3.3 -4.63,8.99 -4.63,17.07 0,7.66 1.7,14.41 5.1,20.26 3.41,5.85 7.66,11.38 12.76,16.59 5.11,5.21 10.58,10.42 16.43,15.63 5.85,5.21 11.32,10.9 16.43,17.07 5.11,6.16 9.36,13.19 12.76,21.05 3.4,7.87 5.11,17.12 5.11,27.76 0,18.08 -4.41,31.95 -13.24,41.63 -8.83,9.68 -21.86,14.52 -39.08,14.52 -17.23,0 -30.26,-4.84 -39.08,-14.52 -8.83,-9.68 -13.24,-23.55 -13.24,-41.63l0 -13.72 33.18 0 0 15.95c0,8.08 1.65,13.72 4.95,16.91 3.3,3.19 7.71,4.79 13.24,4.79 5.53,0 9.94,-1.6 13.24,-4.79 3.3,-3.19 4.95,-8.83 4.95,-16.91 0,-7.66 -1.7,-14.41 -5.11,-20.26 -3.4,-5.85 -7.66,-11.38 -12.76,-16.59 -5.1,-5.21 -10.58,-10.42 -16.43,-15.63 -5.85,-5.21 -11.33,-10.9 -16.43,-17.07 -5.11,-6.16 -9.36,-13.19 -12.76,-21.05 -3.4,-7.87 -5.11,-17.12 -5.11,-27.76zm224.92 -53.59c17.65,0 30.79,4.68 39.4,14.04 8.61,9.36 12.92,23.07 12.92,41.15l0 29.03c0,18.08 -4.31,31.8 -12.92,41.16 -8.61,9.36 -21.75,14.04 -39.4,14.04l-16.59 0 0 83.91 -35.09 0 0 -223.32 51.68 0zm-16.59 31.9l0 75.61 16.59 0c5.53,0 9.78,-1.49 12.76,-4.47 2.98,-2.98 4.47,-8.51 4.47,-16.59l0 -33.5c0,-8.08 -1.49,-13.61 -4.47,-16.59 -2.98,-2.98 -7.23,-4.47 -12.76,-4.47l-16.59 0zm158.56 191.42c-0.42,-1.49 -0.85,-2.87 -1.28,-4.15 -0.43,-1.28 -0.8,-2.87 -1.12,-4.79 -0.32,-1.91 -0.53,-4.36 -0.64,-7.34 -0.11,-2.98 -0.16,-6.7 -0.16,-11.16l0 -35.09c0,-10.42 -1.81,-17.76 -5.43,-22.01 -3.62,-4.26 -9.46,-6.38 -17.55,-6.38l-12.13 0 0 90.93 -35.09 0 0 -223.32 52.96 0c18.29,0 31.53,4.25 39.72,12.76 8.19,8.51 12.28,21.38 12.28,38.61l0 17.55c0,22.97 -7.66,38.07 -22.97,45.3 8.93,3.62 15.05,9.52 18.34,17.71 3.3,8.19 4.95,18.13 4.95,29.83l0 34.45c0,5.53 0.21,10.37 0.64,14.51 0.43,4.15 1.49,8.35 3.19,12.61l-35.73 0zm-38.28 -191.42l0 68.59 13.72 0c6.59,0 11.75,-1.7 15.47,-5.11 3.72,-3.4 5.58,-9.57 5.58,-18.5l0 -22.01c0,-8.08 -1.43,-13.93 -4.3,-17.55 -2.87,-3.62 -7.39,-5.43 -13.56,-5.43l-16.91 0zm128.25 62.21l48.17 0 0 31.9 -48.17 0 0 65.4 60.62 0 0 31.9 -95.71 0 0 -223.32 95.71 0 0 31.9 -60.62 0 0 62.21zm156.64 64.45l23.93 -158.56 48.81 0 0 223.32 -33.18 0 0 -160.16 -24.24 160.16 -33.18 0 -26.16 -157.92 0 157.92 -30.63 0 0 -223.32 48.81 0 25.84 158.56zm98.26 -158.56l35.09 0 0 223.32 -35.09 0 0 -223.32zm95.71 94.11l48.17 0 0 31.9 -48.17 0 0 65.4 60.62 0 0 31.9 -95.71 0 0 -223.32 95.71 0 0 31.9 -60.62 0 0 62.21zm155.69 129.21c-0.43,-1.49 -0.85,-2.87 -1.28,-4.15 -0.43,-1.28 -0.8,-2.87 -1.12,-4.79 -0.32,-1.91 -0.53,-4.36 -0.64,-7.34 -0.11,-2.98 -0.16,-6.7 -0.16,-11.16l0 -35.09c0,-10.42 -1.81,-17.76 -5.43,-22.01 -3.61,-4.26 -9.46,-6.38 -17.55,-6.38l-12.13 0 0 90.93 -35.09 0 0 -223.32 52.96 0c18.29,0 31.53,4.25 39.72,12.76 8.19,8.51 12.28,21.38 12.28,38.61l0 17.55c0,22.97 -7.66,38.07 -22.97,45.3 8.93,3.62 15.05,9.52 18.34,17.71 3.3,8.19 4.94,18.13 4.94,29.83l0 34.45c0,5.53 0.21,10.37 0.64,14.51 0.43,4.15 1.49,8.35 3.19,12.61l-35.73 0zm-38.29 -191.42l0 68.59 13.72 0c6.59,0 11.75,-1.7 15.47,-5.11 3.72,-3.4 5.58,-9.57 5.58,-18.5l0 -22.01c0,-8.08 -1.43,-13.93 -4.3,-17.55 -2.87,-3.62 -7.39,-5.43 -13.56,-5.43l-16.91 0zm128.25 62.21l48.17 0 0 31.9 -48.17 0 0 65.4 60.62 0 0 31.9 -95.71 0 0 -223.32 95.71 0 0 31.9 -60.62 0 0 62.21zm131.76 -94.11l55.51 0c17.65,0 30.79,4.68 39.4,14.04 8.61,9.36 12.92,23.07 12.92,41.15l0 112.94c0,18.08 -4.31,31.8 -12.92,41.15 -8.61,9.36 -21.75,14.04 -39.4,14.04l-55.51 0 0 -223.32zm35.09 31.9l0 159.52 19.78 0c5.53,0 9.89,-1.6 13.08,-4.79 3.19,-3.19 4.79,-8.83 4.79,-16.91l0 -116.13c0,-8.08 -1.59,-13.72 -4.79,-16.91 -3.19,-3.19 -7.55,-4.79 -13.08,-4.79l-19.78 0zm130.17 62.21l48.17 0 0 31.9 -48.17 0 0 65.4 60.61 0 0 31.9 -95.71 0 0 -223.32 95.71 0 0 31.9 -60.61 0 0 62.21zm135.27 88.05l26.8 -182.17 32.22 0 -34.45 223.32 -52.32 0 -34.45 -223.32 35.41 0 26.8 182.17zm107.2 -10.21c0,8.08 1.65,13.77 4.94,17.07 3.3,3.3 7.71,4.95 13.24,4.95 5.53,0 9.94,-1.65 13.24,-4.95 3.3,-3.3 4.94,-8.99 4.94,-17.07l0 -120.59c0,-8.08 -1.65,-13.77 -4.94,-17.07 -3.3,-3.3 -7.71,-4.95 -13.24,-4.95 -5.53,0 -9.94,1.65 -13.24,4.95 -3.3,3.3 -4.94,8.99 -4.94,17.07l0 120.59zm-35.1 -118.36c0,-18.08 4.57,-31.95 13.72,-41.63 9.15,-9.68 22.33,-14.52 39.56,-14.52 17.23,0 30.41,4.84 39.56,14.52 9.15,9.68 13.72,23.55 13.72,41.63l0 116.13c0,18.08 -4.57,31.95 -13.72,41.63 -9.14,9.68 -22.33,14.52 -39.56,14.52 -17.23,0 -30.41,-4.84 -39.56,-14.52 -9.14,-9.68 -13.72,-23.55 -13.72,-41.63l0 -116.13zm180.89 -53.59c17.65,0 30.79,4.68 39.4,14.04 8.61,9.36 12.92,23.07 12.92,41.15l0 29.03c0,18.08 -4.31,31.8 -12.92,41.16 -8.61,9.36 -21.75,14.04 -39.4,14.04l-16.59 0 0 83.91 -35.09 0 0 -223.32 51.68 0zm-16.59 31.9l0 75.61 16.59 0c5.53,0 9.78,-1.49 12.76,-4.47 2.98,-2.98 4.47,-8.51 4.47,-16.59l0 -33.5c0,-8.08 -1.49,-13.61 -4.47,-16.59 -2.98,-2.98 -7.23,-4.47 -12.76,-4.47l-16.59 0zm80.72 21.69c0,-18.08 4.31,-31.95 12.92,-41.63 8.62,-9.68 21.54,-14.52 38.76,-14.52 17.23,0 30.15,4.84 38.76,14.52 8.61,9.68 12.92,23.55 12.92,41.63l0 7.02 -33.18 0 0 -9.25c0,-8.08 -1.54,-13.77 -4.63,-17.07 -3.08,-3.3 -7.39,-4.95 -12.92,-4.95 -5.53,0 -9.84,1.65 -12.92,4.95 -3.09,3.3 -4.63,8.99 -4.63,17.07 0,7.66 1.7,14.41 5.1,20.26 3.4,5.85 7.66,11.38 12.76,16.59 5.11,5.21 10.58,10.42 16.43,15.63 5.85,5.21 11.32,10.9 16.43,17.07 5.11,6.16 9.36,13.19 12.76,21.05 3.4,7.87 5.11,17.12 5.11,27.76 0,18.08 -4.41,31.95 -13.24,41.63 -8.83,9.68 -21.86,14.52 -39.08,14.52 -17.23,0 -30.26,-4.84 -39.08,-14.52 -8.83,-9.68 -13.24,-23.55 -13.24,-41.63l0 -13.72 33.18 0 0 15.95c0,8.08 1.65,13.72 4.95,16.91 3.3,3.19 7.71,4.79 13.24,4.79 5.53,0 9.94,-1.6 13.24,-4.79 3.3,-3.19 4.95,-8.83 4.95,-16.91 0,-7.66 -1.7,-14.41 -5.11,-20.26 -3.4,-5.85 -7.66,-11.38 -12.76,-16.59 -5.11,-5.21 -10.58,-10.42 -16.43,-15.63 -5.85,-5.21 -11.33,-10.9 -16.43,-17.07 -5.1,-6.16 -9.36,-13.19 -12.76,-21.05 -3.41,-7.87 -5.11,-17.12 -5.11,-27.76zm208.32 40.52l48.17 0 0 31.9 -48.17 0 0 65.4 60.62 0 0 31.9 -95.71 0 0 -223.32 95.71 0 0 31.9 -60.62 0 0 62.21zm135.27 88.05l26.8 -182.17 32.22 0 -34.46 223.32 -52.32 0 -34.45 -223.32 35.41 0 26.8 182.17zm110.39 -88.05l48.17 0 0 31.9 -48.17 0 0 65.4 60.62 0 0 31.9 -95.71 0 0 -223.32 95.71 0 0 31.9 -60.62 0 0 62.21zm113.57 -32.54l0 161.75 -31.58 0 0 -223.32 44.02 0 36.05 133.67 0 -133.67 31.26 0 0 223.32 -36.05 0 -43.71 -161.75zm94.75 -61.57l108.47 0 0 31.9 -36.69 0 0 191.42 -35.09 0 0 -191.42 -36.69 0 0 -31.9zm128.25 173.87l-4.47 -80.72 0 -93.15 35.09 0 0 93.15 -4.47 80.72 -26.16 0zm29.99 15.63l0 33.82 -33.82 0 0 -33.82 33.82 0z"/>
   <path class="fil2" d="M5075.77 532.71c1.12,0.13 2.3,0.19 3.55,0.19 1.24,0 2.43,0 3.55,0 3.23,0 6,-0.81 8.3,-2.43 2.3,-1.62 3.45,-4.98 3.45,-10.08l0 -99.67 20.53 0 0 98.18c0,6.59 -0.81,12.01 -2.43,16.24 -1.62,4.23 -3.8,7.56 -6.53,9.99 -2.74,2.43 -5.88,4.14 -9.43,5.13 -3.55,0.99 -7.25,1.49 -11.11,1.49 -1.87,0 -3.55,0 -5.04,0 -1.49,0 -3.11,-0.12 -4.85,-0.37l0 -18.66zm72.98 -111.99l0 100.79c0,4.73 0.97,8.03 2.89,9.89 1.93,1.87 4.51,2.8 7.74,2.8 3.24,0 5.82,-0.93 7.74,-2.8 1.93,-1.87 2.89,-5.16 2.89,-9.89l0 -100.79 19.41 0 0 99.48c0,10.58 -2.58,18.7 -7.74,24.36 -5.16,5.66 -12.78,8.49 -22.86,8.49 -10.08,0 -17.7,-2.83 -22.86,-8.49 -5.16,-5.66 -7.75,-13.78 -7.75,-24.36l0 -99.48 20.53 0zm72.98 36.02l0 94.63 -18.48 0 0 -130.65 25.76 0 21.09 78.2 0 -78.2 18.29 0 0 130.65 -21.09 0 -25.57 -94.63zm81.94 19.04l28.18 0 0 18.66 -28.18 0 0 38.26 35.46 0 0 18.66 -55.99 0 0 -130.65 55.99 0 0 18.66 -35.46 0 0 36.39zm89.77 -38.63c3.98,0 7.25,-0.43 9.8,-1.31 2.55,-0.87 4.63,-2.05 6.25,-3.55 1.62,-1.49 2.93,-3.24 3.92,-5.23 0.99,-1.99 1.87,-4.11 2.61,-6.35l13.81 0 0 130.65 -20.53 0 0 -99.67 -15.87 0 0 -14.56zm121.5 -16.43l0 17.92 -30.24 112.73 -20.53 0 30.05 -111.99 -40.88 0 0 -18.66 61.59 0zm12.69 55.99l37.33 0 0 18.66 -37.33 0 0 -18.66zm64.02 -39.57c3.98,0 7.25,-0.43 9.8,-1.31 2.55,-0.87 4.63,-2.05 6.25,-3.55 1.62,-1.49 2.93,-3.24 3.92,-5.23 0.99,-1.99 1.87,-4.11 2.61,-6.35l13.81 0 0 130.65 -20.53 0 0 -99.67 -15.87 0 0 -14.56zm121.5 81.75c0,11.07 -2.55,19.5 -7.65,25.29 -5.1,5.78 -13,8.68 -23.7,8.68 -10.08,0 -17.7,-2.83 -22.86,-8.49 -5.16,-5.66 -7.74,-13.78 -7.74,-24.36l0 -3.36 19.41 0 0 4.67c0,4.73 0.97,8.06 2.89,9.98 1.93,1.93 4.51,2.89 7.74,2.89 3.61,0 6.41,-1.12 8.4,-3.36 1.99,-2.24 2.99,-6.47 2.99,-12.69l0 -23.89c-3.61,7.72 -9.95,11.57 -19.04,11.57 -7.59,0 -13.28,-2.55 -17.08,-7.65 -3.8,-5.1 -5.69,-12.51 -5.69,-22.21l0 -23.89c0,-10.58 2.68,-18.7 8.03,-24.36 5.35,-5.66 13.07,-8.49 23.14,-8.49 10.08,0 17.79,2.83 23.14,8.49 5.35,5.66 8.03,13.78 8.03,24.36l0 66.82zm-31.17 -31.73c3.24,0 5.82,-0.97 7.74,-2.89 1.93,-1.93 2.89,-5.26 2.89,-9.99l0 -23.52c0,-4.73 -0.97,-8.03 -2.89,-9.89 -1.93,-1.87 -4.51,-2.8 -7.74,-2.8 -3.24,0 -5.82,0.93 -7.75,2.8 -1.93,1.87 -2.89,5.16 -2.89,9.89l0 23.52c0,4.73 0.96,8.06 2.89,9.99 1.93,1.93 4.51,2.89 7.75,2.89zm105.45 -78.58l16.8 0 0 154.91 -16.8 0 0 -154.91zm87.91 43.49c0,-10.58 2.52,-18.7 7.56,-24.36 5.04,-5.66 12.6,-8.49 22.68,-8.49 10.08,0 17.64,2.83 22.68,8.49 5.04,5.66 7.56,13.78 7.56,24.36l0 4.11 -19.41 0 0 -5.41c0,-4.73 -0.9,-8.06 -2.71,-9.99 -1.8,-1.93 -4.32,-2.89 -7.56,-2.89 -3.23,0 -5.75,0.96 -7.56,2.89 -1.81,1.93 -2.71,5.26 -2.71,9.99 0,4.48 0.99,8.43 2.99,11.85 1.99,3.42 4.48,6.66 7.47,9.7 2.99,3.05 6.19,6.1 9.61,9.14 3.42,3.05 6.63,6.38 9.61,9.99 2.99,3.61 5.47,7.71 7.47,12.32 1.99,4.61 2.99,10.02 2.99,16.24 0,10.58 -2.58,18.69 -7.74,24.36 -5.16,5.66 -12.79,8.49 -22.86,8.49 -10.08,0 -17.7,-2.83 -22.86,-8.49 -5.16,-5.66 -7.75,-13.78 -7.75,-24.36l0 -8.03 19.41 0 0 9.33c0,4.73 0.96,8.03 2.89,9.89 1.93,1.87 4.51,2.8 7.74,2.8 3.24,0 5.82,-0.93 7.75,-2.8 1.93,-1.87 2.89,-5.16 2.89,-9.89 0,-4.48 -0.99,-8.43 -2.99,-11.85 -1.99,-3.42 -4.48,-6.66 -7.47,-9.7 -2.99,-3.05 -6.19,-6.1 -9.61,-9.15 -3.42,-3.05 -6.63,-6.38 -9.61,-9.99 -2.99,-3.61 -5.47,-7.71 -7.47,-12.32 -1.99,-4.6 -2.99,-10.01 -2.99,-16.24zm138.86 99.29l-20.72 0 -3.55 -23.7 -25.2 0 -3.55 23.7 -18.85 0 20.9 -130.65 30.05 0 20.9 130.65zm-46.85 -41.43l19.78 0 -9.89 -66.07 -9.89 66.07zm74.66 -53.19l0 94.63 -18.48 0 0 -130.65 25.76 0 21.09 78.2 0 -78.2 18.29 0 0 130.65 -21.09 0 -25.57 -94.63zm110.87 22.02l26.5 0 0 18.66 -26.5 0 0 53.94 -20.53 0 0 -130.65 54.31 0 0 18.66 -33.78 0 0 39.38zm86.6 72.61c-0.25,-0.87 -0.5,-1.68 -0.74,-2.43 -0.25,-0.75 -0.47,-1.68 -0.65,-2.8 -0.19,-1.12 -0.31,-2.55 -0.38,-4.29 -0.06,-1.74 -0.09,-3.92 -0.09,-6.53l0 -20.53c0,-6.1 -1.06,-10.39 -3.17,-12.88 -2.12,-2.49 -5.54,-3.73 -10.27,-3.73l-7.09 0 0 53.19 -20.53 0 0 -130.65 30.98 0c10.7,0 18.45,2.49 23.24,7.47 4.79,4.98 7.19,12.51 7.19,22.59l0 10.26c0,13.44 -4.48,22.27 -13.44,26.5 5.23,2.12 8.8,5.57 10.73,10.36 1.93,4.79 2.89,10.61 2.89,17.45l0 20.16c0,3.23 0.13,6.07 0.38,8.49 0.25,2.43 0.87,4.88 1.87,7.37l-20.91 0zm-22.39 -111.99l0 40.13 8.03 0c3.86,0 6.88,-0.99 9.05,-2.99 2.18,-1.99 3.27,-5.6 3.27,-10.82l0 -12.88c0,-4.73 -0.84,-8.15 -2.52,-10.26 -1.68,-2.12 -4.32,-3.17 -7.93,-3.17l-9.89 0zm120.94 111.99l-20.72 0 -3.55 -23.7 -25.2 0 -3.55 23.7 -18.85 0 20.9 -130.65 30.05 0 20.9 130.65zm-46.85 -41.43l19.78 0 -9.89 -66.07 -9.89 66.07zm74.66 -53.19l0 94.63 -18.48 0 0 -130.65 25.76 0 21.09 78.2 0 -78.2 18.29 0 0 130.65 -21.09 0 -25.57 -94.63zm120.95 45.91l0 17.36c0,10.58 -2.58,18.69 -7.75,24.36 -5.16,5.66 -12.78,8.49 -22.86,8.49 -10.08,0 -17.7,-2.83 -22.86,-8.49 -5.16,-5.66 -7.74,-13.78 -7.74,-24.36l0 -67.94c0,-10.58 2.58,-18.7 7.74,-24.36 5.16,-5.66 12.78,-8.49 22.86,-8.49 10.08,0 17.7,2.83 22.86,8.49 5.16,5.66 7.75,13.78 7.75,24.36l0 12.69 -19.41 0 0 -14c0,-4.73 -0.96,-8.06 -2.89,-9.99 -1.93,-1.93 -4.51,-2.89 -7.75,-2.89 -3.24,0 -5.82,0.96 -7.74,2.89 -1.93,1.93 -2.89,5.26 -2.89,9.99l0 70.55c0,4.73 0.97,8.03 2.89,9.89 1.93,1.87 4.51,2.8 7.74,2.8 3.24,0 5.82,-0.93 7.75,-2.8 1.93,-1.87 2.89,-5.16 2.89,-9.89l0 -18.66 19.41 0zm12.5 -81.94l20.53 0 0 130.65 -20.53 0 0 -130.65zm32.85 31.36c0,-10.58 2.52,-18.7 7.56,-24.36 5.04,-5.66 12.6,-8.49 22.68,-8.49 10.08,0 17.64,2.83 22.68,8.49 5.04,5.66 7.56,13.78 7.56,24.36l0 4.11 -19.41 0 0 -5.41c0,-4.73 -0.9,-8.06 -2.71,-9.99 -1.8,-1.93 -4.32,-2.89 -7.56,-2.89 -3.23,0 -5.75,0.96 -7.56,2.89 -1.81,1.93 -2.71,5.26 -2.71,9.99 0,4.48 0.99,8.43 2.99,11.85 1.99,3.42 4.48,6.66 7.47,9.7 2.99,3.05 6.19,6.1 9.61,9.14 3.42,3.05 6.63,6.38 9.61,9.99 2.99,3.61 5.47,7.71 7.47,12.32 1.99,4.61 2.99,10.02 2.99,16.24 0,10.58 -2.58,18.69 -7.74,24.36 -5.16,5.66 -12.79,8.49 -22.86,8.49 -10.08,0 -17.7,-2.83 -22.86,-8.49 -5.16,-5.66 -7.75,-13.78 -7.75,-24.36l0 -8.03 19.41 0 0 9.33c0,4.73 0.96,8.03 2.89,9.89 1.93,1.87 4.51,2.8 7.74,2.8 3.24,0 5.82,-0.93 7.75,-2.8 1.93,-1.87 2.89,-5.16 2.89,-9.89 0,-4.48 -0.99,-8.43 -2.99,-11.85 -1.99,-3.42 -4.48,-6.66 -7.47,-9.7 -2.99,-3.05 -6.19,-6.1 -9.61,-9.15 -3.42,-3.05 -6.63,-6.38 -9.61,-9.99 -2.99,-3.61 -5.47,-7.71 -7.47,-12.32 -1.99,-4.6 -2.99,-10.01 -2.99,-16.24zm131.96 50.58l0 17.36c0,10.58 -2.58,18.69 -7.75,24.36 -5.16,5.66 -12.78,8.49 -22.86,8.49 -10.08,0 -17.7,-2.83 -22.86,-8.49 -5.16,-5.66 -7.74,-13.78 -7.74,-24.36l0 -67.94c0,-10.58 2.58,-18.7 7.74,-24.36 5.16,-5.66 12.78,-8.49 22.86,-8.49 10.08,0 17.7,2.83 22.86,8.49 5.16,5.66 7.75,13.78 7.75,24.36l0 12.69 -19.41 0 0 -14c0,-4.73 -0.96,-8.06 -2.89,-9.99 -1.93,-1.93 -4.51,-2.89 -7.75,-2.89 -3.24,0 -5.82,0.96 -7.74,2.89 -1.93,1.93 -2.89,5.26 -2.89,9.99l0 70.55c0,4.73 0.97,8.03 2.89,9.89 1.93,1.87 4.51,2.8 7.74,2.8 3.24,0 5.82,-0.93 7.75,-2.8 1.93,-1.87 2.89,-5.16 2.89,-9.89l0 -18.66 19.41 0zm31.35 18.66c0,4.73 0.97,8.06 2.89,9.98 1.93,1.93 4.51,2.89 7.74,2.89 3.24,0 5.82,-0.97 7.75,-2.89 1.93,-1.93 2.89,-5.26 2.89,-9.98l0 -70.55c0,-4.73 -0.96,-8.06 -2.89,-9.99 -1.93,-1.93 -4.51,-2.89 -7.75,-2.89 -3.24,0 -5.82,0.96 -7.74,2.89 -1.93,1.93 -2.89,5.26 -2.89,9.99l0 70.55zm-20.53 -69.24c0,-10.58 2.67,-18.7 8.03,-24.36 5.35,-5.66 13.07,-8.49 23.14,-8.49 10.08,0 17.79,2.83 23.14,8.49 5.35,5.66 8.03,13.78 8.03,24.36l0 67.94c0,10.58 -2.68,18.69 -8.03,24.36 -5.35,5.66 -13.07,8.49 -23.14,8.49 -10.08,0 -17.79,-2.83 -23.14,-8.49 -5.35,-5.66 -8.03,-13.78 -8.03,-24.36l0 -67.94zm73.72 99.29l0 -19.78 19.78 0 0 17.73 -8.96 20.72 -8.4 0 5.41 -18.66 -7.84 0zm123.18 -48.71l0 17.36c0,10.58 -2.58,18.69 -7.75,24.36 -5.16,5.66 -12.78,8.49 -22.86,8.49 -10.08,0 -17.7,-2.83 -22.86,-8.49 -5.16,-5.66 -7.74,-13.78 -7.74,-24.36l0 -67.94c0,-10.58 2.58,-18.7 7.74,-24.36 5.16,-5.66 12.78,-8.49 22.86,-8.49 10.08,0 17.7,2.83 22.86,8.49 5.16,5.66 7.75,13.78 7.75,24.36l0 12.69 -19.41 0 0 -14c0,-4.73 -0.96,-8.06 -2.89,-9.99 -1.93,-1.93 -4.51,-2.89 -7.75,-2.89 -3.24,0 -5.82,0.96 -7.74,2.89 -1.93,1.93 -2.89,5.26 -2.89,9.99l0 70.55c0,4.73 0.97,8.03 2.89,9.89 1.93,1.87 4.51,2.8 7.74,2.8 3.24,0 5.82,-0.93 7.75,-2.8 1.93,-1.87 2.89,-5.16 2.89,-9.89l0 -18.66 19.41 0zm78.95 48.71l-20.72 0 -3.55 -23.7 -25.2 0 -3.55 23.7 -18.85 0 20.9 -130.65 30.05 0 20.9 130.65zm-46.85 -41.43l19.78 0 -9.89 -66.07 -9.89 66.07z"/>
  </g>
 </g>
</svg>
