<svg width="23" height="26" fill="none" xmlns="http://www.w3.org/2000/svg"><g clip-path="url(#clip0)" fill="#fff"><path d="M8.77 15.757v-1.128h9.141v1.128H8.77zM17.914 19.683v1.151H8.78v-1.151h9.134zM17.92 12.094v1.113H8.77v-1.113h9.15zM8.77 18.28v-1.11h9.132v1.11H8.77z"/><path d="M3.16 23.399l-.003-.974h-.343c-1.185 0-1.772-.563-1.773-1.7-.002-1.857-.001-3.713-.001-5.569 0-2.492.013-4.984-.008-7.476-.004-.46.15-.6.61-.576.636.033 1.276.01 1.915.008 1.757-.007 2.775-.993 2.777-2.69V1.009h10.047c1.047 0 1.602.305 1.803 1.048l1.079.003C19.037.801 18.079.02 16.639.011c-3.318-.017-6.636-.01-9.954.007a.95.95 0 00-.62.288A758.39 758.39 0 00.265 6.83a1.052 1.052 0 00-.249.64C0 11.923-.007 16.376.007 20.829c.005 1.597 1.076 2.6 2.72 2.6h.433v-.03zM5.267 2.67c0 .869.054 1.586-.016 2.29-.063.633-.697 1.11-1.386 1.147-.458.023-.918.004-1.552.004L5.267 2.67z"/><path d="M22.999 23.322c-.001 1.657-1.043 2.675-2.747 2.676-4.613.003-9.227.003-13.84 0-1.643-.001-2.714-1.004-2.72-2.601-.013-4.453-.007-8.906.008-13.358.001-.216.103-.476.248-.64A774.738 774.738 0 019.75 2.874a.95.95 0 01.62-.287c3.318-.018 6.636-.025 9.954-.008 1.653.01 2.672 1.04 2.674 2.639.002 3.008 0 6.017 0 9.025.002 3.026.003 6.053 0 9.079zM10.019 6.99C10.019 8.686 9 9.673 7.244 9.68c-.64.002-1.279.026-1.916-.007-.46-.024-.613.115-.609.575.02 2.492.009 4.985.008 7.476 0 1.857-.003 3.713 0 5.569.002 1.138.59 1.7 1.774 1.7h13.676c1.22 0 1.784-.549 1.784-1.734V5.417c0-1.33-.53-1.843-1.895-1.843H10.02c0 1.189.002 2.303 0 3.416zM7.552 8.676c.69-.036 1.323-.514 1.386-1.146.07-.706.016-1.423.016-2.29L5.998 8.68c.635 0 1.095.019 1.553-.005z"/></g><defs><clipPath id="clip0"><path fill="#fff" d="M0 0h23v26H0z"/></clipPath></defs></svg>