<svg width="23" height="26" viewBox="0 0 23 26" fill="none" xmlns="http://www.w3.org/2000/svg">
<g clip-path="url(#clip0)">
<path d="M8.76978 15.7569C8.76978 15.3751 8.76978 15.0212 8.76978 14.6292C11.8183 14.6292 14.8509 14.6292 17.9112 14.6292C17.9112 15.0057 17.9112 15.3596 17.9112 15.7569C14.869 15.7569 11.8354 15.7569 8.76978 15.7569Z" fill="white"/>
<path d="M17.9143 19.6826C17.9143 20.084 17.9143 20.4399 17.9143 20.834C14.8678 20.834 11.8459 20.834 8.78027 20.834C8.78027 20.4513 8.78027 20.084 8.78027 19.6826C11.8182 19.6826 14.8423 19.6826 17.9143 19.6826Z" fill="white"/>
<path d="M17.9208 12.0941C17.9208 12.4862 17.9208 12.8257 17.9208 13.2074C14.8669 13.2074 11.8322 13.2074 8.76978 13.2074C8.76978 12.8287 8.76978 12.478 8.76978 12.0941C11.8247 12.0941 14.8477 12.0941 17.9208 12.0941Z" fill="white"/>
<path d="M8.76978 18.2805C8.76978 17.9018 8.76978 17.551 8.76978 17.1703C11.8205 17.1703 14.8424 17.1703 17.9016 17.1703C17.9016 17.5314 17.9016 17.8822 17.9016 18.2805C14.868 18.2805 11.8354 18.2805 8.76978 18.2805Z" fill="white"/>
<path d="M3.15979 23.3988C3.15872 23.0769 3.15766 22.7529 3.15659 22.4248C3.04266 22.4248 2.92766 22.4248 2.81372 22.4248C1.62858 22.4248 1.04187 21.8625 1.0408 20.7245C1.03867 18.8684 1.03974 17.0123 1.03974 15.1562C1.03974 12.6645 1.05252 10.1718 1.03228 7.68012C1.02803 7.21996 1.18136 7.08068 1.64136 7.10441C2.27812 7.13742 2.91807 7.11472 3.55696 7.11163C5.31391 7.10544 6.33187 6.11909 6.334 4.4229C6.33506 3.30861 6.334 2.19536 6.334 1.00782H7.01441C10.1365 1.00782 13.2585 1.00782 16.3805 1.00782C17.4283 1.00782 17.9831 1.31322 18.1843 2.05607C18.5474 2.05711 18.9073 2.05814 19.263 2.05917C19.0372 0.801472 18.0789 0.0194085 16.6393 0.0111545C13.3213 -0.00638515 10.0034 0.000837072 6.68539 0.0183768C6.47562 0.0194085 6.20622 0.15044 6.06566 0.306234C4.11812 2.4698 2.18548 4.64472 0.263489 6.82996C0.118674 6.99504 0.0153867 7.25401 0.0153867 7.46964C-0.000585562 11.9227 -0.00697445 16.3757 0.00686814 20.8287C0.0121922 22.4258 1.0834 23.4287 2.72641 23.4297C2.87122 23.4297 3.01603 23.4297 3.15979 23.4297C3.16085 23.4194 3.15979 23.4091 3.15979 23.3988ZM5.26705 2.671C5.26705 3.53973 5.32136 4.25679 5.25108 4.96147C5.18826 5.59393 4.55363 6.07163 3.86469 6.10774C3.40682 6.13147 2.94682 6.11187 2.31326 6.11187C3.33122 4.92639 4.25016 3.85544 5.26705 2.671Z" fill="white"/>
<path d="M22.9989 23.3216C22.9978 24.9786 21.9564 25.9969 20.2517 25.998C15.6389 26.0011 11.025 26.0011 6.41226 25.998C4.76925 25.9969 3.69804 24.9941 3.69272 23.3969C3.67888 18.9439 3.68527 14.4909 3.70017 10.0389C3.70124 9.82328 3.80346 9.56328 3.94827 9.39923C5.87027 7.214 7.8029 5.03907 9.75045 2.87447C9.89101 2.71868 10.1604 2.58765 10.3702 2.58661C13.6881 2.56907 17.0061 2.56185 20.3241 2.57939C21.9767 2.58868 22.9957 3.61836 22.9978 5.21757C22.9999 8.22614 22.9989 11.2347 22.9989 14.2433C22.9999 17.2694 23.001 20.2955 22.9989 23.3216ZM10.0198 6.99011C10.0177 8.6863 8.99975 9.67265 7.24281 9.67884C6.60392 9.6809 5.96397 9.70463 5.32721 9.67161C4.86721 9.64788 4.71388 9.78717 4.71814 10.2473C4.73837 12.739 4.72665 15.2317 4.72559 17.7234C4.72559 19.5795 4.72346 21.4356 4.72665 23.2917C4.72772 24.4297 5.3155 24.992 6.49957 24.992C11.058 24.993 15.6176 24.993 20.1761 24.992C21.3953 24.992 21.9596 24.4431 21.9596 23.2576C21.9607 17.3107 21.9607 11.3637 21.9596 5.41669C21.9596 4.0878 21.4293 3.574 20.0653 3.574C16.9433 3.57296 13.8212 3.574 10.6992 3.574C10.4916 3.574 10.2839 3.574 10.0188 3.574C10.0198 4.76257 10.0209 5.87685 10.0198 6.99011ZM7.55054 8.67598C8.24054 8.63987 8.87411 8.16217 8.93693 7.52971C9.00721 6.824 8.9529 6.10693 8.9529 5.23923C7.93601 6.42368 7.01707 7.49463 5.99804 8.68114C6.63267 8.68114 7.09267 8.69971 7.55054 8.67598Z" fill="white"/>
</g>
<defs>
<clipPath id="clip0">
<rect width="23" height="26" fill="white"/>
</clipPath>
</defs>
</svg>
