<?xml version="1.0" encoding="utf-8"?>
<!-- Generator: Adobe Illustrator 24.0.0, SVG Export Plug-In . SVG Version: 6.00 Build 0)  -->
<svg version="1.1" id="Layer_1" xmlns="http://www.w3.org/2000/svg" xmlns:xlink="http://www.w3.org/1999/xlink" x="0px" y="0px"
	 viewBox="0 0 1239 477" style="enable-background:new 0 0 1239 477;" xml:space="preserve">
<style type="text/css">
	.st0{fill-rule:evenodd;clip-rule:evenodd;fill:#6697C9;}
	.st1{clip-path:url(#SVGID_2_);fill:url(#SVGID_3_);}
	.st2{fill-rule:evenodd;clip-rule:evenodd;fill:#7BA5D1;}
	.st3{fill-rule:evenodd;clip-rule:evenodd;fill:#2F6797;}
	.st4{fill:none;stroke:#6D6E70;stroke-miterlimit:10;}
	.st5{fill:#6697C9;}
	.st6{fill:#353233;}
	.st7{fill:#FFFFFF;}
	.st8{fill:#7BA5D1;}
	.st9{fill:url(#SVGID_4_);}
	.st10{fill:url(#SVGID_5_);}
	.st11{fill:url(#SVGID_6_);}
	.st12{fill-rule:evenodd;clip-rule:evenodd;fill:#6699CB;}
	.st13{clip-path:url(#SVGID_8_);fill:url(#SVGID_9_);}
	.st14{fill-rule:evenodd;clip-rule:evenodd;fill:#7AA8D4;}
	.st15{fill-rule:evenodd;clip-rule:evenodd;fill:#2E6799;}
	.st16{fill:#40BE46;}
	.st17{fill:#7AA8D4;}
	.st18{fill:url(#SVGID_10_);}
	.st19{fill:url(#SVGID_11_);}
	.st20{fill:url(#SVGID_12_);}
	.st21{fill:url(#SVGID_13_);}
	.st22{fill-rule:evenodd;clip-rule:evenodd;}
	.st23{fill-rule:evenodd;clip-rule:evenodd;fill:#40BE46;}
	.st24{fill:none;stroke:#000000;stroke-width:2.5;stroke-miterlimit:10;}
</style>
<g>
	<g>
		<g>
			<polygon class="st0" points="600.06,251.82 529.74,211.05 529.74,276.42 600.06,322.75 			"/>
			<g>
				<defs>
					<polygon id="SVGID_1_" points="529.55,211.05 600.06,251.82 670.38,214.32 598.25,178.84 					"/>
				</defs>
				<clipPath id="SVGID_2_">
					<use xlink:href="#SVGID_1_"  style="overflow:visible;"/>
				</clipPath>
				<linearGradient id="SVGID_3_" gradientUnits="userSpaceOnUse" x1="634.3225" y1="235.1799" x2="591.6881" y2="210.5473">
					<stop  offset="0" style="stop-color:#ADD3E4"/>
					<stop  offset="1" style="stop-color:#ADD3E4"/>
				</linearGradient>
				<rect x="529.55" y="178.84" class="st1" width="140.84" height="72.99"/>
			</g>
			<polygon class="st2" points="600.06,251.82 670.38,214.32 670.38,279.69 600.06,322.75 			"/>
			<path class="st0" d="M600.36,196.39l-4.07,0.46l-0.58,0.24l-0.65,0.02l-0.58,0.24l-3.19,0.76l-0.46,0.19l-0.42,0.01l-0.38,0.32
				l-5.88,2.18l-0.31,0.23c-2.66,1.03-4.81,2.48-7.11,3.66l-0.27,0.28c-2.06,1.16-2.8,1.76-4.24,3.2l-0.34,0.23l-1.46,1.96
				l-0.29,0.25l-0.48,0.98l-0.26,0.28c-1.66,3.79-1.63,4.4-1.29,8.82l0.29,0.44v0.45l0.2,0.4l0.55,1.36l0.23,0.32l0.24,0.71
				l0.28,0.25c0.85,1.51,1.89,2.71,2.9,3.81c0.57,0.62,2.97,2.57,3.92,3.06l0.26,0.29c1.93,0.92,3.36,2.08,5.81,2.93l0.33,0.22
				l4.76,1.49l0.53,0.26c1.64,0.18,3.36,0.66,5.17,0.89c1.99,0.26,3.03-0.69,4.68-1.4l0.31-0.23h0.22l0.31-0.24l7.53-3.46l0.31-0.23
				h0.22l0.31-0.24l4.33-2.06l-0.38-0.16c-2.55-0.11-5.56,0.27-8.32,0.2c-2.76-0.07-5.33-0.58-7.85-0.68l-0.54-0.26
				c-1.83-0.17-3.66-0.94-5.25-1.49l-0.34-0.22c-2.54-0.91-4.89-2.92-5.99-4.99c-1.75-3.3-0.66-5.76,0.66-8.55l0.29-0.25l0.23-0.46
				l0.3-0.25c1.37-1.94,4.73-4.64,8.02-5.69l0.34-0.22l3.5-0.99l0.51-0.27l0.54,0.03l0.53-0.26l2.33-0.2
				c0.56-0.37,0.85-0.32,1.65-0.33l5.41,0c0.85-0.03,1.6-0.02,2.21,0.32l3.15,0.42l0.39,0.31c1.91,0.27,3.51,1.33,5.12,1.92
				l0.28,0.26l1,0.47l0.27,0.28c1.7,0.9,4.7,3.65,5.33,5.84l0.22,0.36c0.72,2.48,0.54,3.3-0.01,5.74l-0.19,0.44l-0.88,1.9l1.32-0.53
				l0.29-0.25l10.4-5.39l0.29-0.25l2.49-1.23l0.29-0.25l2.49-1.23l0.29-0.28c0.09-0.54-3.12-3.19-3.82-3.84l-0.24-0.34
				c-0.84-0.72-2.05-1.77-3.04-2.39l-0.25-0.31c-0.99-0.56-1.83-1.44-2.8-1.92l-0.27-0.27l-2.52-1.45l-0.26-0.28l-3.28-1.7
				l-0.31-0.24l-4.22-1.75l-0.36-0.21l-2.55-0.72l-0.41-0.3h-0.44l-0.47-0.19h-0.46l-0.43-0.29c-2.08-0.2-4.37-0.87-6.7-1.08
				c-2.8-0.25-5.52,0.06-8.03-0.15L600.36,196.39z"/>
			<polygon class="st3" points="636.46,232.41 639.08,231.01 639.08,298.86 636.46,300.46 			"/>
		</g>
		<g>
			<g>
				<path d="M541.54,341.55c-1.79,0-3.19,0.59-4.23,1.78c-1.03,1.19-1.55,2.82-1.55,4.88c0,2.13,0.5,3.77,1.49,4.93
					c1,1.16,2.42,1.74,4.26,1.74c1.13,0,2.43-0.2,3.88-0.61v1.66c-1.13,0.42-2.51,0.63-4.17,0.63c-2.39,0-4.24-0.73-5.54-2.18
					c-1.3-1.45-1.95-3.51-1.95-6.19c0-1.67,0.31-3.14,0.94-4.4c0.63-1.26,1.53-2.23,2.71-2.91c1.18-0.68,2.57-1.02,4.17-1.02
					c1.7,0,3.19,0.31,4.47,0.93l-0.8,1.62C544,341.84,542.77,341.55,541.54,341.55z"/>
				<path d="M559.17,350.24c0,1.99-0.5,3.54-1.5,4.65c-1,1.12-2.38,1.67-4.14,1.67c-1.09,0-2.06-0.26-2.9-0.77
					c-0.84-0.51-1.5-1.25-1.96-2.2c-0.46-0.96-0.69-2.08-0.69-3.36c0-1.98,0.5-3.53,1.49-4.64c0.99-1.11,2.37-1.66,4.13-1.66
					c1.7,0,3.06,0.57,4.06,1.7C558.67,346.77,559.17,348.3,559.17,350.24z M549.9,350.24c0,1.56,0.31,2.74,0.93,3.56
					c0.62,0.81,1.54,1.22,2.74,1.22c1.21,0,2.12-0.41,2.75-1.22c0.63-0.81,0.94-2,0.94-3.56c0-1.55-0.31-2.72-0.94-3.53
					s-1.55-1.21-2.77-1.21c-1.21,0-2.12,0.4-2.73,1.19C550.2,347.49,549.9,348.67,549.9,350.24z"/>
				<path d="M570.74,356.34l0-7.88c0-0.99-0.23-1.73-0.68-2.22c-0.45-0.49-1.16-0.73-2.12-0.73c-1.27,0-2.21,0.34-2.8,1.03
					c-0.59,0.69-0.89,1.83-0.89,3.41l0,6.39h-1.84l0-12.18h1.5l0.3,1.67h0.09c0.38-0.6,0.91-1.06,1.59-1.39
					c0.68-0.33,1.44-0.49,2.28-0.49c1.47,0,2.57,0.35,3.31,1.06c0.74,0.71,1.11,1.84,1.11,3.39l0,7.94H570.74z"/>
				<path d="M583.86,356.34l-0.37-1.73h-0.09c-0.61,0.76-1.21,1.28-1.82,1.55c-0.6,0.27-1.36,0.41-2.26,0.41
					c-1.21,0-2.15-0.31-2.84-0.93s-1.03-1.51-1.03-2.66c0-2.46,1.97-3.75,5.9-3.87l2.07-0.07l0-0.76c0-0.96-0.21-1.66-0.62-2.12
					c-0.41-0.46-1.07-0.68-1.97-0.68c-1.01,0-2.16,0.31-3.44,0.93l-0.57-1.41c0.6-0.33,1.26-0.58,1.97-0.77s1.43-0.28,2.15-0.28
					c1.45,0,2.53,0.32,3.23,0.97c0.7,0.64,1.05,1.68,1.05,3.1l0,8.31H583.86z M579.69,355.04c1.15,0,2.05-0.31,2.71-0.94
					c0.66-0.63,0.98-1.51,0.98-2.64v-1.1l-1.84,0.08c-1.47,0.05-2.52,0.28-3.17,0.68c-0.65,0.4-0.97,1.03-0.97,1.88
					c0,0.67,0.2,1.17,0.6,1.52C578.4,354.87,578.97,355.04,579.69,355.04z"/>
				<path d="M597.36,356.34l0-7.88c0-0.99-0.23-1.73-0.68-2.22c-0.45-0.49-1.16-0.73-2.12-0.73c-1.27,0-2.21,0.34-2.8,1.03
					c-0.59,0.69-0.89,1.83-0.89,3.41l0,6.39h-1.84l0-12.18h1.5l0.3,1.67h0.09c0.38-0.6,0.91-1.06,1.59-1.39
					c0.68-0.33,1.44-0.49,2.28-0.49c1.47,0,2.57,0.35,3.31,1.06c0.74,0.71,1.11,1.84,1.11,3.39l0,7.94H597.36z"/>
				<path d="M616.13,341.55c-1.79,0-3.19,0.59-4.23,1.78c-1.03,1.19-1.55,2.82-1.55,4.88c0,2.13,0.5,3.77,1.49,4.93
					c1,1.16,2.42,1.74,4.26,1.74c1.13,0,2.43-0.2,3.88-0.61v1.66c-1.13,0.42-2.51,0.63-4.17,0.63c-2.39,0-4.24-0.73-5.54-2.18
					c-1.3-1.45-1.95-3.51-1.95-6.19c0-1.67,0.31-3.14,0.94-4.4s1.53-2.23,2.71-2.91s2.57-1.02,4.17-1.02c1.7,0,3.19,0.31,4.47,0.93
					l-0.8,1.62C618.59,341.84,617.36,341.56,616.13,341.55z"/>
				<path d="M625.1,356.34h-1.84l0-17.29h1.84L625.1,356.34z"/>
				<path d="M628.85,340.87c0-0.42,0.1-0.73,0.31-0.93c0.21-0.2,0.47-0.29,0.78-0.29c0.3,0,0.55,0.1,0.77,0.3s0.32,0.51,0.32,0.92
					c0,0.42-0.11,0.72-0.32,0.93c-0.21,0.2-0.47,0.31-0.77,0.31c-0.31,0-0.57-0.1-0.78-0.31
					C628.96,341.59,628.85,341.28,628.85,340.87z M630.85,356.34h-1.84l0-12.18h1.84L630.85,356.34z"/>
				<path d="M639.91,356.57c-1.8,0-3.22-0.55-4.26-1.65c-1.04-1.1-1.56-2.62-1.56-4.57c0-1.96,0.48-3.52,1.45-4.68
					c0.97-1.15,2.26-1.73,3.89-1.73c1.53,0,2.73,0.5,3.62,1.5c0.89,1,1.33,2.33,1.33,3.97v1.17l-8.39,0
					c0.04,1.43,0.4,2.52,1.08,3.26c0.68,0.74,1.65,1.11,2.89,1.11c1.31,0,2.61-0.27,3.89-0.82v1.64c-0.65,0.28-1.27,0.48-1.85,0.61
					C641.43,356.51,640.73,356.57,639.91,356.57z M639.41,345.49c-0.98,0-1.76,0.32-2.34,0.96c-0.58,0.64-0.92,1.52-1.03,2.64
					l6.37,0c0-1.16-0.26-2.05-0.78-2.67S640.37,345.49,639.41,345.49z"/>
				<path d="M655.86,356.35l0-7.88c0-0.99-0.23-1.73-0.68-2.22c-0.45-0.49-1.16-0.73-2.12-0.73c-1.27,0-2.21,0.34-2.8,1.03
					c-0.59,0.69-0.89,1.83-0.89,3.41v6.39h-1.84l0-12.18h1.5l0.3,1.67h0.09c0.38-0.6,0.91-1.06,1.59-1.39
					c0.68-0.33,1.44-0.49,2.28-0.49c1.47,0,2.57,0.35,3.31,1.06c0.74,0.71,1.11,1.84,1.11,3.39l0,7.94H655.86z"/>
				<path d="M665.43,355.05c0.33,0,0.64-0.02,0.94-0.07s0.54-0.1,0.72-0.15v1.41c-0.2,0.1-0.49,0.18-0.88,0.24
					c-0.39,0.06-0.74,0.09-1.05,0.09c-2.36,0-3.53-1.24-3.53-3.72v-7.24h-1.74v-0.89l1.75-0.77l0.78-2.6h1.07v2.82l3.53,0v1.43
					l-3.53,0l0,7.17c0,0.73,0.17,1.3,0.52,1.69C664.34,354.85,664.82,355.05,665.43,355.05z"/>
			</g>
		</g>
	</g>
	<g>
		<line class="st4" x1="908.19" y1="129.76" x2="724.21" y2="199.64"/>
		<g>
			<polygon class="st5" points="727.53,203.89 734.88,206.03 733.54,202.75 731.67,202.2 724.31,200.06 728.08,193.39 
				729.04,191.69 727.7,188.4 723.93,195.08 720.17,201.75 			"/>
		</g>
		<g>
			<polygon class="st5" points="904.57,126.06 897.23,123.86 898.54,127.15 900.41,127.71 907.75,129.91 903.93,136.56 
				902.96,138.25 904.28,141.54 908.09,134.9 911.91,128.26 			"/>
		</g>
	</g>
	<g>
		<line class="st4" x1="723.89" y1="286.6" x2="907.87" y2="356.48"/>
		<g>
			<polygon class="st5" points="727.51,282.9 734.85,280.7 733.53,284 731.67,284.56 724.33,286.75 728.14,293.4 729.12,295.09 
				727.8,298.38 723.99,291.74 720.17,285.1 			"/>
		</g>
	</g>
	<g>
		<line class="st4" x1="289.32" y1="356.97" x2="473.29" y2="287.09"/>
		<g>
			<polygon class="st5" points="469.98,282.84 462.62,280.7 463.96,283.99 465.83,284.53 473.19,286.67 469.42,293.34 
				468.47,295.04 469.81,298.33 473.57,291.65 477.33,284.98 			"/>
		</g>
	</g>
	<g>
		<line class="st4" x1="473.61" y1="200.13" x2="289.64" y2="130.25"/>
		<g>
			<polygon class="st5" points="469.99,203.83 462.65,206.03 463.97,202.74 465.83,202.18 473.17,199.98 469.36,193.33 
				468.39,191.64 469.7,188.35 473.52,194.99 477.33,201.63 			"/>
		</g>
	</g>
	<g>
		<g>
			<path class="st6" d="M116.41,100.32c0.24,0,0.49-0.06,0.72-0.19c6.95-4.06,14.54-6.59,22.54-7.51c0.41-1.72,0.71-3.49,0.95-5.26
				c2.09,0.76,4.11,1.16,5.73,1.16c1.61,0,3.63-0.4,5.73-1.16c0.25,1.78,0.54,3.55,0.95,5.26c8,0.92,15.59,3.45,22.54,7.51
				c0.23,0.13,0.47,0.19,0.72,0.19c0.49,0,0.97-0.25,1.23-0.71c0.13-0.22,0.19-0.47,0.19-0.71c0-0.49-0.25-0.97-0.7-1.23
				c-6.7-3.91-13.97-6.47-21.62-7.61c-0.25-1.28-0.44-2.58-0.61-3.89c4.69-2.41,9.04-6.66,9.44-12.53c2.68-1.5,4.38-4.32,4.38-7.45
				c0-1.54-0.42-3.06-1.22-4.39c0,0,0,0,0,0c0,0,0,0,0,0c-0.1-0.17-0.21-0.34-0.32-0.5c0.22-0.72,0.4-1.45,0.54-2.17c0,0,0,0,0,0
				c0.27-1.37,0.4-2.77,0.4-4.16c0-8.98-5.4-16.89-13.77-20.16c0,0,0,0-0.01,0c-2.79-1.09-5.79-1.59-8.76-1.46l0,0l0,0c0,0,0,0,0,0
				l-1.15,0c-1.14,0-2.29,0.12-3.38,0.45c-10.2,3.15-16.24,11.76-16.24,21.17c0,2.15,0.32,4.28,0.95,6.33
				c-1,1.43-1.54,3.14-1.54,4.89c0,3.13,1.7,5.95,4.38,7.45c0.4,5.87,4.74,10.12,9.44,12.53c-0.16,1.3-0.36,2.6-0.61,3.89
				c-7.65,1.14-14.92,3.69-21.62,7.61c-0.45,0.26-0.71,0.74-0.7,1.23c0,0.24,0.06,0.49,0.19,0.71
				C115.44,100.06,115.92,100.32,116.41,100.32z M141.79,36.53c0.86-0.26,1.77-0.35,2.67-0.35l1.11,0c0,0,0,0,0,0
				c2.58-0.1,5.18,0.32,7.61,1.27c0,0,0,0,0,0c7.26,2.84,11.96,9.72,11.96,17.51c0,1.2-0.12,2.42-0.35,3.61c0,0,0,0,0,0l0,0
				c-0.14,0.73-0.34,1.47-0.58,2.19c-1.2-0.26-2.39-0.62-3.55-1.08c0,0,0,0,0,0c-0.94-0.37-1.85-0.81-2.73-1.31
				c-2.48-1.41-4.65-3.25-6.44-5.48c-0.41-0.51-1.12-0.68-1.71-0.4c-0.59,0.28-0.92,0.93-0.79,1.57c0.34,1.66,0.85,3.3,1.53,4.88
				c0.1,0.23,0.2,0.46,0.3,0.68c-2.66-0.54-5.22-1.56-7.51-3.01c-2.41-1.52-4.49-3.47-6.16-5.78c-3.1,1.82-5.66,4.53-7.32,7.72
				c-0.47,0.9-0.87,1.83-1.19,2.79c-0.03-0.08-0.06-0.17-0.09-0.25c-0.68-1.98-1.03-4.05-1.03-6.14
				C127.54,46.74,132.84,39.22,141.79,36.53z M131.27,73c0.1-0.63-0.21-1.27-0.83-1.53c-2.13-0.89-3.5-2.96-3.5-5.27
				c0-0.45,0.07-0.89,0.18-1.33c0.27,0.53,0.54,1.05,0.85,1.56c0.26,0.42,0.72,0.67,1.21,0.67c0.11,0,0.22-0.01,0.32-0.04
				c0.59-0.14,1.03-0.64,1.09-1.24c0.21-2.07,0.8-4.07,1.77-5.92c1.04-2,2.5-3.78,4.25-5.2c1.52,1.67,3.26,3.13,5.19,4.35
				c3.45,2.18,7.42,3.5,11.49,3.82c0.04,0,0.07,0,0.11,0c0.49,0,0.95-0.26,1.21-0.68c0.28-0.46,0.28-1.03,0-1.49
				c-0.35-0.57-0.66-1.15-0.95-1.75c0.91,0.7,1.87,1.34,2.88,1.92c0.99,0.56,2.02,1.05,3.07,1.47c0,0,0,0,0,0
				c1.33,0.53,2.7,0.95,4.08,1.24c0,0,0,0,0,0c0.41,0.09,0.82,0.16,1.24,0.23c0.08,0.01,0.15,0.02,0.22,0.02
				c0.02,0,0.03-0.01,0.05-0.01c0.35,0.75,0.54,1.56,0.54,2.38c0,2.31-1.38,4.38-3.5,5.27c-0.62,0.26-0.93,0.9-0.83,1.53
				c-0.19,7.74-9.94,12.68-15.07,12.68C141.87,85.67,131.46,81.36,131.27,73z"/>
			<path class="st6" d="M194.59,147.8h-5.76v-37.86c0-3.14-2.45-5.69-5.45-5.69h-74.26c-3.01,0-5.45,2.55-5.45,5.69v37.86H97.9
				c-0.79,0-1.42,0.64-1.42,1.42c0,0.79,0.64,1.42,1.42,1.42h96.69c0.79,0,1.42-0.64,1.42-1.42
				C196.01,148.44,195.37,147.8,194.59,147.8z M106.5,109.95c0-1.57,1.17-2.84,2.61-2.84h74.26c1.44,0,2.61,1.28,2.61,2.84v37.86
				H106.5V109.95z"/>
			<path class="st6" d="M150.4,123.3c-6.06-4.66-12.98,2.25-8.32,8.31C148.14,136.27,155.06,129.36,150.4,123.3z M146.24,130.3
				c-1.57,0-2.84-1.28-2.84-2.84c0-1.57,1.28-2.84,2.84-2.84c1.57,0,2.84,1.28,2.84,2.84C149.09,129.02,147.81,130.3,146.24,130.3z"
				/>
		</g>
		<g>
			<g>
				<path d="M66.43,173.94c-1.79,0-3.19,0.59-4.23,1.78c-1.03,1.19-1.55,2.82-1.55,4.88c0,2.13,0.5,3.77,1.49,4.93
					s2.42,1.74,4.26,1.74c1.13,0,2.43-0.2,3.88-0.61v1.66c-1.13,0.42-2.51,0.63-4.17,0.63c-2.39,0-4.24-0.73-5.54-2.18
					c-1.3-1.45-1.95-3.52-1.95-6.19c0-1.67,0.31-3.14,0.94-4.4c0.63-1.26,1.53-2.23,2.71-2.91c1.18-0.68,2.57-1.02,4.17-1.02
					c1.7,0,3.19,0.31,4.47,0.93l-0.8,1.62C68.89,174.22,67.66,173.94,66.43,173.94z"/>
				<path d="M79.72,172.48l-6.06,16.24h-1.84l6.06-16.24L79.72,172.48z"/>
				<path d="M89.14,173.94c-1.79,0-3.19,0.59-4.23,1.78c-1.03,1.19-1.55,2.82-1.55,4.88c0,2.13,0.5,3.77,1.49,4.93
					s2.42,1.74,4.26,1.74c1.13,0,2.43-0.2,3.88-0.61v1.66c-1.13,0.42-2.51,0.63-4.17,0.63c-2.39,0-4.24-0.73-5.54-2.18
					c-1.3-1.45-1.95-3.51-1.95-6.19c0-1.67,0.31-3.14,0.94-4.4s1.53-2.23,2.71-2.91c1.18-0.68,2.57-1.02,4.17-1.02
					c1.7,0,3.19,0.31,4.47,0.93l-0.8,1.62C91.6,174.23,90.37,173.94,89.14,173.94z"/>
				<path d="M101.56,179.94h4.58v1.53h-4.58l0,4.73h-1.54l0-4.73l-4.56,0v-1.53l4.56,0l0-4.75h1.54L101.56,179.94z"/>
				<path d="M114.57,179.94l4.58,0v1.53l-4.58,0l0,4.73h-1.54l0-4.73l-4.56,0v-1.53l4.56,0l0-4.75h1.54L114.57,179.94z"/>
				<path d="M141.43,180.45c0,2.68-0.73,4.73-2.18,6.15c-1.46,1.42-3.55,2.13-6.28,2.13h-4.5l0-16.24h4.98c2.53,0,4.49,0.7,5.89,2.1
					C140.73,175.99,141.43,177.94,141.43,180.45z M139.43,180.52c0-2.12-0.53-3.71-1.59-4.79c-1.06-1.07-2.64-1.61-4.74-1.61h-2.74
					l0,12.98h2.3c2.25,0,3.94-0.55,5.08-1.66C138.86,184.33,139.43,182.69,139.43,180.52z"/>
				<path d="M149.92,188.95c-1.8,0-3.22-0.55-4.26-1.65c-1.04-1.1-1.56-2.62-1.56-4.57c0-1.96,0.48-3.52,1.45-4.68
					c0.97-1.16,2.26-1.73,3.89-1.73c1.53,0,2.73,0.5,3.62,1.5c0.89,1,1.33,2.33,1.33,3.97v1.17l-8.39,0
					c0.04,1.43,0.4,2.51,1.08,3.25c0.68,0.74,1.65,1.11,2.89,1.11c1.31,0,2.61-0.27,3.89-0.82v1.64c-0.65,0.28-1.27,0.48-1.85,0.61
					S150.74,188.95,149.92,188.95z M149.42,177.88c-0.98,0-1.76,0.32-2.34,0.95c-0.58,0.64-0.92,1.52-1.03,2.64l6.37,0
					c0-1.16-0.26-2.05-0.78-2.67S150.38,177.88,149.42,177.88z"/>
				<path d="M160.21,188.73l-4.62-12.18h1.98l2.62,7.22c0.59,1.69,0.94,2.79,1.04,3.29h0.09c0.08-0.39,0.34-1.21,0.77-2.44
					c0.43-1.23,1.41-3.92,2.92-8.07h1.98l-4.62,12.18H160.21z"/>
				<path d="M174.08,188.96c-1.8,0-3.22-0.55-4.26-1.64c-1.04-1.1-1.56-2.62-1.56-4.57c0-1.96,0.48-3.52,1.45-4.68
					c0.97-1.16,2.26-1.73,3.89-1.73c1.53,0,2.73,0.5,3.62,1.5c0.89,1,1.33,2.33,1.33,3.97v1.17l-8.39,0
					c0.04,1.43,0.4,2.51,1.08,3.25c0.68,0.74,1.65,1.11,2.89,1.11c1.31,0,2.61-0.27,3.89-0.82v1.64c-0.65,0.28-1.27,0.48-1.85,0.6
					S174.91,188.96,174.08,188.96z M173.58,177.88c-0.98,0-1.76,0.32-2.34,0.96c-0.58,0.64-0.92,1.52-1.03,2.64h6.37
					c0-1.16-0.26-2.05-0.78-2.67S174.55,177.88,173.58,177.88z"/>
				<path d="M183.55,188.73h-1.84l0-17.29h1.84L183.55,188.73z"/>
				<path d="M197.97,182.64c0,1.99-0.5,3.54-1.5,4.65c-1,1.12-2.38,1.67-4.14,1.67c-1.09,0-2.06-0.26-2.9-0.77
					c-0.84-0.51-1.5-1.25-1.96-2.2c-0.46-0.96-0.69-2.08-0.69-3.36c0-1.98,0.5-3.53,1.49-4.64c0.99-1.11,2.37-1.66,4.13-1.66
					c1.7,0,3.06,0.57,4.06,1.7C197.47,179.17,197.97,180.7,197.97,182.64z M188.69,182.64c0,1.56,0.31,2.74,0.93,3.56
					c0.62,0.81,1.54,1.22,2.74,1.22c1.21,0,2.12-0.41,2.75-1.22c0.63-0.81,0.94-2,0.94-3.56c0-1.55-0.31-2.72-0.94-3.53
					c-0.63-0.8-1.55-1.21-2.77-1.21c-1.21,0-2.12,0.4-2.73,1.19C189,179.88,188.69,181.06,188.69,182.64z"/>
				<path d="M206.87,188.96c-0.79,0-1.52-0.15-2.17-0.44c-0.66-0.29-1.21-0.74-1.65-1.35h-0.13c0.09,0.71,0.13,1.38,0.13,2.02
					l0,5.01h-1.84l0-17.64h1.5l0.26,1.67h0.09c0.47-0.67,1.03-1.15,1.66-1.44c0.63-0.3,1.35-0.44,2.17-0.44
					c1.61,0,2.86,0.55,3.74,1.66c0.88,1.1,1.32,2.65,1.32,4.64c0,2-0.45,3.55-1.34,4.66C209.69,188.41,208.45,188.96,206.87,188.96z
					 M206.6,177.9c-1.24,0-2.14,0.34-2.7,1.03c-0.56,0.69-0.84,1.79-0.86,3.29v0.41c0,1.71,0.28,2.94,0.85,3.67
					c0.57,0.74,1.48,1.11,2.74,1.11c1.05,0,1.88-0.43,2.47-1.28s0.9-2.03,0.9-3.52c0-1.52-0.3-2.68-0.89-3.49
					C208.52,178.31,207.68,177.9,206.6,177.9z"/>
				<path d="M220.29,188.96c-1.8,0-3.22-0.55-4.26-1.65s-1.56-2.62-1.56-4.57c0-1.96,0.48-3.52,1.45-4.68
					c0.97-1.15,2.26-1.73,3.89-1.73c1.53,0,2.73,0.5,3.62,1.5c0.89,1,1.33,2.33,1.33,3.97v1.17h-8.39c0.04,1.43,0.4,2.51,1.08,3.25
					c0.68,0.74,1.65,1.11,2.89,1.11c1.31,0,2.61-0.27,3.89-0.82v1.64c-0.65,0.28-1.27,0.48-1.85,0.61S221.11,188.96,220.29,188.96z
					 M219.79,177.88c-0.98,0-1.76,0.32-2.34,0.96c-0.58,0.64-0.92,1.52-1.03,2.64h6.37c0-1.16-0.26-2.05-0.78-2.67
					S220.75,177.88,219.79,177.88z"/>
				<path d="M233.47,176.34c0.54,0,1.03,0.04,1.46,0.13l-0.26,1.71c-0.5-0.11-0.95-0.17-1.33-0.17c-0.98,0-1.83,0.4-2.53,1.2
					c-0.7,0.8-1.05,1.8-1.05,2.99l0,6.53h-1.84l0-12.18h1.52l0.21,2.26h0.09c0.45-0.79,1-1.4,1.63-1.83
					C232,176.56,232.7,176.34,233.47,176.34z"/>
			</g>
		</g>
	</g>
	<g>
		<g>
			<path d="M32.8,419.13c-1.79,0-3.19,0.59-4.23,1.78c-1.03,1.19-1.55,2.82-1.55,4.88c0,2.13,0.5,3.77,1.49,4.93
				c1,1.16,2.42,1.74,4.26,1.74c1.13,0,2.43-0.2,3.88-0.61v1.66c-1.13,0.42-2.52,0.63-4.17,0.63c-2.39,0-4.24-0.73-5.54-2.18
				c-1.3-1.45-1.95-3.51-1.95-6.19c0-1.67,0.31-3.14,0.94-4.4c0.63-1.26,1.53-2.23,2.71-2.91c1.18-0.68,2.57-1.02,4.17-1.02
				c1.7,0,3.19,0.31,4.47,0.93l-0.8,1.62C35.26,419.42,34.03,419.13,32.8,419.13z"/>
			<path d="M50.43,427.82c0,1.99-0.5,3.53-1.5,4.65c-1,1.12-2.38,1.67-4.14,1.67c-1.09,0-2.06-0.26-2.9-0.77
				c-0.84-0.51-1.5-1.25-1.96-2.2c-0.46-0.96-0.69-2.07-0.69-3.36c0-1.98,0.5-3.53,1.49-4.64c0.99-1.11,2.37-1.66,4.13-1.66
				c1.7,0,3.06,0.57,4.06,1.7C49.93,424.36,50.43,425.89,50.43,427.82z M41.15,427.82c0,1.56,0.31,2.74,0.93,3.56
				c0.62,0.81,1.54,1.22,2.74,1.22c1.21,0,2.12-0.41,2.75-1.22c0.63-0.81,0.94-2,0.94-3.56c0-1.55-0.31-2.72-0.94-3.53
				c-0.63-0.8-1.55-1.21-2.77-1.21c-1.21,0-2.12,0.4-2.73,1.19C41.46,425.07,41.15,426.25,41.15,427.82z"/>
			<path d="M61.99,433.92l0-7.88c0-0.99-0.23-1.73-0.68-2.22c-0.45-0.49-1.16-0.73-2.12-0.73c-1.27,0-2.21,0.34-2.8,1.03
				c-0.59,0.69-0.89,1.83-0.89,3.41l0,6.39h-1.84l0-12.18h1.5l0.3,1.67h0.09c0.38-0.6,0.91-1.06,1.59-1.39
				c0.68-0.33,1.44-0.49,2.28-0.49c1.47,0,2.57,0.35,3.31,1.06c0.74,0.71,1.11,1.84,1.11,3.39l0,7.94H61.99z"/>
			<path d="M71.56,432.62c0.33,0,0.64-0.02,0.94-0.07s0.54-0.1,0.72-0.15l0,1.41c-0.2,0.1-0.49,0.18-0.88,0.24
				c-0.39,0.06-0.74,0.09-1.05,0.09c-2.36,0-3.53-1.24-3.53-3.72l0-7.24h-1.74v-0.89l1.74-0.77l0.78-2.6h1.07l0,2.82l3.53,0v1.43
				l-3.53,0l0,7.17c0,0.73,0.17,1.3,0.52,1.69C70.47,432.43,70.95,432.62,71.56,432.62z"/>
			<path d="M75.5,418.45c0-0.42,0.1-0.73,0.31-0.93c0.21-0.2,0.47-0.29,0.78-0.29c0.3,0,0.55,0.1,0.77,0.3s0.32,0.51,0.32,0.92
				c0,0.42-0.11,0.72-0.32,0.93c-0.21,0.2-0.47,0.31-0.77,0.31c-0.31,0-0.57-0.1-0.78-0.31C75.61,419.17,75.5,418.86,75.5,418.45z
				 M77.5,433.92h-1.84l0-12.18h1.84L77.5,433.92z"/>
			<path d="M89.75,433.93l0-7.88c0-0.99-0.23-1.73-0.68-2.22c-0.45-0.49-1.16-0.73-2.12-0.73c-1.27,0-2.21,0.34-2.8,1.03
				c-0.59,0.69-0.89,1.83-0.89,3.41l0,6.39h-1.84l0-12.18h1.5l0.3,1.67h0.09c0.38-0.6,0.91-1.06,1.59-1.39
				c0.68-0.33,1.44-0.49,2.28-0.49c1.47,0,2.57,0.35,3.31,1.06c0.74,0.71,1.11,1.84,1.11,3.39l0,7.94H89.75z"/>
			<path d="M97.11,421.75l0,7.9c0,0.99,0.23,1.73,0.68,2.22c0.45,0.49,1.16,0.73,2.12,0.73c1.27,0,2.21-0.35,2.79-1.04
				s0.88-1.83,0.88-3.41l0-6.4h1.84l0,12.18h-1.52l-0.27-1.63h-0.1c-0.38,0.6-0.9,1.06-1.57,1.38c-0.67,0.32-1.44,0.48-2.29,0.48
				c-1.48,0-2.59-0.35-3.33-1.06c-0.74-0.7-1.1-1.83-1.1-3.38l0-7.97H97.11z"/>
			<path d="M119.85,427.83c0,1.99-0.5,3.54-1.5,4.65c-1,1.12-2.38,1.67-4.14,1.67c-1.09,0-2.06-0.26-2.9-0.77
				c-0.84-0.51-1.5-1.25-1.96-2.2c-0.46-0.96-0.69-2.08-0.69-3.36c0-1.98,0.5-3.53,1.49-4.64c0.99-1.11,2.37-1.66,4.13-1.66
				c1.7,0,3.06,0.57,4.06,1.7C119.35,424.36,119.85,425.9,119.85,427.83z M110.58,427.83c0,1.56,0.31,2.74,0.93,3.56
				c0.62,0.81,1.54,1.22,2.74,1.22c1.21,0,2.12-0.41,2.75-1.22c0.63-0.81,0.94-2,0.94-3.56c0-1.55-0.31-2.72-0.94-3.53
				c-0.63-0.8-1.55-1.21-2.77-1.21c-1.21,0-2.12,0.4-2.73,1.19C110.89,425.08,110.58,426.26,110.58,427.83z"/>
			<path d="M124.82,421.75l0,7.9c0,0.99,0.23,1.73,0.68,2.22c0.45,0.49,1.16,0.73,2.12,0.73c1.27,0,2.21-0.35,2.79-1.04
				s0.88-1.83,0.88-3.41l0-6.4h1.84l0,12.18h-1.52l-0.27-1.63h-0.1c-0.38,0.6-0.9,1.06-1.57,1.38c-0.67,0.32-1.44,0.48-2.29,0.48
				c-1.48,0-2.59-0.35-3.33-1.06c-0.74-0.7-1.1-1.83-1.1-3.38l0-7.97H124.82z"/>
			<path d="M144.91,430.61c0,1.13-0.42,2.01-1.27,2.62c-0.84,0.62-2.03,0.92-3.56,0.92c-1.61,0-2.87-0.26-3.78-0.77v-1.71
				c0.58,0.3,1.21,0.53,1.88,0.7c0.67,0.17,1.32,0.26,1.94,0.26c0.96,0,1.7-0.15,2.22-0.46c0.52-0.31,0.78-0.78,0.78-1.41
				c0-0.47-0.21-0.88-0.62-1.22s-1.21-0.74-2.4-1.19c-1.13-0.42-1.94-0.79-2.42-1.11c-0.48-0.31-0.83-0.67-1.07-1.07
				c-0.23-0.4-0.35-0.88-0.35-1.43c0-0.99,0.4-1.78,1.21-2.35c0.81-0.57,1.91-0.86,3.32-0.86c1.31,0,2.59,0.27,3.84,0.8l-0.66,1.5
				c-1.22-0.5-2.33-0.76-3.32-0.76c-0.87,0-1.53,0.14-1.98,0.41s-0.67,0.65-0.67,1.13c0,0.33,0.08,0.6,0.25,0.83
				c0.17,0.23,0.44,0.45,0.81,0.66c0.37,0.21,1.08,0.51,2.13,0.9c1.44,0.53,2.42,1.06,2.93,1.59
				C144.65,429.13,144.91,429.8,144.91,430.61z"/>
			<path d="M154.09,433.93l0-16.24h1.89l0,16.24H154.09z"/>
			<path d="M168.49,433.93l0-7.88c0-0.99-0.23-1.73-0.68-2.22c-0.45-0.49-1.16-0.73-2.12-0.73c-1.27,0-2.21,0.34-2.8,1.03
				c-0.59,0.69-0.89,1.83-0.89,3.41l0,6.39h-1.84l0-12.18h1.5l0.3,1.67h0.09c0.38-0.6,0.91-1.06,1.59-1.39
				c0.68-0.33,1.44-0.49,2.28-0.49c1.47,0,2.57,0.35,3.31,1.06c0.74,0.71,1.11,1.84,1.11,3.39l0,7.94H168.49z"/>
			<path d="M178.06,432.64c0.33,0,0.64-0.02,0.94-0.07s0.54-0.1,0.72-0.15l0,1.41c-0.2,0.1-0.49,0.18-0.88,0.24
				c-0.39,0.06-0.74,0.09-1.05,0.09c-2.36,0-3.53-1.24-3.53-3.72l0-7.24h-1.74v-0.89l1.74-0.77l0.78-2.6h1.07l0,2.82l3.53,0v1.43
				l-3.53,0l0,7.17c0,0.73,0.17,1.3,0.52,1.69S177.45,432.64,178.06,432.64z"/>
			<path d="M187.3,434.16c-1.8,0-3.22-0.55-4.26-1.65c-1.04-1.1-1.56-2.62-1.56-4.57c0-1.96,0.48-3.52,1.45-4.68
				c0.97-1.16,2.26-1.73,3.89-1.73c1.53,0,2.73,0.5,3.62,1.51c0.89,1,1.33,2.33,1.33,3.97v1.17l-8.39,0
				c0.04,1.43,0.4,2.51,1.08,3.25c0.68,0.74,1.65,1.11,2.89,1.11c1.31,0,2.61-0.27,3.89-0.82v1.64c-0.65,0.28-1.27,0.48-1.85,0.61
				S188.12,434.16,187.3,434.16z M186.8,423.08c-0.98,0-1.76,0.32-2.34,0.96c-0.58,0.64-0.92,1.52-1.03,2.64l6.37,0
				c0-1.16-0.26-2.05-0.78-2.67C188.51,423.39,187.77,423.08,186.8,423.08z"/>
			<path d="M204.89,421.76v1.17l-2.26,0.27c0.21,0.26,0.39,0.6,0.56,1.02c0.16,0.42,0.24,0.89,0.24,1.42c0,1.19-0.41,2.14-1.22,2.86
				c-0.82,0.71-1.93,1.07-3.36,1.07c-0.36,0-0.7-0.03-1.02-0.09c-0.79,0.42-1.18,0.94-1.18,1.57c0,0.33,0.14,0.58,0.41,0.74
				s0.74,0.24,1.41,0.24h2.16c1.32,0,2.33,0.28,3.04,0.83c0.71,0.56,1.06,1.36,1.06,2.42c0,1.35-0.54,2.38-1.62,3.08
				c-1.08,0.71-2.66,1.06-4.73,1.06c-1.59,0-2.82-0.3-3.68-0.89c-0.86-0.59-1.29-1.43-1.29-2.51c0-0.74,0.24-1.38,0.71-1.92
				c0.47-0.54,1.14-0.91,2-1.1c-0.31-0.14-0.57-0.36-0.78-0.66c-0.21-0.3-0.32-0.64-0.32-1.03c0-0.44,0.12-0.83,0.36-1.17
				c0.24-0.33,0.61-0.66,1.12-0.97c-0.63-0.26-1.14-0.7-1.54-1.32c-0.4-0.62-0.59-1.33-0.59-2.13c0-1.33,0.4-2.36,1.2-3.08
				c0.8-0.72,1.93-1.08,3.4-1.08c0.64,0,1.21,0.07,1.72,0.22H204.89z M195.18,435.98c0,0.66,0.28,1.16,0.83,1.5
				c0.56,0.34,1.35,0.51,2.39,0.51c1.55,0,2.69-0.23,3.44-0.69c0.74-0.46,1.12-1.09,1.12-1.88c0-0.66-0.2-1.12-0.61-1.37
				s-1.17-0.38-2.3-0.38h-2.21c-0.84,0-1.49,0.2-1.96,0.6C195.41,434.66,195.18,435.23,195.18,435.98z M196.18,425.66
				c0,0.85,0.24,1.5,0.72,1.93c0.48,0.44,1.15,0.66,2.01,0.66c1.8,0,2.7-0.87,2.7-2.62c0-1.83-0.91-2.74-2.73-2.74
				c-0.87,0-1.53,0.23-2,0.7C196.41,424.05,196.18,424.74,196.18,425.66z"/>
			<path d="M212.95,421.54c0.54,0,1.03,0.04,1.46,0.13l-0.26,1.71c-0.5-0.11-0.95-0.17-1.33-0.17c-0.98,0-1.83,0.4-2.53,1.2
				s-1.05,1.8-1.05,2.99l0,6.53h-1.84l0-12.18h1.52l0.21,2.26h0.09c0.45-0.79,1-1.4,1.63-1.83
				C211.48,421.75,212.18,421.54,212.95,421.54z"/>
			<path d="M224.17,433.94l-0.37-1.73h-0.09c-0.61,0.76-1.21,1.28-1.82,1.55c-0.6,0.27-1.36,0.41-2.26,0.41
				c-1.21,0-2.15-0.31-2.84-0.93c-0.69-0.62-1.03-1.51-1.03-2.66c0-2.46,1.97-3.75,5.9-3.87l2.07-0.07v-0.76
				c0-0.96-0.21-1.66-0.62-2.12c-0.41-0.46-1.07-0.68-1.97-0.68c-1.01,0-2.16,0.31-3.44,0.93l-0.57-1.41
				c0.6-0.33,1.26-0.58,1.97-0.77s1.43-0.28,2.15-0.28c1.45,0,2.53,0.32,3.23,0.97c0.7,0.64,1.05,1.68,1.05,3.1l0,8.31H224.17z
				 M220,432.64c1.15,0,2.05-0.31,2.71-0.94c0.66-0.63,0.98-1.51,0.98-2.64l0-1.1l-1.84,0.08c-1.47,0.05-2.52,0.28-3.17,0.68
				c-0.65,0.4-0.97,1.03-0.97,1.88c0,0.67,0.2,1.17,0.61,1.52C218.71,432.47,219.27,432.64,220,432.64z"/>
			<path d="M233.26,432.64c0.33,0,0.64-0.02,0.94-0.07s0.54-0.1,0.72-0.15l0,1.41c-0.2,0.1-0.49,0.18-0.88,0.24
				c-0.39,0.06-0.74,0.09-1.05,0.09c-2.36,0-3.53-1.24-3.53-3.72l0-7.24h-1.74v-0.89l1.74-0.77l0.78-2.6h1.07l0,2.82h3.53v1.43
				h-3.53l0,7.17c0,0.73,0.17,1.3,0.52,1.69S232.66,432.64,233.26,432.64z"/>
			<path d="M237.21,418.46c0-0.42,0.1-0.73,0.31-0.93c0.21-0.2,0.47-0.29,0.78-0.29c0.3,0,0.55,0.1,0.77,0.3s0.32,0.51,0.32,0.92
				c0,0.42-0.11,0.72-0.32,0.93c-0.21,0.2-0.47,0.31-0.77,0.31c-0.31,0-0.57-0.1-0.78-0.31
				C237.31,419.19,237.21,418.88,237.21,418.46z M239.21,433.94h-1.84l0-12.18h1.84L239.21,433.94z"/>
			<path d="M253.63,427.84c0,1.99-0.5,3.54-1.5,4.65c-1,1.12-2.38,1.67-4.14,1.67c-1.09,0-2.06-0.26-2.9-0.77
				c-0.84-0.51-1.5-1.25-1.96-2.2c-0.46-0.96-0.69-2.07-0.69-3.36c0-1.98,0.5-3.53,1.49-4.64c0.99-1.11,2.37-1.66,4.13-1.66
				c1.7,0,3.06,0.57,4.06,1.7C253.13,424.38,253.63,425.91,253.63,427.84z M244.35,427.84c0,1.56,0.31,2.74,0.93,3.56
				c0.62,0.82,1.54,1.22,2.74,1.22c1.21,0,2.12-0.41,2.75-1.22c0.63-0.81,0.94-2,0.94-3.56c0-1.55-0.31-2.72-0.94-3.53
				c-0.63-0.8-1.55-1.21-2.77-1.21c-1.21,0-2.12,0.4-2.73,1.19C244.66,425.09,244.35,426.27,244.35,427.84z"/>
			<path d="M265.19,433.94l0-7.88c0-0.99-0.23-1.73-0.68-2.22c-0.45-0.49-1.16-0.73-2.12-0.73c-1.27,0-2.21,0.34-2.8,1.03
				c-0.59,0.69-0.89,1.83-0.89,3.41l0,6.39h-1.84l0-12.18h1.5l0.3,1.67h0.09c0.38-0.6,0.91-1.06,1.59-1.39
				c0.68-0.33,1.44-0.49,2.28-0.49c1.47,0,2.57,0.35,3.31,1.06c0.74,0.71,1.11,1.84,1.11,3.39l0,7.94H265.19z"/>
		</g>
	</g>
	<g>
		<path class="st4" d="M984.83,332.69c-0.02-0.73-0.1-1.44-0.1-2.18c0.12-31.66,25.89-57.24,57.56-57.11
			c17.99,0.07,34,8.44,44.46,21.45c8.53-7.48,19.67-12.03,31.89-11.99c24.89,0.1,45.3,19.06,47.72,43.3c0.16,0,0.31-0.02,0.45-0.02
			c26.71,0.1,48.27,21.84,48.17,48.54c-0.1,26.7-21.84,48.26-48.55,48.16c-1.12,0-2.22-0.11-3.33-0.18
			c-1.11,0.07-2.22,0.16-3.34,0.16l-161.32-0.63c-25.3-0.1-45.73-20.69-45.64-45.99C952.9,355.75,966.35,338.52,984.83,332.69z"/>
		<rect x="1035.49" y="410.83" class="st7" width="96.37" height="24"/>
		<g>
			<g>
				<polygon class="st5" points="1076.49,430.84 1056.36,424.58 1056.28,397.84 1076.4,404.09 				"/>
				<polygon class="st8" points="1076.21,430.82 1096.29,424.44 1096.2,397.69 1076.12,404.08 				"/>
				
					<linearGradient id="SVGID_4_" gradientUnits="userSpaceOnUse" x1="1067.9948" y1="3447.9114" x2="1108.4744" y2="3447.9114" gradientTransform="matrix(1 -3.310056e-03 2.431734e-03 0.7347 -20.5371 -2130.6594)">
					<stop  offset="0" style="stop-color:#ADD3E4"/>
					<stop  offset="1" style="stop-color:#ADD3E4"/>
				</linearGradient>
				<polygon class="st9" points="1055.83,398.14 1076.23,404.39 1096.31,398 1076.19,393.23 				"/>
			</g>
			<g>
				<polygon class="st5" points="1101.05,439.93 1080.98,433.51 1081.12,406.77 1101.19,413.19 				"/>
				<polygon class="st8" points="1100.77,439.94 1120.91,433.72 1121.04,406.98 1100.91,413.2 				"/>
				
					<linearGradient id="SVGID_5_" gradientUnits="userSpaceOnUse" x1="1074.1962" y1="3371.989" x2="1114.6761" y2="3371.989" gradientTransform="matrix(1 5.051362e-03 -3.711277e-03 0.7347 19.3299 -2074.8896)">
					<stop  offset="0" style="stop-color:#ADD3E4"/>
					<stop  offset="1" style="stop-color:#ADD3E4"/>
				</linearGradient>
				<polygon class="st10" points="1081,407.07 1101.35,413.5 1121.48,407.28 1101.4,402.34 				"/>
			</g>
			<g>
				<polygon class="st5" points="1061.62,443.68 1046.58,438.89 1046.66,418.86 1061.7,423.65 				"/>
				<polygon class="st8" points="1061.41,443.67 1076.49,439 1076.56,418.97 1061.49,423.65 				"/>
				
					<linearGradient id="SVGID_6_" gradientUnits="userSpaceOnUse" x1="1060.715" y1="3460.3232" x2="1091.0304" y2="3460.3232" gradientTransform="matrix(1 3.990826e-03 -2.931848e-03 0.7347 -4.2313 -2126.7795)">
					<stop  offset="0" style="stop-color:#ADD3E4"/>
					<stop  offset="1" style="stop-color:#ADD3E4"/>
				</linearGradient>
				<polygon class="st11" points="1046.33,419.08 1061.57,423.88 1076.65,419.2 1061.61,415.52 				"/>
			</g>
		</g>
		<g>
			<polygon class="st12" points="1010.68,357.64 988.59,344.83 988.59,365.36 1010.68,379.91 			"/>
			<g>
				<defs>
					<polygon id="SVGID_7_" points="1010.68,357.64 1032.76,345.86 1010.11,334.72 988.53,344.83 					"/>
				</defs>
				<clipPath id="SVGID_8_">
					<use xlink:href="#SVGID_7_"  style="overflow:visible;"/>
				</clipPath>
				<linearGradient id="SVGID_9_" gradientUnits="userSpaceOnUse" x1="1021.3832" y1="352.4081" x2="1007.9557" y2="344.6142">
					<stop  offset="0" style="stop-color:#B0D6E6"/>
					<stop  offset="1" style="stop-color:#B0D6E6"/>
				</linearGradient>
				<rect x="988.53" y="334.72" class="st13" width="44.23" height="22.92"/>
			</g>
			<polygon class="st14" points="1010.68,357.64 1032.76,345.86 1032.76,366.39 1010.68,379.91 			"/>
			<path class="st12" d="M1010.77,340.23l-1.28,0.14l-0.18,0.08l-0.2,0l-0.18,0.08l-1,0.24l-0.14,0.06l-0.13,0l-0.12,0.1l-1.85,0.68
				l-0.1,0.07c-0.83,0.32-1.51,0.78-2.23,1.15l-0.08,0.09c-0.65,0.36-0.88,0.55-1.33,1l-0.11,0.07l-0.46,0.62l-0.09,0.08l-0.15,0.31
				l-0.08,0.09c-0.52,1.19-0.51,1.38-0.4,2.77l0.09,0.14v0.14l0.06,0.13l0.17,0.43l0.07,0.1l0.08,0.22l0.09,0.08
				c0.27,0.47,0.59,0.85,0.91,1.2c0.18,0.19,0.93,0.81,1.23,0.96l0.08,0.09c0.61,0.29,1.05,0.65,1.83,0.92l0.1,0.07l1.49,0.47
				l0.17,0.08c0.52,0.06,1.06,0.21,1.62,0.28c0.62,0.08,0.95-0.22,1.47-0.44l0.1-0.07l0.07,0l0.1-0.07l2.36-1.09l0.1-0.07l0.07,0
				l0.1-0.07l1.36-0.65l-0.12-0.05c-0.8-0.03-1.75,0.09-2.61,0.06c-0.87-0.02-1.67-0.18-2.47-0.21l-0.17-0.08
				c-0.57-0.05-1.15-0.3-1.65-0.47l-0.11-0.07c-0.8-0.29-1.53-0.92-1.88-1.57c-0.55-1.04-0.21-1.81,0.21-2.69l0.09-0.08l0.07-0.14
				l0.09-0.08c0.43-0.61,1.48-1.46,2.52-1.79l0.11-0.07l1.1-0.31l0.16-0.08l0.17,0.01l0.17-0.08l0.73-0.06
				c0.18-0.11,0.27-0.1,0.52-0.1l1.7,0c0.27-0.01,0.5-0.01,0.69,0.1l0.99,0.13l0.12,0.1c0.6,0.08,1.1,0.42,1.61,0.6l0.09,0.08
				l0.32,0.15l0.08,0.09c0.53,0.28,1.48,1.15,1.67,1.83l0.07,0.11c0.22,0.78,0.17,1.04,0,1.8l-0.06,0.14l-0.28,0.6l0.42-0.17
				l0.09-0.08l3.27-1.69l0.09-0.08l0.78-0.39l0.09-0.08l0.78-0.39l0.09-0.09c0.03-0.17-0.98-1-1.2-1.21l-0.08-0.11
				c-0.26-0.22-0.64-0.55-0.96-0.75l-0.08-0.1c-0.31-0.18-0.57-0.45-0.88-0.6l-0.09-0.09l-0.79-0.46l-0.08-0.09l-1.03-0.53
				l-0.1-0.07l-1.32-0.55l-0.11-0.07l-0.8-0.23l-0.13-0.1h-0.14l-0.15-0.06h-0.15l-0.14-0.09c-0.65-0.06-1.37-0.27-2.1-0.34
				c-0.88-0.08-1.73,0.02-2.52-0.05L1010.77,340.23L1010.77,340.23z"/>
			<polygon class="st15" points="1022.11,351.54 1022.93,351.1 1022.93,372.41 1022.11,372.91 			"/>
			<g>
				<path d="M1105.75,362.74v17.06h-3.33v-23.55h4.64l3.8,14.1v-14.1h3.3v23.55h-3.8L1105.75,362.74L1105.75,362.74z M1092.3,372.32
					h3.57l-1.78-11.91L1092.3,372.32z M1100.74,379.79h-3.73l-0.64-4.27h-4.54l-0.64,4.27h-3.4l3.77-23.55h5.42L1100.74,379.79
					L1100.74,379.79z M1077.69,362.74v17.06h-3.33v-23.55h4.64l3.8,14.1v-14.1h3.3v23.55h-3.8L1077.69,362.74L1077.69,362.74z
					 M1060.77,361.89c0-1.91,0.48-3.37,1.45-4.39c0.96-1.02,2.36-1.53,4.17-1.53c1.82,0,3.21,0.51,4.17,1.53
					c0.96,1.02,1.45,2.48,1.45,4.39v12.25c0,1.91-0.48,3.37-1.45,4.39c-0.96,1.02-2.36,1.53-4.17,1.53c-1.82,0-3.21-0.51-4.17-1.53
					c-0.96-1.02-1.45-2.48-1.45-4.39V361.89z M1064.47,374.38c0,0.85,0.17,1.45,0.52,1.8c0.35,0.35,0.81,0.52,1.4,0.52
					c0.58,0,1.05-0.17,1.4-0.52c0.35-0.35,0.52-0.95,0.52-1.8v-12.72c0-0.85-0.17-1.45-0.52-1.8c-0.35-0.35-0.81-0.52-1.4-0.52
					c-0.58,0-1.05,0.17-1.4,0.52c-0.35,0.35-0.52,0.95-0.52,1.8V374.38z M1058.82,371.01v3.13c0,1.91-0.47,3.37-1.4,4.39
					c-0.93,1.02-2.3,1.53-4.12,1.53c-1.82,0-3.19-0.51-4.12-1.53c-0.93-1.02-1.4-2.48-1.4-4.39V361.9c0-1.91,0.47-3.37,1.4-4.39
					c0.93-1.02,2.3-1.53,4.12-1.53c1.82,0,3.19,0.51,4.12,1.53c0.93,1.02,1.4,2.48,1.4,4.39v2.29h-3.5v-2.52
					c0-0.85-0.17-1.45-0.52-1.8c-0.35-0.35-0.81-0.52-1.4-0.52c-0.58,0-1.05,0.17-1.4,0.52c-0.35,0.35-0.52,0.95-0.52,1.8v12.72
					c0,0.85,0.17,1.45,0.52,1.78c0.35,0.34,0.81,0.5,1.4,0.5c0.58,0,1.05-0.17,1.4-0.5c0.35-0.34,0.52-0.93,0.52-1.78v-3.36H1058.82
					z"/>
				<path class="st16" d="M1047.26,351.26c-0.6,0-1.14-0.05-1.57-0.22v-2.17c0.43,0.11,0.87,0.16,1.25,0.16
					c0.6,0,0.98-0.16,1.25-0.54c0.22-0.33,0.38-0.92,0.38-1.68v-11.62h2.61v11.62c0,1.41-0.33,2.55-0.98,3.31
					C1049.54,350.87,1048.56,351.26,1047.26,351.26L1047.26,351.26z"/>
				<polygon class="st16" points="1056.87,347.56 1054.32,347.56 1054.32,335.18 1061.38,335.18 1061.38,337.35 1056.87,337.35 
					1056.87,340.56 1061.11,340.56 1061.11,342.68 1056.87,342.68 				"/>
				<path class="st16" d="M1068.93,337.95c0.33,0,0.65,0,0.87,0.05l-0.22,2.44c-0.22-0.05-0.43-0.11-0.76-0.11
					c-0.81,0-1.47,0.22-1.9,0.65c-0.49,0.43-0.71,1.03-0.71,1.79v4.78h-2.61v-9.45h1.96l0.38,1.58h0.16
					c0.27-0.54,0.71-0.92,1.19-1.25C1067.79,338.12,1068.33,337.95,1068.93,337.95L1068.93,337.95z"/>
				<path class="st16" d="M1080.11,342.84c0,1.52-0.38,2.77-1.19,3.64c-0.81,0.87-1.96,1.3-3.42,1.3c-0.92,0-1.68-0.22-2.39-0.6
					c-0.71-0.43-1.25-0.98-1.63-1.74c-0.38-0.76-0.54-1.63-0.54-2.61c0-1.57,0.38-2.77,1.2-3.64c0.81-0.87,1.95-1.25,3.42-1.25
					c0.92,0,1.74,0.16,2.44,0.54c0.65,0.43,1.2,0.98,1.58,1.74C1079.95,340.99,1080.12,341.86,1080.11,342.84L1080.11,342.84z
					 M1073.6,342.84L1073.6,342.84c0,0.92,0.11,1.63,0.43,2.12c0.33,0.49,0.82,0.71,1.52,0.71c0.71,0,1.19-0.22,1.47-0.71
					c0.33-0.49,0.49-1.19,0.49-2.12c0-0.92-0.16-1.63-0.49-2.12c-0.27-0.49-0.81-0.71-1.47-0.71c-0.71,0-1.19,0.22-1.52,0.71
					C1073.71,341.16,1073.6,341.86,1073.6,342.84z"/>
				<path class="st16" d="M1090.54,338.12v1.3l-1.52,0.38c0.27,0.43,0.43,0.92,0.43,1.41c0,1.03-0.38,1.85-1.09,2.39
					c-0.71,0.6-1.68,0.87-2.93,0.87l-0.49-0.05h-0.38c-0.27,0.16-0.38,0.43-0.38,0.65c0,0.38,0.49,0.54,1.41,0.54h1.63
					c1.03,0,1.85,0.27,2.39,0.71c0.54,0.43,0.81,1.09,0.81,1.95c0,1.09-0.49,1.96-1.41,2.55c-0.92,0.65-2.23,0.92-3.96,0.92
					c-1.3,0-2.33-0.22-3.04-0.65c-0.71-0.49-1.03-1.14-1.03-1.96c0-0.6,0.16-1.03,0.54-1.41c0.33-0.43,0.87-0.71,1.52-0.87
					c-0.22-0.11-0.49-0.27-0.65-0.54c-0.22-0.27-0.33-0.54-0.33-0.82c0-0.38,0.11-0.65,0.33-0.92c0.22-0.22,0.49-0.43,0.92-0.71
					c-0.49-0.22-0.92-0.54-1.19-1.03c-0.27-0.43-0.43-1.03-0.43-1.68c0-1.03,0.33-1.79,0.98-2.39c0.71-0.54,1.68-0.82,2.93-0.82
					c0.22,0,0.54,0,0.92,0.05c0.38,0.05,0.6,0.05,0.71,0.11L1090.54,338.12L1090.54,338.12z M1083.21,348.92L1083.21,348.92
					c0,0.38,0.16,0.65,0.49,0.87c0.38,0.16,0.87,0.27,1.47,0.27c0.92,0,1.63-0.11,2.17-0.38c0.54-0.22,0.82-0.6,0.82-1.03
					c0-0.38-0.16-0.6-0.49-0.76c-0.33-0.11-0.81-0.16-1.47-0.16h-1.3c-0.49,0-0.87,0.11-1.19,0.33
					C1083.37,348.27,1083.21,348.54,1083.21,348.92L1083.21,348.92z M1084.13,341.21L1084.13,341.21c0,0.49,0.11,0.92,0.38,1.19
					c0.22,0.33,0.6,0.49,1.09,0.49c0.49,0,0.81-0.16,1.03-0.49c0.22-0.27,0.32-0.71,0.32-1.19c0-1.14-0.43-1.74-1.36-1.74
					C1084.62,339.47,1084.13,340.07,1084.13,341.21z"/>
				<path class="st17" d="M1180.99,367.85v-10.19h3.33c2.56,0,3.53,1.51,3.53,4.04v2.22c0,3.16-1.61,3.94-4.37,3.94L1180.99,367.85
					L1180.99,367.85z M1179.44,356.24v23.55h1.55v-10.53h2.46c2.69,0,4.41,0.87,4.41,4v3.7c0,1.28,0.1,2.12,0.5,2.83h1.61
					c-0.5-0.77-0.57-1.85-0.57-2.83v-3.67c0-2.56-0.98-4.27-3.4-4.81c2.32-0.54,3.4-2.12,3.4-4.88v-2.05c0-3.33-1.45-5.32-5.05-5.32
					L1179.44,356.24L1179.44,356.24z M1169.18,367.14v-9.49h7.74v-1.41h-9.29v23.55h9.29v-1.41h-7.74v-9.82h6.43v-1.41
					L1169.18,367.14L1169.18,367.14z M1160.83,379.79v-22.14h4.78v-1.41h-11.14v1.41h4.81v22.14H1160.83L1160.83,379.79z
					 M1143.47,358.8l7.37,20.99h1.72v-23.55h-1.41v19.88l-7.07-19.88h-2.02v23.55h1.41L1143.47,358.8L1143.47,358.8z M1131.8,367.14
					v-9.49h7.74v-1.41h-9.29v23.55h9.29v-1.41h-7.74v-9.82h6.43v-1.41L1131.8,367.14L1131.8,367.14z M1122.65,356.04
					c-3.6,0-5.08,2.56-5.08,5.96v12.04c0,3.4,1.48,5.96,5.08,5.96s5.08-2.56,5.08-5.96v-2.69h-1.48v2.79c0,2.52-0.98,4.41-3.57,4.41
					c-2.59,0-3.57-1.88-3.57-4.41V361.9c0-2.52,0.98-4.44,3.57-4.44c2.59,0,3.57,1.92,3.57,4.44v2.05h1.48V362
					C1127.73,358.6,1126.25,356.04,1122.65,356.04L1122.65,356.04z"/>
			</g>
			<polygon class="st15" points="1032.76,372.35 1010.65,385.8 988.53,371.24 988.53,373.79 1010.65,388.35 1032.76,374.9 			"/>
		</g>
	</g>
	<g>
		<g>
			<path class="st4" d="M965,43.59l246.72,0.96c2.03,0.01,3.69,1.68,3.68,3.71l-0.4,103.72c-0.01,2.03-1.68,3.69-3.71,3.68
				l-246.72-0.96c-2.03-0.01-3.69-1.68-3.68-3.71l0.4-103.72C961.3,45.23,962.97,43.58,965,43.59z"/>
			<rect x="1042.27" y="142.84" class="st7" width="96.37" height="24"/>
			<g>
				<g>
					<polygon class="st5" points="1080.37,174.61 1059.49,168.12 1059.4,140.38 1080.28,146.87 					"/>
					<polygon class="st8" points="1080.08,174.6 1100.92,167.97 1100.82,140.23 1079.99,146.86 					"/>
					
						<linearGradient id="SVGID_10_" gradientUnits="userSpaceOnUse" x1="1071.9576" y1="3097.5427" x2="1113.9521" y2="3097.5427" gradientTransform="matrix(1 -3.310056e-03 2.431734e-03 0.7347 -20.5371 -2130.6594)">
						<stop  offset="0" style="stop-color:#ADD3E4"/>
						<stop  offset="1" style="stop-color:#ADD3E4"/>
					</linearGradient>
					<polygon class="st18" points="1058.94,140.69 1080.11,147.18 1100.94,140.55 1080.07,135.6 					"/>
				</g>
				<g>
					<polygon class="st5" points="1105.85,184.05 1085.03,177.39 1085.17,149.64 1105.99,156.31 					"/>
					<polygon class="st8" points="1105.57,184.06 1126.45,177.61 1126.59,149.86 1105.71,156.31 					"/>
					
						<linearGradient id="SVGID_11_" gradientUnits="userSpaceOnUse" x1="1076.9501" y1="3022.0369" x2="1118.9449" y2="3022.0369" gradientTransform="matrix(1 5.051362e-03 -3.711277e-03 0.7347 19.3299 -2074.8896)">
						<stop  offset="0" style="stop-color:#ADD3E4"/>
						<stop  offset="1" style="stop-color:#ADD3E4"/>
					</linearGradient>
					<polygon class="st19" points="1085.06,149.96 1106.16,156.63 1127.05,150.17 1106.22,145.05 					"/>
				</g>
				<g>
					<polygon class="st5" points="1064.95,187.94 1049.35,182.97 1049.6,162.89 1065.03,167.16 					"/>
					<polygon class="st8" points="1064.73,187.93 1080.37,183.08 1080.45,162.31 1064.81,167.15 					"/>
					
						<linearGradient id="SVGID_12_" gradientUnits="userSpaceOnUse" x1="1062.6154" y1="3110.9839" x2="1093.8959" y2="3110.9839" gradientTransform="matrix(1 3.990826e-03 -2.931848e-03 0.7347 -4.2313 -2126.7795)">
						<stop  offset="0" style="stop-color:#ADD3E4"/>
						<stop  offset="1" style="stop-color:#ADD3E4"/>
					</linearGradient>
					<polygon class="st20" points="1049.25,163.12 1064.9,167.4 1080.54,162.55 1064.93,158.73 					"/>
				</g>
				<g>
					<polygon class="st5" points="1095.75,152.85 1083.58,148.97 1083.64,132.75 1095.82,136.64 					"/>
					<polygon class="st8" points="1095.58,152.85 1107.79,149.06 1107.85,132.84 1095.65,136.63 					"/>
					
						<linearGradient id="SVGID_13_" gradientUnits="userSpaceOnUse" x1="1096.6133" y1="3070.489" x2="1121.1602" y2="3070.489" gradientTransform="matrix(1 3.990826e-03 -2.931848e-03 0.7347 -4.2313 -2126.7795)">
						<stop  offset="0" style="stop-color:#ADD3E4"/>
						<stop  offset="1" style="stop-color:#ADD3E4"/>
					</linearGradient>
					<polygon class="st21" points="1083.37,132.93 1095.71,136.82 1107.92,133.03 1095.74,130.05 					"/>
				</g>
			</g>
		</g>
		<g>
			<path class="st22" d="M1062.6,119.5l-3.96-0.02l-0.65-4.53l-4.79-0.02l-0.69,4.52l-3.59-0.01l4.09-24.87l5.73,0.02L1062.6,119.5z
				 M1053.71,111.58l3.76,0.01l-1.83-12.58L1053.71,111.58z"/>
			<path class="st22" d="M1072.49,119.53c-0.2-0.64-0.36-1.04-0.36-3.05l0.02-3.92c0.01-2.31-0.76-3.15-2.54-3.16l-1.34-0.01
				l-0.04,10.13l-3.92-0.02l0.1-24.85l5.9,0.02c4.06,0.02,5.79,1.9,5.78,5.76l-0.01,1.94c-0.01,2.55-0.82,4.22-2.57,5.05
				c1.94,0.81,2.57,2.73,2.56,5.31l-0.01,3.82c0,1.21,0.02,2.11,0.42,3.02l-3.99-0.02L1072.49,119.53z M1068.31,98.22l-0.03,7.65
				l1.54,0.01c1.44,0.01,2.35-0.63,2.36-2.61l0.01-2.45c0.01-1.78-0.59-2.55-1.97-2.56l-1.91-0.01L1068.31,98.22z"/>
			<polygon class="st22" points="1077.58,94.71 1089.66,94.75 1089.64,98.31 1085.55,98.29 1085.47,119.58 1081.58,119.57 
				1081.66,98.28 1077.57,98.26 			"/>
			
				<rect x="1080.8" y="105.25" transform="matrix(3.902206e-03 -1 1 3.902206e-03 981.7726 1199.9917)" class="st22" width="24.85" height="3.89"/>
			<polygon class="st22" points="1101.38,105.83 1106.45,105.85 1106.43,109.41 1101.37,109.39 1101.33,119.65 1097.4,119.63 
				1097.5,94.78 1107.86,94.82 1107.85,98.38 1101.41,98.35 			"/>
			<path class="st22" d="M1121.15,119.72l-3.96-0.02l-0.65-4.53l-4.8-0.02l-0.69,4.52l-3.59-0.01l4.09-24.87l5.73,0.02
				L1121.15,119.72z M1112.26,111.81l3.76,0.01l-1.83-12.58L1112.26,111.81z"/>
			<path class="st22" d="M1134.06,110.52l-0.01,3.32c-0.02,3.99-2,6.26-5.86,6.25c-3.82-0.01-5.83-2.3-5.81-6.29l0.05-12.94
				c0.02-3.99,2-6.26,5.86-6.25c3.82,0.01,5.83,2.3,5.81,6.29l-0.01,2.41l-3.69-0.01l0.01-2.65c0.01-1.78-0.76-2.45-2-2.46
				c-1.24,0-2.01,0.66-2.02,2.44l-0.05,13.45c-0.01,1.78,0.76,2.42,2,2.42c1.24,0,2.01-0.63,2.02-2.41l0.01-3.55l3.69,0.01
				L1134.06,110.52z"/>
			<polygon class="st22" points="1135.46,94.93 1147.53,94.98 1147.52,98.53 1143.43,98.52 1143.34,119.81 1139.45,119.8 
				1139.54,98.5 1135.45,98.49 			"/>
			<path class="st22" d="M1148.92,100.95c0.02-3.99,2.14-6.26,5.96-6.25c3.82,0.01,5.93,2.3,5.91,6.29l-0.05,12.94
				c-0.02,3.99-2.14,6.26-5.96,6.25c-3.82-0.01-5.93-2.3-5.91-6.29L1148.92,100.95z M1152.79,114.15c-0.01,1.78,0.76,2.45,2,2.46
				c1.24,0,2.01-0.66,2.02-2.44l0.05-13.45c0.01-1.78-0.76-2.45-2-2.46c-1.24,0-2.01,0.66-2.02,2.44L1152.79,114.15z"/>
			<path class="st22" d="M1171.01,119.92c-0.2-0.64-0.36-1.04-0.36-3.05l0.02-3.92c0.01-2.31-0.76-3.15-2.54-3.16l-1.34-0.01
				l-0.04,10.13l-3.92-0.02l0.1-24.85l5.9,0.02c4.06,0.02,5.79,1.9,5.78,5.76l-0.01,1.94c-0.01,2.55-0.82,4.22-2.57,5.05
				c1.94,0.81,2.57,2.73,2.56,5.31l-0.01,3.82c0,1.21,0.02,2.11,0.42,3.02l-3.99-0.02L1171.01,119.92z M1166.83,98.61l-0.03,7.65
				l1.54,0.01c1.44,0.01,2.35-0.63,2.36-2.61l0.01-2.45c0.01-1.78-0.59-2.55-1.97-2.56l-1.91-0.01L1166.83,98.61z"/>
			<polygon class="st22" points="1180.43,111.74 1175.53,95.09 1179.62,95.1 1182.56,106.45 1185.59,95.13 1189.35,95.14 
				1184.32,111.75 1184.29,119.97 1180.4,119.95 			"/>
			
				<rect x="1008.16" y="95.43" transform="matrix(3.902206e-03 -1 1 3.902206e-03 887.9845 1127.387)" class="st23" width="3.45" height="45.07"/>
			<path class="st23" d="M1049.23,89.43c-0.6,0-1.14-0.07-1.58-0.21l0.01-2.21c0.47,0.1,0.87,0.17,1.24,0.17
				c0.57,0,1.01-0.16,1.24-0.53c0.27-0.37,0.37-0.94,0.38-1.71l0.05-11.77l2.68,0.01l-0.05,11.77c-0.01,1.48-0.35,2.58-1.02,3.35
				C1051.52,89.07,1050.54,89.44,1049.23,89.43"/>
			<polygon class="st23" points="1059.01,85.78 1056.39,85.77 1056.44,73.2 1063.65,73.22 1063.64,75.4 1059.05,75.38 
				1059.04,78.64 1063.29,78.65 1063.29,80.83 1059.03,80.82 			"/>
			<path class="st23" d="M1071.25,76.04c0.37,0,0.64,0.04,0.87,0.07l-0.21,2.45c-0.2-0.07-0.47-0.1-0.77-0.1
				c-0.84,0-1.48,0.2-1.95,0.63s-0.71,1.04-0.71,1.81l-0.02,4.9l-2.61-0.01l0.04-9.59l1.98,0.01l0.4,1.61l0.13,0
				c0.3-0.54,0.71-0.97,1.21-1.3C1070.11,76.2,1070.65,76.03,1071.25,76.04"/>
			<path class="st23" d="M1082.6,81.04c-0.01,1.58-0.41,2.78-1.26,3.68c-0.84,0.87-1.98,1.3-3.46,1.29c-0.94,0-1.74-0.21-2.45-0.61
				c-0.7-0.4-1.24-0.98-1.6-1.75c-0.37-0.77-0.56-1.65-0.56-2.65c0.01-1.58,0.41-2.78,1.25-3.65c0.81-0.87,1.98-1.3,3.46-1.29
				c0.94,0,1.74,0.21,2.45,0.61c0.7,0.4,1.24,0.98,1.6,1.75C1082.41,79.17,1082.6,80.04,1082.6,81.04 M1075.96,81.02
				c0,0.94,0.16,1.68,0.46,2.15c0.3,0.5,0.8,0.74,1.54,0.74c0.7,0,1.21-0.23,1.51-0.73c0.3-0.47,0.47-1.2,0.48-2.18
				c0-0.94-0.16-1.68-0.46-2.15c-0.3-0.47-0.8-0.71-1.51-0.71c-0.7,0-1.21,0.23-1.51,0.7C1076.1,79.34,1075.96,80.05,1075.96,81.02"
				/>
			<path class="st23" d="M1093.15,76.29l-0.01,1.34l-1.51,0.4c0.27,0.44,0.4,0.91,0.4,1.44c0,1.04-0.38,1.84-1.08,2.41
				c-0.71,0.57-1.71,0.87-2.99,0.86l-0.47-0.04l-0.4-0.04c-0.27,0.2-0.4,0.43-0.41,0.7c0,0.37,0.47,0.57,1.44,0.58l1.64,0.01
				c1.04,0,1.84,0.24,2.41,0.68c0.53,0.44,0.83,1.11,0.83,2.02c0,1.14-0.48,2.01-1.42,2.61c-0.94,0.6-2.28,0.93-4.03,0.92
				c-1.34-0.01-2.38-0.24-3.08-0.72c-0.7-0.47-1.07-1.11-1.07-1.98c0-0.57,0.17-1.07,0.54-1.44c0.37-0.4,0.91-0.67,1.58-0.83
				c-0.27-0.1-0.5-0.3-0.7-0.57c-0.2-0.27-0.3-0.54-0.3-0.84c0-0.37,0.1-0.67,0.3-0.9c0.2-0.23,0.51-0.47,0.91-0.7
				c-0.5-0.24-0.9-0.57-1.2-1.04c-0.3-0.47-0.43-1.04-0.43-1.71c0-1.04,0.34-1.84,1.05-2.44c0.67-0.57,1.65-0.87,2.92-0.86
				c0.27,0,0.6,0.04,0.97,0.07c0.37,0.03,0.6,0.1,0.7,0.1l3.39,0.01L1093.15,76.29z M1085.69,87.23c0,0.37,0.17,0.64,0.53,0.84
				c0.34,0.2,0.84,0.3,1.44,0.31c0.94,0,1.68-0.13,2.21-0.39c0.54-0.27,0.81-0.6,0.81-1.07c0-0.37-0.16-0.6-0.47-0.74
				c-0.3-0.14-0.8-0.2-1.47-0.21l-1.37-0.01c-0.47,0-0.87,0.1-1.21,0.33C1085.86,86.56,1085.7,86.86,1085.69,87.23 M1086.66,79.42
				c0,0.54,0.13,0.94,0.36,1.24c0.23,0.3,0.6,0.47,1.07,0.47c0.5,0,0.84-0.16,1.07-0.47c0.24-0.3,0.34-0.7,0.34-1.24
				c0-1.17-0.46-1.75-1.44-1.75C1087.17,77.67,1086.67,78.28,1086.66,79.42"/>
			<path class="st23" d="M1023.26,76.75c0-0.97,0.81-1.77,1.78-1.77c0.97,0,1.77,0.81,1.77,1.78l-0.01,2.31l2.31,0.01
				c0.97,0,1.77,0.81,1.77,1.78s-0.81,1.77-1.78,1.77l-2.31-0.01l-0.01,2.31c0,0.97-0.81,1.77-1.78,1.77
				c-0.97,0-1.77-0.81-1.77-1.78l0.01-2.31l-2.31-0.01c-0.97,0-1.77-0.81-1.77-1.78c0-0.97,0.81-1.77,1.78-1.77l2.31,0.01
				L1023.26,76.75z M1013.6,85.47c0-0.97,0.81-1.77,1.78-1.77c0.97,0,1.77,0.81,1.77,1.78l-0.01,2.31l2.31,0.01
				c0.97,0,1.77,0.81,1.77,1.78c0,0.97-0.81,1.77-1.78,1.77l-2.31-0.01l-0.01,2.31c0,0.97-0.81,1.77-1.78,1.77
				c-0.97,0-1.77-0.81-1.77-1.78l0.01-2.31l-2.31-0.01c-0.97,0-1.77-0.81-1.77-1.78c0-0.97,0.81-1.77,1.78-1.77l2.31,0.01
				L1013.6,85.47z M1017.99,70.36c0.87,0.44,1.24,1.51,0.8,2.38c-0.44,0.87-1.51,1.23-2.38,0.8c-1.04-0.51-2.18-0.91-3.31-1.19
				c-1.14-0.27-2.31-0.41-3.49-0.42c-4.26-0.02-8.15,1.71-10.95,4.48c-2.83,2.81-4.59,6.65-4.6,10.95
				c-0.02,4.29,1.71,8.15,4.48,10.95c2.77,2.79,6.66,4.55,10.91,4.57c1.64,0.01,3.25-0.26,4.76-0.72c1.54-0.5,2.99-1.23,4.3-2.16
				c0.81-0.57,1.91-0.4,2.48,0.41c0.57,0.81,0.39,1.91-0.41,2.48c-1.61,1.17-3.43,2.07-5.31,2.66c-1.88,0.6-3.86,0.92-5.84,0.92
				c-5.27-0.02-10.02-2.19-13.43-5.62c-3.41-3.5-5.53-8.27-5.51-13.5c0.02-5.23,2.19-10.02,5.62-13.43
				c3.47-3.44,8.24-5.53,13.47-5.51c1.44,0.01,2.88,0.18,4.29,0.52C1015.31,69.21,1016.68,69.72,1017.99,70.36"/>
		</g>
	</g>
	<g>
		<g>
			<path class="st24" d="M197.09,328.03c0,0-4.35-27.84-41.79-30.46l7.13-7.45"/>
			<line class="st24" x1="155.3" y1="297.56" x2="161.87" y2="306.06"/>
			<path class="st24" d="M113.93,366.57c0,0,10.39,26.2,47.48,20.49l-5.31,8.84"/>
			<line class="st24" x1="161.41" y1="387.06" x2="153.12" y2="380.23"/>
		</g>
		<g>
			<path class="st24" d="M153.48,318.25l-7.57-1c-0.63-2.58-1.65-5.01-2.99-7.22l4.64-6.05c0.52-0.68,0.45-1.63-0.15-2.23
				l-5.06-5.07c-0.61-0.6-1.56-0.66-2.23-0.14l-6.05,4.64c-2.21-1.34-4.64-2.35-7.22-2.99l-1-7.57c-0.11-0.85-0.83-1.48-1.68-1.48
				h-7.16c-0.85,0-1.57,0.62-1.68,1.48l-1,7.57c-2.58,0.63-5.01,1.65-7.23,2.99l-6.05-4.64c-0.68-0.52-1.63-0.46-2.23,0.14
				l-5.07,5.07c-0.61,0.6-0.66,1.55-0.15,2.23l4.64,6.05c-1.34,2.22-2.35,4.65-2.99,7.22l-7.57,1c-0.85,0.11-1.47,0.83-1.47,1.69
				v7.15c0,0.85,0.62,1.57,1.47,1.69l7.57,0.99c0.64,2.59,1.65,5.02,2.99,7.23l-4.64,6.06c-0.52,0.67-0.46,1.63,0.15,2.23l5.07,5.06
				c0.6,0.61,1.55,0.66,2.23,0.15l6.05-4.65c2.22,1.34,4.65,2.35,7.23,2.99l1,7.57c0.11,0.84,0.83,1.47,1.68,1.47h7.16
				c0.85,0,1.57-0.63,1.68-1.47l1-7.57c2.58-0.63,5.01-1.65,7.22-2.99l6.05,4.65c0.68,0.51,1.63,0.45,2.23-0.15l5.06-5.06
				c0.6-0.6,0.66-1.56,0.15-2.23l-4.64-6.06c1.34-2.21,2.35-4.64,2.99-7.23l7.57-0.99c0.84-0.11,1.48-0.83,1.48-1.69v-7.15
				C154.96,319.08,154.32,318.36,153.48,318.25z M120.59,341.96c-10.19,0-18.45-8.26-18.45-18.45c0-10.19,8.26-18.45,18.45-18.45
				c10.19,0,18.45,8.26,18.45,18.45C139.04,333.7,130.78,341.96,120.59,341.96z"/>
		</g>
		<path class="st24" d="M181.54,367.97c-5.04,0-9.14-4.09-9.14-9.14c0-5.04,4.09-9.14,9.14-9.14c5.04,0,9.14,4.09,9.14,9.14
			C190.67,363.87,186.58,367.97,181.54,367.97z M205.73,363.87c0.36-1.63,0.52-3.31,0.52-5.04c0-1.74-0.19-3.43-0.52-5.06
			l-7.79-0.75c-0.21-0.58-0.43-1.14-0.71-1.7l4.98-6.03v-0.02c-1.87-2.85-4.31-5.26-7.15-7.12l-6.03,4.98
			c-0.56-0.28-1.12-0.51-1.7-0.71l-0.75-7.79c-1.63-0.36-3.31-0.52-5.04-0.52c-1.72,0-3.43,0.19-5.06,0.52l-0.75,7.79
			c-0.58,0.21-1.14,0.43-1.69,0.71l-6.05-4.98c-2.85,1.85-5.28,4.29-7.13,7.13l4.98,6.05c-0.28,0.54-0.51,1.1-0.71,1.69l-7.79,0.75
			c-0.34,1.63-0.52,3.31-0.52,5.06c0,1.72,0.17,3.41,0.52,5.04l7.79,0.75c0.19,0.58,0.43,1.14,0.71,1.7l-4.98,6.05
			c1.85,2.85,4.29,5.28,7.13,7.12l6.03-4.96c0.56,0.26,1.12,0.51,1.7,0.71l0.75,7.79c1.63,0.34,3.33,0.52,5.06,0.52
			c1.72,0,3.41-0.17,5.04-0.52l0.75-7.79c0.6-0.21,1.16-0.43,1.72-0.71l6.03,4.98c2.85-1.85,5.28-4.29,7.13-7.13l-4.98-6.03
			c0.28-0.56,0.51-1.14,0.71-1.72L205.73,363.87z"/>
	</g>
</g>
</svg>
