<?xml version="1.0" encoding="utf-8"?>
<!-- Generator: Adobe Illustrator 24.0.0, SVG Export Plug-In . SVG Version: 6.00 Build 0)  -->
<svg version="1.1" id="Layer_1" xmlns="http://www.w3.org/2000/svg" xmlns:xlink="http://www.w3.org/1999/xlink" x="0px" y="0px"
	 viewBox="0 0 1237.17 447.4" style="enable-background:new 0 0 1237.17 447.4;" xml:space="preserve">
<style type="text/css">
	.st0{fill-rule:evenodd;clip-rule:evenodd;fill:#6697C9;}
	.st1{clip-path:url(#SVGID_2_);fill:url(#SVGID_3_);}
	.st2{fill-rule:evenodd;clip-rule:evenodd;fill:#7BA5D1;}
	.st3{fill-rule:evenodd;clip-rule:evenodd;fill:#2F6797;}
	.st4{fill:none;stroke:#6D6E70;stroke-miterlimit:10;}
	.st5{fill:#6697C9;}
	.st6{fill:#353233;}
	.st7{fill:#FFFFFF;}
	.st8{fill:#7BA5D1;}
	.st9{fill:url(#SVGID_4_);}
	.st10{fill:url(#SVGID_5_);}
	.st11{fill:url(#SVGID_6_);}
	.st12{fill-rule:evenodd;clip-rule:evenodd;fill:#6699CB;}
	.st13{clip-path:url(#SVGID_8_);fill:url(#SVGID_9_);}
	.st14{fill-rule:evenodd;clip-rule:evenodd;fill:#7AA8D4;}
	.st15{fill-rule:evenodd;clip-rule:evenodd;fill:#2E6799;}
	.st16{fill:#40BE46;}
	.st17{fill:#7AA8D4;}
	.st18{fill:url(#SVGID_10_);}
	.st19{fill:url(#SVGID_11_);}
	.st20{fill:url(#SVGID_12_);}
	.st21{fill:url(#SVGID_13_);}
	.st22{fill-rule:evenodd;clip-rule:evenodd;}
	.st23{fill-rule:evenodd;clip-rule:evenodd;fill:#40BE46;}
</style>
<g>
	<g>
		<polygon class="st0" points="601.14,239.02 530.82,198.25 530.82,263.62 601.14,309.94 		"/>
		<g>
			<g>
				<defs>
					<polygon id="SVGID_1_" points="530.63,198.25 601.15,239.02 671.47,201.52 599.33,166.03 					"/>
				</defs>
				<clipPath id="SVGID_2_">
					<use xlink:href="#SVGID_1_"  style="overflow:visible;"/>
				</clipPath>
				
					<linearGradient id="SVGID_3_" gradientUnits="userSpaceOnUse" x1="635.41" y1="225.6232" x2="592.7755" y2="250.2557" gradientTransform="matrix(1 0 0 -1 0 448)">
					<stop  offset="0" style="stop-color:#ADD3E4"/>
					<stop  offset="1" style="stop-color:#ADD3E4"/>
				</linearGradient>
				<rect x="530.63" y="166.03" class="st1" width="140.84" height="72.99"/>
			</g>
		</g>
		<polygon class="st2" points="601.14,239.02 671.47,201.52 671.47,266.89 601.14,309.94 		"/>
		<path class="st0" d="M601.45,183.59l-4.07,0.46l-0.58,0.24l-0.65,0.02l-0.58,0.24l-3.19,0.76l-0.46,0.19l-0.42,0.01l-0.38,0.32
			l-5.88,2.18l-0.31,0.23c-2.66,1.03-4.81,2.48-7.11,3.66l-0.27,0.28c-2.06,1.16-2.8,1.76-4.24,3.2l-0.34,0.23l-1.46,1.96
			l-0.29,0.25l-0.48,0.98l-0.26,0.28c-1.66,3.79-1.63,4.4-1.29,8.82l0.29,0.44v0.45l0.2,0.4l0.55,1.36l0.23,0.32l0.24,0.71
			l0.29,0.25c0.85,1.51,1.89,2.71,2.9,3.81c0.57,0.62,2.97,2.57,3.92,3.06l0.26,0.29c1.93,0.92,3.36,2.08,5.81,2.93l0.33,0.22
			l4.76,1.49l0.53,0.26c1.64,0.18,3.36,0.66,5.17,0.89c1.99,0.26,3.03-0.69,4.68-1.4l0.31-0.23h0.22l0.31-0.24l7.53-3.46l0.31-0.23
			h0.22l0.31-0.24l4.33-2.06l-0.38-0.16c-2.55-0.11-5.56,0.27-8.32,0.2s-5.33-0.58-7.85-0.68l-0.54-0.26
			c-1.83-0.17-3.66-0.95-5.25-1.49l-0.34-0.22c-2.54-0.91-4.89-2.92-5.99-4.99c-1.75-3.3-0.66-5.76,0.66-8.55l0.29-0.25l0.23-0.46
			l0.3-0.25c1.37-1.94,4.73-4.64,8.02-5.69l0.34-0.22l3.5-0.99l0.51-0.27l0.54,0.03l0.53-0.26l2.33-0.2
			c0.56-0.37,0.85-0.32,1.65-0.33h5.41c0.85-0.03,1.6-0.02,2.21,0.32l3.15,0.42l0.39,0.31c1.91,0.27,3.51,1.33,5.12,1.92l0.28,0.26
			l1,0.47l0.27,0.28c1.7,0.9,4.7,3.65,5.33,5.84l0.22,0.36c0.72,2.48,0.54,3.3-0.01,5.74l-0.19,0.44l-0.88,1.9l1.32-0.53l0.28-0.25
			l10.4-5.39l0.29-0.25l2.49-1.23l0.29-0.25l2.49-1.23l0.29-0.28c0.09-0.54-3.12-3.19-3.82-3.84l-0.24-0.34
			c-0.84-0.72-2.05-1.77-3.04-2.39l-0.25-0.31c-0.99-0.56-1.83-1.44-2.8-1.92l-0.27-0.27l-2.52-1.45l-0.26-0.28l-3.28-1.7
			l-0.31-0.24l-4.22-1.75l-0.36-0.21l-2.55-0.72l-0.41-0.3h-0.44l-0.47-0.19h-0.46l-0.43-0.29c-2.08-0.2-4.37-0.87-6.7-1.08
			c-2.8-0.25-5.52,0.06-8.03-0.15L601.45,183.59z"/>
		<polygon class="st3" points="637.55,219.61 640.17,218.21 640.17,286.06 637.55,287.66 		"/>
	</g>
	<g>
		<g>
			<path d="M542.63,328.75c-1.79,0-3.19,0.59-4.23,1.78c-1.03,1.19-1.55,2.82-1.55,4.88c0,2.13,0.5,3.77,1.49,4.93
				c1,1.16,2.42,1.74,4.26,1.74c1.13,0,2.43-0.2,3.88-0.61v1.66c-1.13,0.42-2.51,0.63-4.17,0.63c-2.39,0-4.24-0.73-5.54-2.18
				c-1.3-1.45-1.95-3.51-1.95-6.19c0-1.67,0.31-3.14,0.94-4.4c0.63-1.26,1.53-2.23,2.71-2.91s2.57-1.02,4.17-1.02
				c1.7,0,3.19,0.31,4.47,0.93l-0.8,1.62C545.09,329.04,543.86,328.75,542.63,328.75z"/>
			<path d="M560.26,337.44c0,1.99-0.5,3.54-1.5,4.65c-1,1.12-2.38,1.67-4.14,1.67c-1.09,0-2.06-0.26-2.9-0.77
				c-0.84-0.51-1.5-1.25-1.96-2.2c-0.46-0.96-0.69-2.08-0.69-3.36c0-1.98,0.5-3.53,1.49-4.64c0.99-1.11,2.37-1.66,4.13-1.66
				c1.7,0,3.06,0.57,4.06,1.7C559.76,333.97,560.26,335.5,560.26,337.44z M550.98,337.44c0,1.56,0.31,2.74,0.93,3.56
				c0.62,0.81,1.54,1.22,2.74,1.22c1.21,0,2.12-0.41,2.75-1.22s0.94-2,0.94-3.56c0-1.55-0.31-2.72-0.94-3.53s-1.55-1.21-2.77-1.21
				c-1.21,0-2.12,0.4-2.73,1.19C551.29,334.69,550.98,335.87,550.98,337.44z"/>
			<path d="M571.82,343.54v-7.88c0-0.99-0.23-1.73-0.68-2.22s-1.16-0.73-2.12-0.73c-1.27,0-2.21,0.34-2.8,1.03
				c-0.59,0.69-0.89,1.83-0.89,3.41v6.39h-1.84v-12.18h1.5l0.3,1.67h0.09c0.38-0.6,0.91-1.06,1.59-1.39
				c0.68-0.33,1.44-0.49,2.28-0.49c1.47,0,2.57,0.35,3.31,1.06s1.11,1.84,1.11,3.39v7.94L571.82,343.54L571.82,343.54z"/>
			<path d="M584.94,343.54l-0.37-1.73h-0.09c-0.61,0.76-1.21,1.28-1.82,1.55c-0.6,0.27-1.36,0.41-2.26,0.41
				c-1.21,0-2.15-0.31-2.84-0.93s-1.03-1.51-1.03-2.66c0-2.46,1.97-3.75,5.9-3.87l2.07-0.07v-0.76c0-0.96-0.21-1.66-0.62-2.12
				s-1.07-0.68-1.97-0.68c-1.01,0-2.16,0.31-3.44,0.93l-0.57-1.41c0.6-0.33,1.26-0.58,1.97-0.77s1.43-0.28,2.15-0.28
				c1.45,0,2.53,0.32,3.23,0.97c0.7,0.64,1.05,1.68,1.05,3.1v8.31h-1.36V343.54z M580.78,342.24c1.15,0,2.05-0.31,2.71-0.94
				c0.66-0.63,0.98-1.51,0.98-2.64v-1.1l-1.84,0.08c-1.47,0.05-2.52,0.28-3.17,0.68c-0.65,0.4-0.97,1.03-0.97,1.88
				c0,0.67,0.2,1.17,0.6,1.52C579.49,342.06,580.05,342.24,580.78,342.24z"/>
			<path d="M598.44,343.54v-7.88c0-0.99-0.23-1.73-0.68-2.22s-1.16-0.73-2.12-0.73c-1.27,0-2.21,0.34-2.8,1.03
				c-0.59,0.69-0.89,1.83-0.89,3.41v6.39h-1.84v-12.18h1.5l0.3,1.67H592c0.38-0.6,0.91-1.06,1.59-1.39
				c0.68-0.33,1.44-0.49,2.28-0.49c1.47,0,2.57,0.35,3.31,1.06s1.11,1.84,1.11,3.39v7.94L598.44,343.54L598.44,343.54z"/>
			<path d="M617.22,328.75c-1.79,0-3.19,0.59-4.23,1.78c-1.03,1.19-1.55,2.82-1.55,4.88c0,2.13,0.5,3.77,1.49,4.93
				c1,1.16,2.42,1.74,4.26,1.74c1.13,0,2.43-0.2,3.88-0.61v1.66c-1.13,0.42-2.51,0.63-4.17,0.63c-2.39,0-4.24-0.73-5.54-2.18
				c-1.3-1.45-1.95-3.51-1.95-6.19c0-1.67,0.31-3.14,0.94-4.4c0.63-1.26,1.53-2.23,2.71-2.91s2.57-1.02,4.17-1.02
				c1.7,0,3.19,0.31,4.47,0.93l-0.8,1.62C619.68,329.04,618.45,328.76,617.22,328.75z"/>
			<path d="M626.19,343.54h-1.84v-17.29h1.84V343.54z"/>
			<path d="M629.94,328.07c0-0.42,0.1-0.73,0.31-0.93c0.21-0.2,0.47-0.29,0.78-0.29c0.3,0,0.55,0.1,0.77,0.3s0.32,0.51,0.32,0.92
				c0,0.42-0.11,0.72-0.32,0.93c-0.21,0.2-0.47,0.31-0.77,0.31c-0.31,0-0.57-0.1-0.78-0.31
				C630.05,328.79,629.94,328.48,629.94,328.07z M631.94,343.54h-1.84v-12.18h1.84V343.54z"/>
			<path d="M640.99,343.77c-1.8,0-3.22-0.55-4.26-1.65s-1.56-2.62-1.56-4.57c0-1.96,0.48-3.52,1.45-4.68
				c0.97-1.15,2.27-1.73,3.89-1.73c1.53,0,2.73,0.5,3.62,1.5s1.33,2.33,1.33,3.97v1.17h-8.39c0.04,1.43,0.4,2.52,1.08,3.26
				c0.68,0.74,1.65,1.11,2.89,1.11c1.31,0,2.61-0.27,3.89-0.82v1.64c-0.65,0.28-1.27,0.48-1.85,0.61S641.82,343.77,640.99,343.77z
				 M640.5,332.69c-0.98,0-1.76,0.32-2.34,0.96c-0.58,0.64-0.92,1.52-1.03,2.64h6.37c0-1.16-0.26-2.05-0.78-2.67
				S641.46,332.69,640.5,332.69z"/>
			<path d="M656.95,343.55v-7.88c0-0.99-0.23-1.73-0.68-2.22s-1.16-0.73-2.12-0.73c-1.27,0-2.21,0.34-2.8,1.03
				c-0.59,0.69-0.89,1.83-0.89,3.41v6.39h-1.84v-12.18h1.5l0.3,1.67h0.09c0.38-0.6,0.91-1.06,1.59-1.39
				c0.68-0.33,1.44-0.49,2.28-0.49c1.47,0,2.57,0.35,3.31,1.06s1.11,1.84,1.11,3.39v7.94L656.95,343.55L656.95,343.55z"/>
			<path d="M666.51,342.25c0.33,0,0.64-0.02,0.94-0.07s0.54-0.1,0.72-0.15v1.41c-0.2,0.1-0.49,0.18-0.88,0.24s-0.74,0.09-1.05,0.09
				c-2.36,0-3.53-1.24-3.53-3.72v-7.24h-1.74v-0.89l1.75-0.77l0.78-2.6h1.07v2.82h3.53v1.43h-3.53v7.17c0,0.73,0.17,1.3,0.52,1.69
				S665.91,342.25,666.51,342.25z"/>
		</g>
	</g>
</g>
<g>
	<line class="st4" x1="909.27" y1="116.95" x2="725.3" y2="186.84"/>
	<g>
		<polygon class="st5" points="728.61,191.09 735.97,193.23 734.63,189.94 732.76,189.4 725.4,187.26 729.17,180.58 730.12,178.89 
			728.78,175.6 725.02,182.27 721.26,188.95 		"/>
	</g>
	<g>
		<polygon class="st5" points="905.66,113.25 898.32,111.06 899.63,114.35 901.5,114.91 908.84,117.11 905.02,123.75 904.05,125.44 
			905.36,128.74 909.18,122.1 913,115.45 		"/>
	</g>
</g>
<g>
	<line class="st4" x1="724.98" y1="273.8" x2="908.95" y2="343.68"/>
	<g>
		<polygon class="st5" points="728.6,270.1 735.94,267.9 734.62,271.19 732.75,271.75 725.41,273.95 729.23,280.6 730.2,282.29 
			728.89,285.58 725.07,278.94 721.26,272.3 		"/>
	</g>
</g>
<g>
	<line class="st4" x1="290.4" y1="344.17" x2="474.38" y2="274.29"/>
	<g>
		<polygon class="st5" points="471.06,270.04 463.71,267.9 465.05,271.18 466.92,271.73 474.27,273.87 470.51,280.54 469.55,282.24 
			470.89,285.53 474.66,278.85 478.42,272.18 		"/>
	</g>
</g>
<g>
	<line class="st4" x1="474.7" y1="187.33" x2="290.72" y2="117.45"/>
	<g>
		<polygon class="st5" points="471.08,191.03 463.74,193.23 465.05,189.93 466.92,189.37 474.26,187.18 470.44,180.53 
			469.47,178.84 470.79,175.54 474.6,182.19 478.42,188.83 		"/>
	</g>
</g>
<g>
	<g>
		<path class="st6" d="M117.49,85.51c0.24,0,0.49-0.06,0.72-0.19c6.95-4.06,14.54-6.59,22.54-7.51c0.41-1.72,0.71-3.49,0.95-5.26
			c2.09,0.76,4.11,1.16,5.73,1.16c1.61,0,3.63-0.4,5.73-1.16c0.25,1.78,0.54,3.55,0.95,5.26c8,0.92,15.59,3.45,22.54,7.51
			c0.23,0.13,0.47,0.19,0.72,0.19c0.49,0,0.97-0.25,1.23-0.71c0.13-0.22,0.19-0.47,0.19-0.71c0-0.49-0.25-0.97-0.7-1.23
			c-6.7-3.91-13.97-6.47-21.62-7.61c-0.25-1.28-0.44-2.58-0.61-3.89c4.69-2.41,9.04-6.66,9.44-12.53c2.68-1.5,4.38-4.32,4.38-7.45
			c0-1.54-0.42-3.06-1.22-4.39l0,0l0,0c-0.1-0.17-0.21-0.34-0.32-0.5c0.22-0.72,0.4-1.45,0.54-2.17l0,0c0.27-1.37,0.4-2.77,0.4-4.16
			c0-8.98-5.4-16.89-13.77-20.16c0,0,0,0-0.01,0c-2.79-1.09-5.79-1.59-8.76-1.46l0,0l0,0l0,0h-1.15c-1.14,0-2.29,0.12-3.38,0.45
			c-10.2,3.15-16.24,11.76-16.24,21.17c0,2.15,0.32,4.28,0.95,6.33c-1,1.43-1.54,3.14-1.54,4.89c0,3.13,1.7,5.95,4.38,7.45
			c0.4,5.87,4.74,10.12,9.44,12.53c-0.16,1.3-0.36,2.6-0.61,3.89c-7.65,1.14-14.92,3.69-21.62,7.61c-0.45,0.26-0.71,0.74-0.7,1.23
			c0,0.24,0.06,0.49,0.19,0.71C116.53,85.26,117,85.51,117.49,85.51z M142.88,21.73c0.86-0.26,1.77-0.35,2.67-0.35h1.11l0,0
			c2.58-0.1,5.18,0.32,7.61,1.27l0,0c7.26,2.84,11.96,9.72,11.96,17.51c0,1.2-0.12,2.42-0.35,3.61l0,0l0,0
			c-0.14,0.73-0.34,1.47-0.58,2.19c-1.2-0.26-2.39-0.62-3.55-1.08l0,0c-0.94-0.37-1.85-0.81-2.73-1.31
			c-2.48-1.41-4.65-3.25-6.44-5.48c-0.41-0.51-1.12-0.68-1.71-0.4c-0.59,0.28-0.92,0.93-0.79,1.57c0.34,1.66,0.85,3.3,1.53,4.88
			c0.1,0.23,0.2,0.46,0.3,0.68c-2.66-0.54-5.22-1.56-7.51-3.01c-2.41-1.52-4.49-3.47-6.16-5.78c-3.1,1.82-5.66,4.53-7.32,7.72
			c-0.47,0.9-0.87,1.83-1.19,2.79c-0.03-0.08-0.06-0.17-0.09-0.25c-0.68-1.98-1.03-4.05-1.03-6.14
			C128.62,31.94,133.93,24.42,142.88,21.73z M132.36,58.19c0.1-0.63-0.21-1.27-0.83-1.53c-2.13-0.89-3.5-2.96-3.5-5.27
			c0-0.45,0.07-0.89,0.18-1.33c0.27,0.53,0.54,1.05,0.85,1.56c0.26,0.42,0.72,0.67,1.21,0.67c0.11,0,0.22-0.01,0.32-0.04
			c0.59-0.14,1.03-0.64,1.09-1.24c0.21-2.07,0.8-4.07,1.77-5.92c1.04-2,2.5-3.78,4.25-5.2c1.52,1.67,3.26,3.13,5.19,4.35
			c3.45,2.18,7.42,3.5,11.49,3.82c0.04,0,0.07,0,0.11,0c0.49,0,0.95-0.26,1.21-0.68c0.28-0.46,0.28-1.03,0-1.49
			c-0.35-0.57-0.66-1.15-0.95-1.75c0.91,0.7,1.87,1.34,2.88,1.92c0.99,0.56,2.02,1.05,3.07,1.47l0,0c1.33,0.53,2.7,0.95,4.08,1.24
			l0,0c0.41,0.09,0.82,0.16,1.24,0.23c0.08,0.01,0.15,0.02,0.22,0.02c0.02,0,0.03-0.01,0.05-0.01c0.35,0.75,0.54,1.56,0.54,2.38
			c0,2.31-1.38,4.38-3.5,5.27c-0.62,0.26-0.93,0.9-0.83,1.53c-0.19,7.74-9.94,12.68-15.07,12.68
			C142.96,70.87,132.55,66.55,132.36,58.19z"/>
		<path class="st6" d="M195.67,133h-5.76V95.14c0-3.14-2.45-5.69-5.45-5.69H110.2c-3.01,0-5.45,2.55-5.45,5.69V133h-5.76
			c-0.79,0-1.42,0.64-1.42,1.42c0,0.79,0.64,1.42,1.42,1.42h96.69c0.79,0,1.42-0.64,1.42-1.42C197.09,133.64,196.46,133,195.67,133z
			 M107.59,95.14c0-1.57,1.17-2.84,2.61-2.84h74.26c1.44,0,2.61,1.28,2.61,2.84V133h-79.48C107.59,133,107.59,95.14,107.59,95.14z"
			/>
		<path class="st6" d="M151.49,108.49c-6.06-4.66-12.98,2.25-8.32,8.31C149.23,121.47,156.14,114.56,151.49,108.49z M147.33,115.5
			c-1.57,0-2.84-1.28-2.84-2.84c0-1.57,1.28-2.84,2.84-2.84c1.57,0,2.84,1.28,2.84,2.84S148.9,115.5,147.33,115.5z"/>
	</g>
	<g>
		<g>
			<path d="M67.52,159.13c-1.79,0-3.19,0.59-4.23,1.78c-1.03,1.19-1.55,2.82-1.55,4.88c0,2.13,0.5,3.77,1.49,4.93
				c1,1.16,2.42,1.74,4.26,1.74c1.13,0,2.43-0.2,3.88-0.61v1.66c-1.13,0.42-2.51,0.63-4.17,0.63c-2.39,0-4.24-0.73-5.54-2.18
				c-1.3-1.45-1.95-3.52-1.95-6.19c0-1.67,0.31-3.14,0.94-4.4c0.63-1.26,1.53-2.23,2.71-2.91c1.18-0.68,2.57-1.02,4.17-1.02
				c1.7,0,3.19,0.31,4.47,0.93L71.2,160C69.97,159.42,68.75,159.13,67.52,159.13z"/>
			<path d="M80.8,157.68l-6.06,16.24H72.9l6.06-16.24H80.8z"/>
			<path d="M90.22,159.14c-1.79,0-3.19,0.59-4.23,1.78c-1.03,1.19-1.55,2.82-1.55,4.88c0,2.13,0.5,3.77,1.49,4.93
				s2.42,1.74,4.26,1.74c1.13,0,2.43-0.2,3.88-0.61v1.66c-1.13,0.42-2.51,0.63-4.17,0.63c-2.39,0-4.24-0.73-5.54-2.18
				s-1.95-3.51-1.95-6.19c0-1.67,0.31-3.14,0.94-4.4s1.53-2.23,2.71-2.91c1.18-0.68,2.57-1.02,4.17-1.02c1.7,0,3.19,0.31,4.47,0.93
				L93.9,160C92.68,159.43,91.45,159.14,90.22,159.14z"/>
			<path d="M102.64,165.14h4.58v1.53h-4.58v4.73h-1.54v-4.73h-4.56v-1.53h4.56v-4.75h1.54V165.14z"/>
			<path d="M115.65,165.14h4.58v1.53h-4.58v4.73h-1.54v-4.73h-4.56v-1.53h4.56v-4.75h1.54V165.14z"/>
			<path d="M142.52,165.65c0,2.68-0.73,4.73-2.18,6.15c-1.46,1.42-3.55,2.13-6.28,2.13h-4.5v-16.24h4.98c2.53,0,4.49,0.7,5.89,2.1
				C141.82,161.19,142.52,163.14,142.52,165.65z M140.52,165.72c0-2.12-0.53-3.71-1.59-4.79c-1.06-1.07-2.64-1.61-4.74-1.61h-2.74
				v12.98h2.3c2.25,0,3.94-0.55,5.08-1.66C139.95,169.53,140.52,167.89,140.52,165.72z"/>
			<path d="M151.01,174.15c-1.8,0-3.22-0.55-4.26-1.65c-1.04-1.1-1.56-2.62-1.56-4.57c0-1.96,0.48-3.52,1.45-4.68
				c0.97-1.16,2.26-1.73,3.89-1.73c1.53,0,2.73,0.5,3.62,1.5s1.33,2.33,1.33,3.97v1.17h-8.39c0.04,1.43,0.4,2.51,1.08,3.25
				c0.68,0.74,1.65,1.11,2.89,1.11c1.31,0,2.61-0.27,3.89-0.82v1.64c-0.65,0.28-1.27,0.48-1.85,0.61S151.83,174.15,151.01,174.15z
				 M150.51,163.08c-0.98,0-1.76,0.32-2.34,0.95c-0.58,0.64-0.92,1.52-1.03,2.64h6.37c0-1.16-0.26-2.05-0.78-2.67
				S151.47,163.08,150.51,163.08z"/>
			<path d="M161.29,173.93l-4.62-12.18h1.98l2.62,7.22c0.59,1.69,0.94,2.79,1.04,3.29h0.09c0.08-0.39,0.34-1.21,0.77-2.44
				c0.43-1.23,1.41-3.92,2.92-8.07h1.98l-4.62,12.18H161.29z"/>
			<path d="M175.17,174.15c-1.8,0-3.22-0.55-4.26-1.64c-1.04-1.1-1.56-2.62-1.56-4.57c0-1.96,0.48-3.52,1.45-4.68
				c0.97-1.16,2.26-1.73,3.89-1.73c1.53,0,2.73,0.5,3.62,1.5s1.33,2.33,1.33,3.97v1.17h-8.39c0.04,1.43,0.4,2.51,1.08,3.25
				c0.68,0.74,1.65,1.11,2.89,1.11c1.31,0,2.61-0.27,3.89-0.82v1.64c-0.65,0.28-1.27,0.48-1.85,0.6S175.99,174.15,175.17,174.15z
				 M174.67,163.08c-0.98,0-1.76,0.32-2.34,0.96s-0.92,1.52-1.03,2.64h6.37c0-1.16-0.26-2.05-0.78-2.67S175.63,163.08,174.67,163.08
				z"/>
			<path d="M184.64,173.93h-1.84v-17.29h1.84V173.93z"/>
			<path d="M199.06,167.84c0,1.99-0.5,3.54-1.5,4.65c-1,1.12-2.38,1.67-4.14,1.67c-1.09,0-2.06-0.26-2.9-0.77
				c-0.84-0.51-1.5-1.25-1.96-2.2c-0.46-0.96-0.69-2.08-0.69-3.36c0-1.98,0.5-3.53,1.49-4.64s2.37-1.66,4.13-1.66
				c1.7,0,3.06,0.57,4.06,1.7C198.56,164.37,199.06,165.9,199.06,167.84z M189.78,167.83c0,1.56,0.31,2.74,0.93,3.56
				c0.62,0.81,1.54,1.22,2.74,1.22c1.21,0,2.12-0.41,2.75-1.22s0.94-2,0.94-3.56c0-1.55-0.31-2.72-0.94-3.53
				c-0.63-0.8-1.55-1.21-2.77-1.21c-1.21,0-2.12,0.4-2.73,1.19C190.09,165.08,189.78,166.26,189.78,167.83z"/>
			<path d="M207.96,174.16c-0.79,0-1.52-0.15-2.17-0.44c-0.66-0.29-1.21-0.74-1.65-1.35H204c0.09,0.71,0.13,1.38,0.13,2.02v5.01
				h-1.84v-17.64h1.5l0.26,1.67h0.09c0.47-0.67,1.03-1.15,1.66-1.44c0.63-0.3,1.35-0.44,2.17-0.44c1.61,0,2.86,0.55,3.74,1.66
				c0.88,1.1,1.32,2.65,1.32,4.64c0,2-0.45,3.55-1.34,4.66C210.78,173.6,209.54,174.16,207.96,174.16z M207.69,163.1
				c-1.24,0-2.14,0.34-2.7,1.03s-0.84,1.79-0.86,3.29v0.41c0,1.71,0.28,2.94,0.85,3.67c0.57,0.74,1.48,1.11,2.74,1.11
				c1.05,0,1.88-0.43,2.47-1.28s0.9-2.03,0.9-3.52c0-1.52-0.3-2.68-0.89-3.49C209.61,163.51,208.77,163.1,207.69,163.1z"/>
			<path d="M221.38,174.16c-1.8,0-3.22-0.55-4.26-1.65s-1.56-2.62-1.56-4.57c0-1.96,0.48-3.52,1.45-4.68
				c0.97-1.15,2.26-1.73,3.89-1.73c1.53,0,2.73,0.5,3.62,1.5s1.33,2.33,1.33,3.97v1.17h-8.39c0.04,1.43,0.4,2.51,1.08,3.25
				c0.68,0.74,1.65,1.11,2.89,1.11c1.31,0,2.61-0.27,3.89-0.82v1.64c-0.65,0.28-1.27,0.48-1.85,0.61S222.2,174.16,221.38,174.16z
				 M220.88,163.08c-0.98,0-1.76,0.32-2.34,0.96s-0.92,1.52-1.03,2.64h6.37c0-1.16-0.26-2.05-0.78-2.67S221.84,163.08,220.88,163.08
				z"/>
			<path d="M234.55,161.54c0.54,0,1.03,0.04,1.46,0.13l-0.26,1.71c-0.5-0.11-0.95-0.17-1.33-0.17c-0.98,0-1.83,0.4-2.53,1.2
				s-1.05,1.8-1.05,2.99v6.53H229v-12.18h1.52l0.21,2.26h0.09c0.45-0.79,1-1.4,1.63-1.83C233.09,161.75,233.79,161.54,234.55,161.54
				z"/>
		</g>
	</g>
</g>
<g>
	<g>
		<path d="M33.88,404.33c-1.79,0-3.19,0.59-4.23,1.78c-1.03,1.19-1.55,2.82-1.55,4.88c0,2.13,0.5,3.77,1.49,4.93
			c1,1.16,2.42,1.74,4.26,1.74c1.13,0,2.43-0.2,3.88-0.61v1.66c-1.13,0.42-2.52,0.63-4.17,0.63c-2.39,0-4.24-0.73-5.54-2.18
			c-1.3-1.45-1.95-3.51-1.95-6.19c0-1.67,0.31-3.14,0.94-4.4c0.63-1.26,1.53-2.23,2.71-2.91s2.57-1.02,4.17-1.02
			c1.7,0,3.19,0.31,4.47,0.93l-0.8,1.62C36.34,404.62,35.11,404.33,33.88,404.33z"/>
		<path d="M51.52,413.02c0,1.99-0.5,3.53-1.5,4.65s-2.38,1.67-4.14,1.67c-1.09,0-2.06-0.26-2.9-0.77c-0.84-0.51-1.5-1.25-1.96-2.2
			c-0.46-0.96-0.69-2.07-0.69-3.36c0-1.98,0.5-3.53,1.49-4.64c0.99-1.11,2.37-1.66,4.13-1.66c1.7,0,3.06,0.57,4.06,1.7
			C51.01,409.56,51.52,411.09,51.52,413.02z M42.24,413.02c0,1.56,0.31,2.74,0.93,3.56c0.62,0.81,1.54,1.22,2.74,1.22
			c1.21,0,2.12-0.41,2.75-1.22s0.94-2,0.94-3.56c0-1.55-0.31-2.72-0.94-3.53c-0.63-0.8-1.55-1.21-2.77-1.21
			c-1.21,0-2.12,0.4-2.73,1.19C42.55,410.27,42.24,411.45,42.24,413.02z"/>
		<path d="M63.08,419.12v-7.88c0-0.99-0.23-1.73-0.68-2.22s-1.16-0.73-2.12-0.73c-1.27,0-2.21,0.34-2.8,1.03s-0.89,1.83-0.89,3.41
			v6.39h-1.84v-12.18h1.5l0.3,1.67h0.09c0.38-0.6,0.91-1.06,1.59-1.39c0.68-0.33,1.44-0.49,2.28-0.49c1.47,0,2.57,0.35,3.31,1.06
			s1.11,1.84,1.11,3.39v7.94L63.08,419.12L63.08,419.12z"/>
		<path d="M72.65,417.82c0.33,0,0.64-0.02,0.94-0.07s0.54-0.1,0.72-0.15v1.41c-0.2,0.1-0.49,0.18-0.88,0.24s-0.74,0.09-1.05,0.09
			c-2.36,0-3.53-1.24-3.53-3.72v-7.24H67.1v-0.89l1.74-0.77l0.78-2.6h1.07v2.82h3.53v1.43h-3.53v7.17c0,0.73,0.17,1.3,0.52,1.69
			C71.56,417.63,72.04,417.82,72.65,417.82z"/>
		<path d="M76.59,403.65c0-0.42,0.1-0.73,0.31-0.93c0.21-0.2,0.47-0.29,0.78-0.29c0.3,0,0.55,0.1,0.77,0.3s0.32,0.51,0.32,0.92
			c0,0.42-0.11,0.72-0.32,0.93c-0.21,0.2-0.47,0.31-0.77,0.31c-0.31,0-0.57-0.1-0.78-0.31C76.69,404.37,76.59,404.06,76.59,403.65z
			 M78.59,419.12h-1.84v-12.18h1.84V419.12z"/>
		<path d="M90.83,419.13v-7.88c0-0.99-0.23-1.73-0.68-2.22s-1.16-0.73-2.12-0.73c-1.27,0-2.21,0.34-2.8,1.03
			c-0.59,0.69-0.89,1.83-0.89,3.41v6.39H82.5v-12.18H84l0.3,1.67h0.09c0.38-0.6,0.91-1.06,1.59-1.39c0.68-0.33,1.44-0.49,2.28-0.49
			c1.47,0,2.57,0.35,3.31,1.06s1.11,1.84,1.11,3.39v7.94L90.83,419.13L90.83,419.13z"/>
		<path d="M98.2,406.95v7.9c0,0.99,0.23,1.73,0.68,2.22s1.16,0.73,2.12,0.73c1.27,0,2.21-0.35,2.79-1.04s0.88-1.83,0.88-3.41v-6.4
			h1.84v12.18H105l-0.27-1.63h-0.1c-0.38,0.6-0.9,1.06-1.57,1.38s-1.44,0.48-2.29,0.48c-1.48,0-2.59-0.35-3.33-1.06
			c-0.74-0.7-1.1-1.83-1.1-3.38v-7.97H98.2z"/>
		<path d="M120.94,413.03c0,1.99-0.5,3.54-1.5,4.65c-1,1.12-2.38,1.67-4.14,1.67c-1.09,0-2.06-0.26-2.9-0.77
			c-0.84-0.51-1.5-1.25-1.96-2.2c-0.46-0.96-0.69-2.08-0.69-3.36c0-1.98,0.5-3.53,1.49-4.64c0.99-1.11,2.37-1.66,4.13-1.66
			c1.7,0,3.06,0.57,4.06,1.7C120.44,409.56,120.94,411.1,120.94,413.03z M111.66,413.03c0,1.56,0.31,2.74,0.93,3.56
			c0.62,0.81,1.54,1.22,2.74,1.22c1.21,0,2.12-0.41,2.75-1.22s0.94-2,0.94-3.56c0-1.55-0.31-2.72-0.94-3.53
			c-0.63-0.8-1.55-1.21-2.77-1.21c-1.21,0-2.12,0.4-2.73,1.19C111.97,410.28,111.66,411.46,111.66,413.03z"/>
		<path d="M125.91,406.95v7.9c0,0.99,0.23,1.73,0.68,2.22s1.16,0.73,2.12,0.73c1.27,0,2.21-0.35,2.79-1.04s0.88-1.83,0.88-3.41v-6.4
			h1.84v12.18h-1.52l-0.27-1.63h-0.1c-0.38,0.6-0.9,1.06-1.57,1.38c-0.67,0.32-1.44,0.48-2.29,0.48c-1.48,0-2.59-0.35-3.33-1.06
			c-0.74-0.7-1.1-1.83-1.1-3.38v-7.97H125.91z"/>
		<path d="M145.99,415.81c0,1.13-0.42,2.01-1.27,2.62c-0.84,0.62-2.03,0.92-3.56,0.92c-1.61,0-2.87-0.26-3.78-0.77v-1.71
			c0.58,0.3,1.21,0.53,1.88,0.7s1.32,0.26,1.94,0.26c0.96,0,1.7-0.15,2.22-0.46s0.78-0.78,0.78-1.41c0-0.47-0.21-0.88-0.62-1.22
			s-1.21-0.74-2.4-1.19c-1.13-0.42-1.94-0.79-2.42-1.11c-0.48-0.31-0.83-0.67-1.07-1.07c-0.23-0.4-0.35-0.88-0.35-1.43
			c0-0.99,0.4-1.78,1.21-2.35c0.81-0.57,1.91-0.86,3.32-0.86c1.31,0,2.59,0.27,3.84,0.8l-0.66,1.5c-1.22-0.5-2.33-0.76-3.32-0.76
			c-0.87,0-1.53,0.14-1.98,0.41s-0.67,0.65-0.67,1.13c0,0.33,0.08,0.6,0.25,0.83c0.17,0.23,0.44,0.45,0.81,0.66s1.08,0.51,2.13,0.9
			c1.44,0.53,2.42,1.06,2.93,1.59C145.74,414.33,145.99,415,145.99,415.81z"/>
		<path d="M155.18,419.13v-16.24h1.89v16.24H155.18z"/>
		<path d="M169.58,419.13v-7.88c0-0.99-0.23-1.73-0.68-2.22s-1.16-0.73-2.12-0.73c-1.27,0-2.21,0.34-2.8,1.03s-0.89,1.83-0.89,3.41
			v6.39h-1.84v-12.18h1.5l0.3,1.67h0.09c0.38-0.6,0.91-1.06,1.59-1.39c0.68-0.33,1.44-0.49,2.28-0.49c1.47,0,2.57,0.35,3.31,1.06
			c0.74,0.71,1.11,1.84,1.11,3.39v7.94L169.58,419.13L169.58,419.13z"/>
		<path d="M179.15,417.84c0.33,0,0.64-0.02,0.94-0.07s0.54-0.1,0.72-0.15v1.41c-0.2,0.1-0.49,0.18-0.88,0.24s-0.74,0.09-1.05,0.09
			c-2.36,0-3.53-1.24-3.53-3.72v-7.24h-1.74v-0.89l1.74-0.77l0.78-2.6h1.07v2.82h3.53v1.43h-3.53v7.17c0,0.73,0.17,1.3,0.52,1.69
			S178.54,417.84,179.15,417.84z"/>
		<path d="M188.39,419.36c-1.8,0-3.22-0.55-4.26-1.65s-1.56-2.62-1.56-4.57c0-1.96,0.48-3.52,1.45-4.68s2.26-1.73,3.89-1.73
			c1.53,0,2.73,0.5,3.62,1.51c0.89,1,1.33,2.33,1.33,3.97v1.17h-8.39c0.04,1.43,0.4,2.51,1.08,3.25c0.68,0.74,1.65,1.11,2.89,1.11
			c1.31,0,2.61-0.27,3.89-0.82v1.64c-0.65,0.28-1.27,0.48-1.85,0.61S189.21,419.36,188.39,419.36z M187.89,408.28
			c-0.98,0-1.76,0.32-2.34,0.96c-0.58,0.64-0.92,1.52-1.03,2.64h6.37c0-1.16-0.26-2.05-0.78-2.67
			C189.59,408.59,188.85,408.28,187.89,408.28z"/>
		<path d="M205.98,406.96v1.17l-2.26,0.27c0.21,0.26,0.39,0.6,0.56,1.02c0.16,0.42,0.24,0.89,0.24,1.42c0,1.19-0.41,2.14-1.22,2.86
			c-0.82,0.71-1.93,1.07-3.36,1.07c-0.36,0-0.7-0.03-1.02-0.09c-0.79,0.42-1.18,0.94-1.18,1.57c0,0.33,0.14,0.58,0.41,0.74
			s0.74,0.24,1.41,0.24h2.16c1.32,0,2.33,0.28,3.04,0.83c0.71,0.56,1.06,1.36,1.06,2.42c0,1.35-0.54,2.38-1.62,3.08
			c-1.08,0.71-2.66,1.06-4.73,1.06c-1.59,0-2.82-0.3-3.68-0.89c-0.86-0.59-1.29-1.43-1.29-2.51c0-0.74,0.24-1.38,0.71-1.92
			s1.14-0.91,2-1.1c-0.31-0.14-0.57-0.36-0.78-0.66c-0.21-0.3-0.32-0.64-0.32-1.03c0-0.44,0.12-0.83,0.36-1.17
			c0.24-0.33,0.61-0.66,1.12-0.97c-0.63-0.26-1.14-0.7-1.54-1.32s-0.59-1.33-0.59-2.13c0-1.33,0.4-2.36,1.2-3.08s1.93-1.08,3.4-1.08
			c0.64,0,1.21,0.07,1.72,0.22h4.2V406.96z M196.27,421.18c0,0.66,0.28,1.16,0.83,1.5c0.56,0.34,1.35,0.51,2.39,0.51
			c1.55,0,2.69-0.23,3.44-0.69c0.74-0.46,1.12-1.09,1.12-1.88c0-0.66-0.2-1.12-0.61-1.37s-1.17-0.38-2.3-0.38h-2.21
			c-0.84,0-1.49,0.2-1.96,0.6C196.5,419.86,196.27,420.43,196.27,421.18z M197.27,410.86c0,0.85,0.24,1.5,0.72,1.93
			c0.48,0.44,1.15,0.66,2.01,0.66c1.8,0,2.7-0.87,2.7-2.62c0-1.83-0.91-2.74-2.73-2.74c-0.87,0-1.53,0.23-2,0.7
			C197.5,409.25,197.27,409.94,197.27,410.86z"/>
		<path d="M214.03,406.74c0.54,0,1.03,0.04,1.46,0.13l-0.26,1.71c-0.5-0.11-0.95-0.17-1.33-0.17c-0.98,0-1.83,0.4-2.53,1.2
			s-1.05,1.8-1.05,2.99v6.53h-1.84v-12.18H210l0.21,2.26h0.09c0.45-0.79,1-1.4,1.63-1.83C212.57,406.95,213.27,406.74,214.03,406.74
			z"/>
		<path d="M225.25,419.14l-0.37-1.73h-0.09c-0.61,0.76-1.21,1.28-1.82,1.55c-0.6,0.27-1.36,0.41-2.26,0.41
			c-1.21,0-2.15-0.31-2.84-0.93s-1.03-1.51-1.03-2.66c0-2.46,1.97-3.75,5.9-3.87l2.07-0.07v-0.76c0-0.96-0.21-1.66-0.62-2.12
			c-0.41-0.46-1.07-0.68-1.97-0.68c-1.01,0-2.16,0.31-3.44,0.93l-0.57-1.41c0.6-0.33,1.26-0.58,1.97-0.77s1.43-0.28,2.15-0.28
			c1.45,0,2.53,0.32,3.23,0.97c0.7,0.64,1.05,1.68,1.05,3.1v8.31h-1.36V419.14z M221.09,417.84c1.15,0,2.05-0.31,2.71-0.94
			s0.98-1.51,0.98-2.64v-1.1l-1.84,0.08c-1.47,0.05-2.52,0.28-3.17,0.68s-0.97,1.03-0.97,1.88c0,0.67,0.2,1.17,0.61,1.52
			C219.8,417.67,220.36,417.84,221.09,417.84z"/>
		<path d="M234.35,417.84c0.33,0,0.64-0.02,0.94-0.07s0.54-0.1,0.72-0.15v1.41c-0.2,0.1-0.49,0.18-0.88,0.24s-0.74,0.09-1.05,0.09
			c-2.36,0-3.53-1.24-3.53-3.72v-7.24h-1.74v-0.89l1.74-0.77l0.78-2.6h1.07v2.82h3.53v1.43h-3.53v7.17c0,0.73,0.17,1.3,0.52,1.69
			S233.74,417.84,234.35,417.84z"/>
		<path d="M238.3,403.66c0-0.42,0.1-0.73,0.31-0.93c0.21-0.2,0.47-0.29,0.78-0.29c0.3,0,0.55,0.1,0.77,0.3s0.32,0.51,0.32,0.92
			c0,0.42-0.11,0.72-0.32,0.93c-0.21,0.2-0.47,0.31-0.77,0.31c-0.31,0-0.57-0.1-0.78-0.31C238.4,404.39,238.3,404.08,238.3,403.66z
			 M240.3,419.14h-1.84v-12.18h1.84V419.14z"/>
		<path d="M254.72,413.04c0,1.99-0.5,3.54-1.5,4.65c-1,1.12-2.38,1.67-4.14,1.67c-1.09,0-2.06-0.26-2.9-0.77
			c-0.84-0.51-1.5-1.25-1.96-2.2c-0.46-0.96-0.69-2.07-0.69-3.36c0-1.98,0.5-3.53,1.49-4.64c0.99-1.11,2.37-1.66,4.13-1.66
			c1.7,0,3.06,0.57,4.06,1.7C254.21,409.58,254.72,411.11,254.72,413.04z M245.44,413.04c0,1.56,0.31,2.74,0.93,3.56
			s1.54,1.22,2.74,1.22c1.21,0,2.12-0.41,2.75-1.22s0.94-2,0.94-3.56c0-1.55-0.31-2.72-0.94-3.53c-0.63-0.8-1.55-1.21-2.77-1.21
			c-1.21,0-2.12,0.4-2.73,1.19C245.75,410.29,245.44,411.47,245.44,413.04z"/>
		<path d="M266.28,419.14v-7.88c0-0.99-0.23-1.73-0.68-2.22c-0.45-0.49-1.16-0.73-2.12-0.73c-1.27,0-2.21,0.34-2.8,1.03
			s-0.89,1.83-0.89,3.41v6.39h-1.84v-12.18h1.5l0.3,1.67h0.09c0.38-0.6,0.91-1.06,1.59-1.39c0.68-0.33,1.44-0.49,2.28-0.49
			c1.47,0,2.57,0.35,3.31,1.06s1.11,1.84,1.11,3.39v7.94L266.28,419.14L266.28,419.14z"/>
	</g>
</g>
<g>
	<path class="st4" d="M985.92,317.88c-0.02-0.73-0.1-1.44-0.1-2.18c0.12-31.66,25.89-57.24,57.56-57.11
		c17.99,0.07,34,8.44,44.46,21.45c8.53-7.48,19.67-12.03,31.89-11.99c24.89,0.1,45.3,19.06,47.72,43.3c0.16,0,0.31-0.02,0.45-0.02
		c26.71,0.1,48.27,21.84,48.17,48.54s-21.84,48.26-48.55,48.16c-1.12,0-2.22-0.11-3.33-0.18c-1.11,0.07-2.22,0.16-3.34,0.16
		l-161.32-0.63c-25.3-0.1-45.73-20.69-45.64-45.99C953.99,340.95,967.43,323.72,985.92,317.88z"/>
	<rect x="1036.58" y="396.03" class="st7" width="96.37" height="24"/>
	<g>
		<g>
			<polygon class="st5" points="1077.57,416.03 1057.45,409.78 1057.36,383.04 1077.49,389.29 			"/>
			<polygon class="st8" points="1077.3,416.02 1097.38,409.63 1097.29,382.89 1077.21,389.28 			"/>
			
				<linearGradient id="SVGID_4_" gradientUnits="userSpaceOnUse" x1="1063.9858" y1="-3533.9856" x2="1104.4658" y2="-3533.9856" gradientTransform="matrix(1 -3.310056e-03 -2.431734e-03 -0.7347 -15.657 -2208.8201)">
				<stop  offset="0" style="stop-color:#ADD3E4"/>
				<stop  offset="1" style="stop-color:#ADD3E4"/>
			</linearGradient>
			<polygon class="st9" points="1056.92,383.33 1077.32,389.59 1097.4,383.2 1077.28,378.43 			"/>
		</g>
		<g>
			<polygon class="st5" points="1102.14,425.13 1082.07,418.71 1082.2,391.96 1102.27,398.39 			"/>
			<polygon class="st8" points="1101.86,425.14 1121.99,418.92 1122.13,392.18 1102,398.39 			"/>
			
				<linearGradient id="SVGID_5_" gradientUnits="userSpaceOnUse" x1="1083.0808" y1="-3476.9702" x2="1123.5609" y2="-3476.9702" gradientTransform="matrix(1 5.051362e-03 3.711277e-03 -0.7347 11.9093 -2166.9841)">
				<stop  offset="0" style="stop-color:#ADD3E4"/>
				<stop  offset="1" style="stop-color:#ADD3E4"/>
			</linearGradient>
			<polygon class="st10" points="1082.09,392.27 1102.43,398.7 1122.57,392.48 1102.49,387.54 			"/>
		</g>
		<g>
			<polygon class="st5" points="1062.71,428.88 1047.67,424.09 1047.75,404.06 1062.79,408.85 			"/>
			<polygon class="st8" points="1062.5,428.87 1077.57,424.2 1077.65,404.17 1062.58,408.84 			"/>
			
				<linearGradient id="SVGID_6_" gradientUnits="userSpaceOnUse" x1="1067.9594" y1="-3562.9233" x2="1098.2693" y2="-3562.9233" gradientTransform="matrix(1 3.990826e-03 2.931848e-03 -0.7347 -10.0956 -2217.1028)">
				<stop  offset="0" style="stop-color:#ADD3E4"/>
				<stop  offset="1" style="stop-color:#ADD3E4"/>
			</linearGradient>
			<polygon class="st11" points="1047.42,404.28 1062.66,409.08 1077.73,404.4 1062.69,400.72 			"/>
		</g>
	</g>
	<g>
		<polygon class="st12" points="1011.76,342.83 989.68,330.03 989.68,350.56 1011.76,365.11 		"/>
		<g>
			<g>
				<defs>
					<polygon id="SVGID_7_" points="1011.76,342.83 1033.85,331.06 1011.2,319.91 989.62,330.03 					"/>
				</defs>
				<clipPath id="SVGID_8_">
					<use xlink:href="#SVGID_7_"  style="overflow:visible;"/>
				</clipPath>
				
					<linearGradient id="SVGID_9_" gradientUnits="userSpaceOnUse" x1="1022.4723" y1="110.3975" x2="1009.0447" y2="118.1916" gradientTransform="matrix(1 0 0 -1 0 448)">
					<stop  offset="0" style="stop-color:#B0D6E6"/>
					<stop  offset="1" style="stop-color:#B0D6E6"/>
				</linearGradient>
				<rect x="989.62" y="319.91" class="st13" width="44.23" height="22.92"/>
			</g>
		</g>
		<polygon class="st14" points="1011.76,342.83 1033.85,331.06 1033.85,351.59 1011.76,365.11 		"/>
		<path class="st12" d="M1011.86,325.43l-1.28,0.14l-0.18,0.08h-0.2l-0.18,0.08l-1,0.24l-0.14,0.06h-0.13l-0.12,0.1l-1.85,0.68
			l-0.1,0.07c-0.83,0.32-1.51,0.78-2.23,1.15l-0.08,0.09c-0.65,0.36-0.88,0.55-1.33,1l-0.11,0.07l-0.46,0.62l-0.09,0.08l-0.15,0.31
			l-0.08,0.09c-0.52,1.19-0.51,1.38-0.4,2.77l0.09,0.14v0.14l0.06,0.13l0.17,0.43l0.07,0.1l0.08,0.22l0.09,0.08
			c0.27,0.47,0.59,0.85,0.91,1.2c0.18,0.19,0.93,0.81,1.23,0.96l0.08,0.09c0.61,0.29,1.05,0.65,1.83,0.92l0.1,0.07l1.49,0.47
			l0.17,0.08c0.52,0.06,1.06,0.21,1.62,0.28c0.62,0.08,0.95-0.22,1.47-0.44l0.1-0.07h0.07l0.1-0.07l2.36-1.09l0.1-0.07h0.07
			l0.1-0.07l1.36-0.65l-0.12-0.05c-0.8-0.03-1.75,0.09-2.61,0.06c-0.87-0.02-1.67-0.18-2.47-0.21l-0.17-0.08
			c-0.57-0.05-1.15-0.3-1.65-0.47l-0.11-0.07c-0.8-0.29-1.54-0.92-1.88-1.57c-0.55-1.04-0.21-1.81,0.21-2.69l0.09-0.08l0.07-0.14
			l0.09-0.08c0.43-0.61,1.48-1.46,2.52-1.79l0.11-0.07l1.1-0.31l0.16-0.08l0.17,0.01l0.17-0.08l0.73-0.06
			c0.18-0.11,0.27-0.1,0.52-0.1h1.7c0.27-0.01,0.5-0.01,0.69,0.1l0.99,0.13l0.12,0.1c0.6,0.08,1.1,0.42,1.61,0.6l0.09,0.08
			l0.31,0.15l0.08,0.09c0.53,0.28,1.48,1.15,1.67,1.83l0.07,0.11c0.22,0.78,0.17,1.04,0,1.8l-0.06,0.14l-0.28,0.6l0.42-0.17
			l0.09-0.08l3.27-1.69l0.09-0.08l0.78-0.39l0.09-0.08l0.78-0.39l0.09-0.09c0.03-0.17-0.98-1-1.2-1.21l-0.08-0.11
			c-0.26-0.22-0.64-0.55-0.96-0.75l-0.08-0.1c-0.31-0.18-0.57-0.45-0.88-0.6l-0.09-0.09l-0.79-0.46l-0.08-0.09l-1.03-0.53l-0.1-0.07
			l-1.32-0.55l-0.11-0.07l-0.8-0.23l-0.13-0.1h-0.14l-0.15-0.06h-0.15l-0.14-0.09c-0.65-0.06-1.37-0.27-2.1-0.34
			c-0.88-0.08-1.73,0.02-2.52-0.05L1011.86,325.43L1011.86,325.43z"/>
		<polygon class="st15" points="1023.2,336.74 1024.02,336.3 1024.02,357.61 1023.2,358.11 		"/>
		<g>
			<path d="M1106.84,347.93v17.06h-3.33v-23.55h4.64l3.8,14.1v-14.1h3.3v23.55h-3.8L1106.84,347.93L1106.84,347.93z M1093.38,357.52
				h3.57l-1.78-11.91L1093.38,357.52z M1101.83,364.99h-3.73l-0.64-4.27h-4.54l-0.64,4.27h-3.4l3.77-23.55h5.42L1101.83,364.99
				L1101.83,364.99z M1078.78,347.93v17.06h-3.33v-23.55h4.64l3.8,14.1v-14.1h3.3v23.55h-3.8L1078.78,347.93L1078.78,347.93z
				 M1061.86,347.09c0-1.91,0.48-3.37,1.45-4.39c0.96-1.02,2.36-1.53,4.17-1.53c1.82,0,3.21,0.51,4.17,1.53
				c0.96,1.02,1.45,2.48,1.45,4.39v12.25c0,1.91-0.48,3.37-1.45,4.39c-0.96,1.02-2.36,1.53-4.17,1.53c-1.82,0-3.21-0.51-4.17-1.53
				c-0.96-1.02-1.45-2.48-1.45-4.39V347.09z M1065.56,359.57c0,0.85,0.17,1.45,0.52,1.8c0.35,0.35,0.81,0.52,1.4,0.52
				c0.58,0,1.05-0.17,1.4-0.52c0.35-0.35,0.52-0.95,0.52-1.8v-12.72c0-0.85-0.17-1.45-0.52-1.8c-0.35-0.35-0.81-0.52-1.4-0.52
				c-0.58,0-1.05,0.17-1.4,0.52c-0.35,0.35-0.52,0.95-0.52,1.8V359.57z M1059.9,356.21v3.13c0,1.91-0.47,3.37-1.4,4.39
				c-0.93,1.02-2.3,1.53-4.12,1.53s-3.19-0.51-4.12-1.53s-1.4-2.48-1.4-4.39v-12.25c0-1.91,0.47-3.37,1.4-4.39
				c0.93-1.02,2.3-1.53,4.12-1.53s3.19,0.51,4.12,1.53s1.4,2.48,1.4,4.39v2.29h-3.5v-2.52c0-0.85-0.17-1.45-0.52-1.8
				c-0.35-0.35-0.81-0.52-1.4-0.52c-0.58,0-1.05,0.17-1.4,0.52c-0.35,0.35-0.52,0.95-0.52,1.8v12.72c0,0.85,0.17,1.45,0.52,1.78
				c0.35,0.34,0.81,0.5,1.4,0.5c0.58,0,1.05-0.17,1.4-0.5c0.35-0.34,0.52-0.93,0.52-1.78v-3.36h3.5V356.21z"/>
			<path class="st16" d="M1048.35,336.45c-0.6,0-1.14-0.05-1.57-0.22v-2.17c0.43,0.11,0.87,0.16,1.25,0.16
				c0.6,0,0.98-0.16,1.25-0.54c0.22-0.33,0.38-0.92,0.38-1.68v-11.62h2.61V332c0,1.41-0.33,2.55-0.98,3.31
				C1050.63,336.07,1049.65,336.45,1048.35,336.45L1048.35,336.45z"/>
			<polygon class="st16" points="1057.96,332.76 1055.41,332.76 1055.41,320.38 1062.47,320.38 1062.47,322.55 1057.96,322.55 
				1057.96,325.76 1062.2,325.76 1062.2,327.87 1057.96,327.87 			"/>
			<path class="st16" d="M1070.01,323.15c0.33,0,0.65,0,0.87,0.05l-0.22,2.44c-0.22-0.05-0.43-0.11-0.76-0.11
				c-0.81,0-1.47,0.22-1.9,0.65c-0.49,0.43-0.71,1.03-0.71,1.79v4.78h-2.61v-9.45h1.96l0.38,1.58h0.16
				c0.27-0.54,0.71-0.92,1.19-1.25C1068.88,323.31,1069.42,323.15,1070.01,323.15L1070.01,323.15z"/>
			<path class="st16" d="M1081.2,328.04c0,1.52-0.38,2.77-1.19,3.64c-0.81,0.87-1.96,1.3-3.42,1.3c-0.92,0-1.68-0.22-2.39-0.6
				c-0.71-0.43-1.25-0.98-1.63-1.74c-0.38-0.76-0.54-1.63-0.54-2.61c0-1.57,0.38-2.77,1.2-3.64c0.81-0.87,1.95-1.25,3.42-1.25
				c0.92,0,1.74,0.16,2.44,0.54c0.65,0.43,1.2,0.98,1.58,1.74C1081.04,326.19,1081.2,327.06,1081.2,328.04L1081.2,328.04z
				 M1074.68,328.04L1074.68,328.04c0,0.92,0.11,1.63,0.43,2.12c0.33,0.49,0.82,0.71,1.52,0.71c0.71,0,1.19-0.22,1.47-0.71
				c0.33-0.49,0.49-1.19,0.49-2.12c0-0.92-0.16-1.63-0.49-2.12c-0.27-0.49-0.81-0.71-1.47-0.71c-0.71,0-1.19,0.22-1.52,0.71
				C1074.79,326.35,1074.68,327.06,1074.68,328.04z"/>
			<path class="st16" d="M1091.63,323.31v1.3l-1.52,0.38c0.27,0.43,0.43,0.92,0.43,1.41c0,1.03-0.38,1.85-1.09,2.39
				c-0.71,0.6-1.68,0.87-2.93,0.87l-0.49-0.05h-0.38c-0.27,0.16-0.38,0.43-0.38,0.65c0,0.38,0.49,0.54,1.41,0.54h1.63
				c1.03,0,1.85,0.27,2.39,0.71c0.54,0.43,0.81,1.09,0.81,1.95c0,1.09-0.49,1.96-1.41,2.55c-0.92,0.65-2.23,0.92-3.96,0.92
				c-1.3,0-2.33-0.22-3.04-0.65c-0.71-0.49-1.03-1.14-1.03-1.96c0-0.6,0.16-1.03,0.54-1.41c0.33-0.43,0.87-0.71,1.52-0.87
				c-0.22-0.11-0.49-0.27-0.65-0.54c-0.22-0.27-0.33-0.54-0.33-0.82c0-0.38,0.11-0.65,0.33-0.92c0.22-0.22,0.49-0.43,0.92-0.71
				c-0.49-0.22-0.92-0.54-1.19-1.03c-0.27-0.43-0.43-1.03-0.43-1.68c0-1.03,0.33-1.79,0.98-2.39c0.71-0.54,1.68-0.82,2.93-0.82
				c0.22,0,0.54,0,0.92,0.05s0.6,0.05,0.71,0.11L1091.63,323.31L1091.63,323.31z M1084.3,334.12L1084.3,334.12
				c0,0.38,0.16,0.65,0.49,0.87c0.38,0.16,0.87,0.27,1.47,0.27c0.92,0,1.63-0.11,2.17-0.38c0.54-0.22,0.82-0.6,0.82-1.03
				c0-0.38-0.16-0.6-0.49-0.76c-0.33-0.11-0.81-0.16-1.47-0.16h-1.3c-0.49,0-0.87,0.11-1.19,0.33
				C1084.46,333.47,1084.3,333.74,1084.3,334.12L1084.3,334.12z M1085.22,326.41L1085.22,326.41c0,0.49,0.11,0.92,0.38,1.19
				c0.22,0.33,0.6,0.49,1.09,0.49s0.81-0.16,1.03-0.49c0.22-0.27,0.32-0.71,0.32-1.19c0-1.14-0.43-1.74-1.36-1.74
				C1085.71,324.67,1085.22,325.27,1085.22,326.41z"/>
			<path class="st17" d="M1182.07,353.05v-10.19h3.33c2.56,0,3.53,1.51,3.53,4.04v2.22c0,3.16-1.61,3.94-4.37,3.94L1182.07,353.05
				L1182.07,353.05z M1180.53,341.44v23.55h1.55v-10.53h2.46c2.69,0,4.41,0.87,4.41,4v3.7c0,1.28,0.1,2.12,0.5,2.83h1.61
				c-0.5-0.77-0.57-1.85-0.57-2.83v-3.67c0-2.56-0.98-4.27-3.4-4.81c2.32-0.54,3.4-2.12,3.4-4.88v-2.05c0-3.33-1.45-5.32-5.05-5.32
				L1180.53,341.44L1180.53,341.44z M1170.26,352.34v-9.49h7.74v-1.41h-9.29v23.55h9.29v-1.41h-7.74v-9.82h6.43v-1.41
				L1170.26,352.34L1170.26,352.34z M1161.92,364.99v-22.14h4.78v-1.41h-11.14v1.41h4.81v22.14H1161.92L1161.92,364.99z
				 M1144.56,344l7.37,20.99h1.72v-23.55h-1.41v19.88l-7.07-19.88h-2.02v23.55h1.41V344L1144.56,344z M1132.89,352.34v-9.49h7.74
				v-1.41h-9.29v23.55h9.29v-1.41h-7.74v-9.82h6.43v-1.41L1132.89,352.34L1132.89,352.34z M1123.73,341.24
				c-3.6,0-5.08,2.56-5.08,5.96v12.04c0,3.4,1.48,5.96,5.08,5.96s5.08-2.56,5.08-5.96v-2.69h-1.48v2.79c0,2.52-0.98,4.41-3.57,4.41
				s-3.57-1.88-3.57-4.41v-12.25c0-2.52,0.98-4.44,3.57-4.44s3.57,1.92,3.57,4.44v2.05h1.48v-1.95
				C1128.81,343.8,1127.33,341.24,1123.73,341.24L1123.73,341.24z"/>
		</g>
		<polygon class="st15" points="1033.85,357.54 1011.73,370.99 989.62,356.44 989.62,358.99 1011.73,373.55 1033.85,360.1 		"/>
	</g>
</g>
<g>
	<g>
		<path class="st4" d="M966.08,28.79l246.72,0.96c2.03,0.01,3.69,1.68,3.68,3.71l-0.4,103.72c-0.01,2.03-1.68,3.69-3.71,3.68
			l-246.72-0.96c-2.03-0.01-3.69-1.68-3.68-3.71l0.4-103.72C962.38,30.43,964.05,28.78,966.08,28.79z"/>
		<rect x="1043.35" y="128.04" class="st7" width="96.37" height="24"/>
		<g>
			<g>
				<polygon class="st5" points="1081.46,159.81 1060.58,153.32 1060.49,125.58 1081.37,132.07 				"/>
				<polygon class="st8" points="1081.17,159.8 1102,153.17 1101.91,125.43 1081.08,132.06 				"/>
				
					<linearGradient id="SVGID_10_" gradientUnits="userSpaceOnUse" x1="1067.9479" y1="-3183.6326" x2="1109.9479" y2="-3183.6326" gradientTransform="matrix(1 -3.310056e-03 -2.431734e-03 -0.7347 -15.657 -2208.8201)">
					<stop  offset="0" style="stop-color:#ADD3E4"/>
					<stop  offset="1" style="stop-color:#ADD3E4"/>
				</linearGradient>
				<polygon class="st18" points="1060.03,125.89 1081.19,132.38 1102.03,125.75 1081.15,120.8 				"/>
			</g>
			<g>
				<polygon class="st5" points="1106.94,169.25 1086.12,162.59 1086.26,134.84 1107.08,141.5 				"/>
				<polygon class="st8" points="1106.65,169.26 1127.54,162.8 1127.68,135.06 1106.79,141.51 				"/>
				
					<linearGradient id="SVGID_11_" gradientUnits="userSpaceOnUse" x1="1085.832" y1="-3127.0278" x2="1127.832" y2="-3127.0278" gradientTransform="matrix(1 5.051362e-03 3.711277e-03 -0.7347 11.9093 -2166.9841)">
					<stop  offset="0" style="stop-color:#ADD3E4"/>
					<stop  offset="1" style="stop-color:#ADD3E4"/>
				</linearGradient>
				<polygon class="st19" points="1086.14,135.16 1107.25,141.82 1128.14,135.37 1107.31,130.25 				"/>
			</g>
			<g>
				<polygon class="st5" points="1066.03,173.14 1050.43,168.17 1050.68,148.08 1066.12,152.36 				"/>
				<polygon class="st8" points="1065.82,173.13 1081.46,168.28 1081.54,147.5 1065.9,152.35 				"/>
				
					<linearGradient id="SVGID_12_" gradientUnits="userSpaceOnUse" x1="1069.8578" y1="-3213.5981" x2="1101.1351" y2="-3213.5981" gradientTransform="matrix(1 3.990826e-03 2.931848e-03 -0.7347 -10.0956 -2217.1028)">
					<stop  offset="0" style="stop-color:#ADD3E4"/>
					<stop  offset="1" style="stop-color:#ADD3E4"/>
				</linearGradient>
				<polygon class="st20" points="1050.34,148.31 1065.99,152.59 1081.62,147.74 1066.02,143.93 				"/>
			</g>
			<g>
				<polygon class="st5" points="1096.84,138.05 1084.66,134.17 1084.73,117.95 1096.9,121.83 				"/>
				<polygon class="st8" points="1096.67,138.04 1108.87,134.26 1108.94,118.04 1096.73,121.83 				"/>
				
					<linearGradient id="SVGID_13_" gradientUnits="userSpaceOnUse" x1="1103.8568" y1="-3173.1021" x2="1128.4069" y2="-3173.1021" gradientTransform="matrix(1 3.990826e-03 2.931848e-03 -0.7347 -10.0956 -2217.1028)">
					<stop  offset="0" style="stop-color:#ADD3E4"/>
					<stop  offset="1" style="stop-color:#ADD3E4"/>
				</linearGradient>
				<polygon class="st21" points="1084.46,118.13 1096.8,122.01 1109.01,118.23 1096.83,115.25 				"/>
			</g>
		</g>
	</g>
	<g>
		<path class="st22" d="M1063.68,104.69l-3.96-0.02l-0.65-4.53l-4.8-0.02l-0.69,4.52l-3.59-0.01l4.09-24.87l5.73,0.02
			L1063.68,104.69z M1054.8,96.78l3.76,0.01l-1.83-12.58L1054.8,96.78z"/>
		<path class="st22" d="M1073.58,104.73c-0.2-0.64-0.36-1.04-0.36-3.05l0.02-3.92c0.01-2.31-0.76-3.15-2.54-3.16l-1.34-0.01
			l-0.04,10.13l-3.92-0.02l0.1-24.85l5.9,0.02c4.06,0.02,5.79,1.9,5.78,5.76l-0.01,1.94c-0.01,2.55-0.82,4.22-2.57,5.05
			c1.94,0.81,2.57,2.73,2.56,5.31l-0.01,3.82c0,1.21,0.02,2.11,0.42,3.02l-3.99-0.02L1073.58,104.73z M1069.4,83.42l-0.03,7.65
			l1.54,0.01c1.44,0.01,2.35-0.63,2.36-2.61l0.01-2.45c0.01-1.78-0.59-2.55-1.97-2.56l-1.91-0.01V83.42z"/>
		<polygon class="st22" points="1078.67,79.9 1090.74,79.95 1090.73,83.51 1086.64,83.49 1086.55,104.78 1082.66,104.77 
			1082.75,83.47 1078.66,83.46 		"/>
		
			<rect x="1081.89" y="90.43" transform="matrix(3.902176e-03 -1 1 3.902176e-03 997.6625 1186.3231)" class="st22" width="24.85" height="3.89"/>
		<polygon class="st22" points="1102.47,91.03 1107.53,91.05 1107.52,94.6 1102.45,94.58 1102.41,104.84 1098.49,104.83 
			1098.59,79.98 1108.95,80.02 1108.94,83.58 1102.5,83.55 		"/>
		<path class="st22" d="M1122.23,104.92l-3.96-0.02l-0.65-4.53l-4.8-0.02l-0.69,4.52l-3.59-0.01l4.09-24.87l5.73,0.02
			L1122.23,104.92z M1113.34,97.01l3.76,0.01l-1.83-12.58L1113.34,97.01z"/>
		<path class="st22" d="M1135.14,95.72l-0.01,3.32c-0.02,3.99-2,6.26-5.86,6.25c-3.82-0.01-5.83-2.3-5.81-6.29l0.05-12.94
			c0.02-3.99,2-6.26,5.86-6.25c3.82,0.01,5.83,2.3,5.81,6.29l-0.01,2.41l-3.69-0.01l0.01-2.65c0.01-1.78-0.76-2.45-2-2.46
			c-1.24,0-2.01,0.66-2.02,2.44l-0.05,13.45c-0.01,1.78,0.76,2.42,2,2.42s2.01-0.63,2.02-2.41l0.01-3.55l3.69,0.01V95.72z"/>
		<polygon class="st22" points="1136.55,80.13 1148.62,80.18 1148.6,83.73 1144.51,83.72 1144.43,105.01 1140.54,104.99 
			1140.62,83.7 1136.53,83.68 		"/>
		<path class="st22" d="M1150,86.15c0.02-3.99,2.14-6.26,5.96-6.25s5.93,2.3,5.91,6.29l-0.05,12.94c-0.02,3.99-2.14,6.26-5.96,6.25
			s-5.93-2.3-5.91-6.29L1150,86.15z M1153.88,99.34c-0.01,1.78,0.76,2.45,2,2.46c1.24,0,2.01-0.66,2.02-2.44l0.05-13.45
			c0.01-1.78-0.76-2.45-2-2.46c-1.24,0-2.01,0.66-2.02,2.44L1153.88,99.34z"/>
		<path class="st22" d="M1172.1,105.12c-0.2-0.64-0.36-1.04-0.36-3.05l0.02-3.92c0.01-2.31-0.76-3.15-2.54-3.16l-1.34-0.01
			l-0.04,10.13l-3.92-0.02l0.1-24.85l5.9,0.02c4.06,0.02,5.79,1.9,5.78,5.76l-0.01,1.94c-0.01,2.55-0.82,4.22-2.57,5.05
			c1.94,0.81,2.57,2.73,2.56,5.31l-0.01,3.82c0,1.21,0.02,2.11,0.42,3.02l-3.99-0.02L1172.1,105.12z M1167.92,83.81l-0.03,7.65
			l1.54,0.01c1.44,0.01,2.35-0.63,2.36-2.61l0.01-2.45c0.01-1.78-0.59-2.55-1.97-2.56l-1.91-0.01V83.81z"/>
		<polygon class="st22" points="1181.52,96.94 1176.62,80.29 1180.71,80.3 1183.65,91.65 1186.68,80.32 1190.43,80.34 
			1185.41,96.95 1185.37,105.17 1181.48,105.15 		"/>
		
			<rect x="1009.25" y="80.62" transform="matrix(3.902176e-03 -1 1 3.902176e-03 903.8772 1113.7258)" class="st23" width="3.45" height="45.07"/>
		<path class="st23" d="M1050.32,74.63c-0.6,0-1.14-0.07-1.58-0.21l0.01-2.21c0.47,0.1,0.87,0.17,1.24,0.17
			c0.57,0,1.01-0.16,1.24-0.53c0.27-0.37,0.37-0.94,0.38-1.71l0.05-11.77l2.68,0.01l-0.05,11.77c-0.01,1.48-0.35,2.58-1.02,3.35
			C1052.6,74.27,1051.63,74.63,1050.32,74.63"/>
		<polygon class="st23" points="1060.09,70.98 1057.48,70.97 1057.53,58.39 1064.74,58.42 1064.73,60.6 1060.13,60.58 
			1060.12,63.84 1064.38,63.85 1064.37,66.03 1060.11,66.02 		"/>
		<path class="st23" d="M1072.34,61.23c0.37,0,0.64,0.04,0.87,0.07l-0.21,2.45c-0.2-0.07-0.47-0.1-0.77-0.1
			c-0.84,0-1.48,0.2-1.95,0.63c-0.47,0.43-0.71,1.04-0.71,1.81l-0.02,4.9l-2.61-0.01l0.04-9.59l1.98,0.01l0.4,1.61h0.13
			c0.3-0.54,0.71-0.97,1.21-1.3C1071.2,61.4,1071.73,61.23,1072.34,61.23"/>
		<path class="st23" d="M1083.69,66.24c-0.01,1.58-0.41,2.78-1.26,3.68c-0.84,0.87-1.98,1.3-3.46,1.29c-0.94,0-1.74-0.21-2.45-0.61
			c-0.7-0.4-1.24-0.98-1.6-1.75c-0.37-0.77-0.56-1.65-0.56-2.65c0.01-1.58,0.41-2.78,1.25-3.65c0.81-0.87,1.98-1.3,3.46-1.29
			c0.94,0,1.74,0.21,2.45,0.61c0.7,0.4,1.24,0.98,1.6,1.75C1083.49,64.36,1083.69,65.24,1083.69,66.24 M1077.05,66.22
			c0,0.94,0.16,1.68,0.46,2.15c0.3,0.5,0.8,0.74,1.54,0.74c0.7,0,1.21-0.23,1.51-0.73c0.3-0.47,0.47-1.2,0.48-2.18
			c0-0.94-0.16-1.68-0.46-2.15c-0.3-0.47-0.8-0.71-1.51-0.71c-0.7,0-1.21,0.23-1.51,0.7C1077.19,64.54,1077.05,65.24,1077.05,66.22"
			/>
		<path class="st23" d="M1094.23,61.49l-0.01,1.34l-1.51,0.4c0.27,0.44,0.4,0.91,0.4,1.44c0,1.04-0.38,1.84-1.08,2.41
			c-0.71,0.57-1.71,0.87-2.99,0.86l-0.47-0.04l-0.4-0.04c-0.27,0.2-0.4,0.43-0.41,0.7c0,0.37,0.47,0.57,1.44,0.58l1.64,0.01
			c1.04,0,1.84,0.24,2.41,0.68c0.53,0.44,0.83,1.11,0.83,2.02c0,1.14-0.48,2.01-1.42,2.61c-0.94,0.6-2.28,0.93-4.03,0.92
			c-1.34-0.01-2.38-0.24-3.08-0.72c-0.7-0.47-1.07-1.11-1.07-1.98c0-0.57,0.17-1.07,0.54-1.44c0.37-0.4,0.91-0.67,1.58-0.83
			c-0.27-0.1-0.5-0.3-0.7-0.57s-0.3-0.54-0.3-0.84c0-0.37,0.1-0.67,0.31-0.9c0.2-0.23,0.51-0.47,0.91-0.7
			c-0.5-0.24-0.9-0.57-1.2-1.04c-0.3-0.47-0.43-1.04-0.43-1.71c0-1.04,0.34-1.84,1.05-2.44c0.67-0.57,1.65-0.87,2.92-0.86
			c0.27,0,0.6,0.04,0.97,0.07s0.6,0.1,0.7,0.1l3.39,0.01L1094.23,61.49z M1086.78,72.42c0,0.37,0.17,0.64,0.53,0.84
			c0.34,0.2,0.84,0.3,1.44,0.31c0.94,0,1.68-0.13,2.21-0.39c0.54-0.27,0.81-0.6,0.81-1.07c0-0.37-0.16-0.6-0.47-0.74
			c-0.3-0.14-0.8-0.2-1.47-0.21l-1.37-0.01c-0.47,0-0.87,0.1-1.21,0.33C1086.95,71.75,1086.78,72.06,1086.78,72.42 M1087.75,64.61
			c0,0.54,0.13,0.94,0.36,1.24c0.23,0.3,0.6,0.47,1.07,0.47c0.5,0,0.84-0.16,1.07-0.47c0.24-0.3,0.34-0.7,0.34-1.24
			c0-1.17-0.46-1.75-1.44-1.75C1088.26,62.87,1087.75,63.47,1087.75,64.61"/>
		<path class="st23" d="M1024.35,61.95c0-0.97,0.81-1.77,1.78-1.77s1.77,0.81,1.77,1.78l-0.01,2.31l2.31,0.01
			c0.97,0,1.77,0.81,1.77,1.78s-0.81,1.77-1.78,1.77l-2.31-0.01l-0.01,2.31c0,0.97-0.81,1.77-1.78,1.77s-1.77-0.81-1.77-1.78
			l0.01-2.31l-2.31-0.01c-0.97,0-1.77-0.81-1.77-1.78s0.81-1.77,1.78-1.77l2.31,0.01L1024.35,61.95z M1014.69,70.67
			c0-0.97,0.81-1.77,1.78-1.77c0.97,0,1.77,0.81,1.77,1.78l-0.01,2.31l2.31,0.01c0.97,0,1.77,0.81,1.77,1.78s-0.81,1.77-1.78,1.77
			l-2.31-0.01l-0.01,2.31c0,0.97-0.81,1.77-1.78,1.77c-0.97,0-1.77-0.81-1.77-1.78l0.01-2.31l-2.31-0.01
			c-0.97,0-1.77-0.81-1.77-1.78s0.81-1.77,1.78-1.77l2.31,0.01L1014.69,70.67z M1019.08,55.56c0.87,0.44,1.24,1.51,0.8,2.38
			c-0.44,0.87-1.51,1.23-2.38,0.8c-1.04-0.51-2.18-0.91-3.31-1.19c-1.14-0.27-2.31-0.41-3.49-0.42c-4.26-0.02-8.15,1.71-10.95,4.48
			c-2.83,2.81-4.59,6.65-4.6,10.95c-0.02,4.29,1.71,8.15,4.48,10.95c2.77,2.79,6.66,4.55,10.91,4.57c1.64,0.01,3.25-0.26,4.76-0.72
			c1.54-0.5,2.99-1.23,4.3-2.16c0.81-0.57,1.91-0.4,2.48,0.41c0.57,0.81,0.39,1.91-0.41,2.48c-1.61,1.17-3.43,2.07-5.31,2.66
			c-1.88,0.6-3.86,0.92-5.84,0.92c-5.27-0.02-10.02-2.19-13.43-5.62c-3.41-3.5-5.53-8.27-5.51-13.5c0.02-5.23,2.19-10.02,5.62-13.43
			c3.47-3.44,8.24-5.53,13.47-5.51c1.44,0.01,2.88,0.18,4.29,0.52C1016.4,54.41,1017.77,54.92,1019.08,55.56"/>
	</g>
</g>
<g>
	<g>
		<g>
			<defs>
				<rect id="SVGID_14_" x="278.87" y="-265.63" width="132.33" height="116.57"/>
			</defs>
			<clipPath id="SVGID_15_">
				<use xlink:href="#SVGID_14_"  style="overflow:visible;"/>
			</clipPath>
		</g>
	</g>
</g>
<g>
	<g>
		<path d="M185.45,329.65l-0.66-5.19c-0.88-0.12-1.76-0.31-2.63-0.57l-3.6,4.65l-8.86-6.86l3.18-4.11c-0.55-0.71-1.06-1.48-1.5-2.28
			l-5.77,0.73l-1.41-11.12l5-0.63c0.11-0.96,0.3-1.9,0.55-2.81l-4.44-3.44l6.86-8.86l3.83,2.97c0.78-0.62,1.62-1.17,2.51-1.66
			l-0.69-5.4l11.12-1.41l0.6,4.7c1.02,0.13,2.03,0.34,3.01,0.64l3.28-4.23l8.86,6.86l-2.92,3.77c0.6,0.79,1.14,1.65,1.62,2.57
			l5.39-0.68l1.41,11.12l-4.89,0.62c-0.14,0.94-0.36,1.89-0.66,2.83l4.44,3.44l-6.86,8.86l-4.05-3.14c-0.72,0.54-1.5,1.03-2.33,1.47
			l0.73,5.76L185.45,329.65z M181.44,321.55l0.67,0.23c1.2,0.4,2.43,0.66,3.66,0.78l0.8,0.07l0.61,4.78l7.15-0.91l-0.66-5.19
			l0.65-0.31c1.19-0.57,2.27-1.26,3.22-2.03l0.62-0.5l3.71,2.88l4.41-5.7l-3.99-3.09l0.24-0.68c0.46-1.28,0.75-2.57,0.88-3.84
			l0.08-0.79l4.47-0.57l-0.91-7.15l-4.83,0.61l-0.31-0.65c-0.6-1.27-1.33-2.42-2.18-3.43l-0.51-0.62l2.67-3.44l-5.69-4.41
			l-2.93,3.78l-0.68-0.24c-1.3-0.45-2.65-0.73-4.02-0.84l-0.81-0.06l-0.55-4.31l-7.15,0.91l0.61,4.8l-0.63,0.32
			c-1.22,0.61-2.35,1.36-3.36,2.24l-0.62,0.54l-3.53-2.74l-4.41,5.7l3.96,3.07l-0.22,0.67c-0.39,1.21-0.64,2.5-0.74,3.83l-0.06,0.82
			l-4.62,0.59l0.91,7.15l5.17-0.66l0.32,0.63c0.58,1.14,1.28,2.2,2.09,3.15l0.53,0.62l-2.94,3.8l5.7,4.41L181.44,321.55z
			 M187.27,315.29c-4.89,0-8.87-3.98-8.87-8.87s3.98-8.87,8.87-8.87s8.87,3.98,8.87,8.87S192.16,315.29,187.27,315.29z
			 M187.27,299.55c-3.79,0-6.87,3.08-6.87,6.87s3.08,6.87,6.87,6.87s6.87-3.08,6.87-6.87S191.06,299.55,187.27,299.55z"/>
	</g>
	<g>
		<path d="M127.38,383.34l-1.19-9.36c-1.98-0.23-3.95-0.66-5.89-1.26l-6.46,8.34l-14.96-11.59l5.74-7.41
			c-1.27-1.57-2.4-3.27-3.37-5.08l-10.34,1.31l-2.38-18.77l9.02-1.15c0.21-2.14,0.61-4.23,1.21-6.23l-7.96-6.17l11.59-14.96
			l6.9,5.35c1.7-1.39,3.54-2.62,5.5-3.66l-1.23-9.66l18.77-2.38l1.07,8.46c2.24,0.23,4.45,0.7,6.59,1.39l5.87-7.58l14.96,11.59
			l-5.25,6.78c1.35,1.71,2.54,3.6,3.56,5.63l9.66-1.23l2.38,18.77l-8.8,1.12c-0.26,2.07-0.74,4.17-1.44,6.25l7.96,6.17l-11.59,14.96
			l-7.29-5.65c-1.58,1.22-3.32,2.32-5.2,3.28l1.31,10.33L127.38,383.34z M119.58,370.38l0.67,0.23c2.27,0.76,4.59,1.25,6.91,1.47
			l0.8,0.07l1.14,8.95l14.8-1.88l-1.24-9.77l0.65-0.31c2.24-1.09,4.29-2.38,6.08-3.85l0.62-0.5l6.96,5.39l9.14-11.79l-7.52-5.83
			l0.24-0.68c0.87-2.42,1.42-4.86,1.66-7.26l0.08-0.79l8.38-1.06l-1.88-14.8l-9.1,1.15l-0.31-0.65c-1.13-2.39-2.52-4.57-4.12-6.49
			l-0.51-0.62l5-6.46l-11.79-9.14l-5.52,7.13l-0.68-0.24c-2.46-0.85-5.01-1.39-7.59-1.59l-0.81-0.06l-1.03-8.08l-14.8,1.88
			l1.15,9.07l-0.63,0.32c-2.3,1.15-4.43,2.57-6.35,4.23l-0.62,0.54l-6.61-5.12l-9.14,11.79l7.48,5.8l-0.22,0.67
			c-0.75,2.29-1.22,4.73-1.4,7.25l-0.06,0.82l-8.65,1.1l1.88,14.8l9.74-1.24l0.32,0.63c1.1,2.15,2.43,4.15,3.95,5.95l0.53,0.62
			l-5.5,7.1l11.79,9.14L119.58,370.38z M130,357.04c-8.53,0-15.47-6.94-15.47-15.47s6.94-15.47,15.47-15.47s15.47,6.94,15.47,15.47
			S138.53,357.04,130,357.04z M130,328.11c-7.43,0-13.47,6.04-13.47,13.47s6.04,13.47,13.47,13.47c7.43,0,13.47-6.04,13.47-13.47
			S137.43,328.11,130,328.11z"/>
	</g>
</g>
</svg>
