<svg width="31" height="38" fill="none" xmlns="http://www.w3.org/2000/svg"><path d="M30.998 14.189V8.436L22.348 0H2.336C1.05 0 0 1.025 0 2.278v11.91h30.998z" fill="#7BA7D3"/><path d="M.004 14.189v20.68c0 1.253 1.051 2.279 2.336 2.279h26.324c1.285 0 2.336-1.026 2.336-2.279V14.19H.004z" fill="#fff"/><path opacity=".15" d="M22.36 0l-.448 8.028c0 .822.689 1.494 1.532 1.494l7.548-1.088v-.011L22.36 0z" fill="#000"/><path d="M22.36 0l-.012 6.938c0 .822.689 1.494 1.532 1.494h7.112v-.011L22.36 0z" fill="#709DCA"/><path d="M4.294 9.068V5.32H5.54c.486 0 .883.148 1.189.446.306.296.457.678.457 1.145v.57c0 .469-.151.85-.457 1.145-.306.294-.7.442-1.19.442H4.295zm.642-3.245v2.744h.586c.32 0 .569-.1.752-.304.183-.203.272-.463.272-.784v-.574c0-.317-.091-.577-.272-.778-.183-.203-.433-.304-.752-.304h-.586zM10.787 7.532c0 .458-.147.837-.441 1.14-.294.301-.678.451-1.147.451-.461 0-.835-.15-1.123-.452-.288-.302-.432-.681-.432-1.139v-.674c0-.456.144-.835.432-1.137.288-.302.662-.454 1.121-.454.47 0 .853.152 1.149.454.296.302.444.681.444 1.137v.674h-.002zm-.638-.68c0-.311-.086-.57-.257-.769-.171-.2-.403-.301-.695-.301-.282 0-.504.1-.667.301-.164.202-.246.458-.246.77v.68c0 .314.082.574.246.776.163.2.387.302.67.302.293 0 .525-.101.694-.302.17-.202.255-.46.255-.777v-.68zM14.23 7.826l.006.016c.008.38-.118.687-.379.924-.259.238-.611.357-1.055.357-.448 0-.814-.146-1.094-.442-.28-.295-.42-.67-.42-1.128v-.714c0-.456.138-.833.416-1.128.277-.296.637-.444 1.08-.444.454 0 .812.116 1.073.35.26.233.39.544.382.937l-.006.015h-.621c0-.252-.07-.448-.21-.588-.14-.14-.347-.21-.62-.21-.262 0-.47.1-.624.303-.154.203-.232.456-.232.761v.718c0 .31.078.564.236.767.157.203.37.304.636.304.265 0 .467-.069.604-.207.136-.139.206-.334.206-.587h.623v-.004z" fill="#fff"/><path d="M23.658 20.15H7.344v.95h16.314v-.95zM23.658 23.378H7.344v.95h16.314v-.95zM23.658 26.606H7.344v.95h16.314v-.95zM17.404 29.834H7.344v.95h10.06v-.95z" fill="#ABADB9"/></svg>