<svg width="23" height="23" fill="none" xmlns="http://www.w3.org/2000/svg"><path d="M10.842 16.466a.946.946 0 001.317 0l5.845-5.892A.932.932 0 0018 9.258a.927.927 0 00-1.313.004l-4.258 4.292V.931a.93.93 0 10-1.857 0v12.623L6.313 9.262A.927.927 0 005 9.258a.933.933 0 00-.004 1.317l5.846 5.891z" fill="#fff"/><path d="M22.072 15.243a.93.93 0 00-.929.93v3.3c0 .918-.745 1.665-1.662 1.665H3.52a1.666 1.666 0 01-1.662-1.666v-3.298a.93.93 0 10-1.857 0v3.299A3.527 3.527 0 003.52 23H19.48c1.94 0 3.52-1.582 3.52-3.527v-3.3a.93.93 0 00-.93-.93z" fill="#fff"/></svg>