<svg width="161" height="313" fill="none" xmlns="http://www.w3.org/2000/svg"><path d="M-52.879 125.4L.243 156.5v62.2l-53.122-31.1v-62.2z" fill="#7BA7D3"/><path d="M-106 218.7l53.121-31.1L.243 218.7l-53.122 31.1L-106 218.7z" fill="#6699CB"/><path d="M.243 32.1l53.121 31.1v62.2L.243 94.3V32.1z" fill="#7BA7D3"/><path d="M106.485 218.7l-53.121 31.1V312l53.121-31.1v-62.2z" fill="#6699CB"/><path d="M-106 218.7v-62.2l53.121-31.1L.243 156.5v62.2" stroke="#2F6799" stroke-miterlimit="10"/><path d="M53.364 187.6L.243 218.7l-53.122-31.1v-62.2L.243 94.3l53.121 31.1v62.2zM106.486 32.1L53.364 1 .243 32.1m106.243 62.2l-53.122 31.1 53.122-31.1z" stroke="#2F6799" stroke-miterlimit="10"/><path d="M53.364 125.4V63.2l53.121-31.1 53.122 31.1v62.2l-53.122 31.1M.243 218.7l53.121 31.1V312" stroke="#2F6799" stroke-miterlimit="10"/><path d="M106.486 280.9L53.364 312 .243 280.9v-62.2l53.121-31.1 53.122 31.1v62.2z" stroke="#4C6B89" stroke-miterlimit="10"/></svg>