<svg width="401" height="429" fill="none" xmlns="http://www.w3.org/2000/svg"><g clip-path="url(#clip0)"><path d="M295.266 477.07l1.134-67.423 60.091-34.694-1.134 67.423-60.091 34.694z" fill="#7BA7D3"/><path d="M414.314 475.106l-58.957-32.73 1.134-67.423 58.957 32.73-1.134 67.423z" fill="#6699CB"/><path d="M176.217 479.035l1.134-67.423 60.091-34.694-1.134 67.423-60.091 34.694z" fill="#7BA7D3"/><path d="M298.668 274.801l58.957 32.73 60.091-34.694-58.957-32.729-60.091 34.693z" fill="#6699CB"/><path d="M416.583 340.26l58.957 32.729-1.134 67.423-60.092 34.694-58.957-32.73 1.134-67.423 60.092-34.693z" stroke="#2F6799" stroke-miterlimit="10"/><path d="M475.54 372.989l58.957 32.729-1.134 67.423-60.092 34.694-58.957-32.73 1.134-67.423 60.092-34.693z" stroke="#4C6B89" stroke-miterlimit="10"/><path d="M474.405 440.412l58.957 32.729-1.134 67.423-60.092 34.694-58.957-32.73 1.135-67.423 60.091-34.693z" stroke="#2F6799" stroke-miterlimit="10"/><path d="M355.357 442.376l58.957 32.73-1.134 67.423-60.091 34.693-58.958-32.729 1.135-67.423 60.091-34.694z" stroke="#2F6799" stroke-miterlimit="10"/><path d="M414.314 475.106l-60.092 34.693-58.957-32.729 1.135-67.423 60.091-34.694" stroke="#2F6799" stroke-miterlimit="10"/><path d="M297.534 342.224l58.957 32.729-1.134 67.423-60.092 34.694-58.957-32.729 1.134-67.423 60.092-34.694zM118.395 378.883l-1.135 67.422 58.958 32.73m2.268-134.846l58.957 32.729-58.957-32.729z" stroke="#2F6799" stroke-miterlimit="10"/><path d="M237.443 376.918l-60.092 34.694-58.957-32.73 1.134-67.423 60.092-34.693 58.957 32.729M356.491 374.953l1.134-67.423 60.092-34.693" stroke="#2F6799" stroke-miterlimit="10"/><path d="M358.759 240.107l58.957 32.73-1.134 67.423-60.091 34.693-58.957-32.729 1.134-67.423 60.091-34.694z" stroke="#4C6B89" stroke-miterlimit="10"/></g><defs><clipPath id="clip0"><path transform="rotate(-120 289.5 814.685)" fill="#fff" d="M289.5 814.685h579v625.266h-579z"/></clipPath></defs></svg>