<svg width="300" height="598" fill="none" xmlns="http://www.w3.org/2000/svg"><g clip-path="url(#clip0)"><path d="M22.876 166.221l55.301 33.181v66.362l-55.301-33.181v-66.362z" fill="#7BA7D3"/><path d="M-32.426 265.764l55.302-33.181 55.301 33.181-55.301 33.181-55.302-33.181z" fill="#6699CB"/><path d="M78.177 66.679l55.302 33.18v66.362L78.177 133.04V66.679zM188.78 332.126l55.301 33.18v66.362l-55.301-33.181v-66.361z" fill="#7BA7D3"/><path d="M188.78 265.764l-55.301 33.181v66.361l55.301-33.18v-66.362zM22.876 33.498l-55.302 33.18v66.362l55.302-33.18V33.498zM78.177 464.849L22.876 498.03v66.362l55.301-33.181v-66.362z" fill="#6699CB"/><path d="M78.177 332.126l-55.301 33.18-55.302-33.18v-66.362l55.302-33.181 55.301 33.181v66.362z" stroke="#2F6799" stroke-miterlimit="10"/><path d="M22.876 365.306l-55.302 33.181-55.301-33.181v-66.361l55.301-33.181 55.302 33.181v66.361z" stroke="#4C6B89" stroke-miterlimit="10"/><path d="M22.876 232.583l-55.302 33.181-55.301-33.181v-66.362l55.301-33.181 55.302 33.181v66.362z" stroke="#2F6799" stroke-miterlimit="10"/><path d="M-32.426 265.764v-66.362l55.302-33.181 55.301 33.181v66.362" stroke="#2F6799" stroke-miterlimit="10"/><path d="M133.479 232.583l-55.302 33.181-55.301-33.181v-66.362l55.301-33.181 55.302 33.181v66.362zM-32.426 133.04V66.679l55.302-33.181m55.301 99.542V66.679" stroke="#2F6799" stroke-miterlimit="10"/><path d="M-32.426 133.04l55.302-33.18V33.498L-32.426.318M188.78 66.679l-55.301-33.181-55.302 33.18M188.78 133.04l-55.301 33.181 55.301-33.181z" stroke="#2F6799" stroke-miterlimit="10"/><path d="M133.479 166.221V99.86l55.301-33.181 55.301 33.18v66.362l-55.301 33.181" stroke="#2F6799" stroke-miterlimit="10"/><path d="M244.081 166.221L188.78 133.04V66.679l55.301-33.181 55.302 33.18v66.362M78.177 265.764l55.302 33.181v66.361" stroke="#2F6799" stroke-miterlimit="10"/><path d="M188.78 332.126l-55.301 33.18-55.302-33.18v-66.362l55.302-33.181 55.301 33.181v66.362zM244.081 431.668l-55.301 33.181-55.301-33.181v-66.362l55.301-33.18 55.301 33.18v66.362z" stroke="#4C6B89" stroke-miterlimit="10"/><path d="M78.177 464.849L22.876 498.03l-55.302-33.181v-66.362l55.302-33.181 55.301 33.181v66.362z" stroke="#2F6799" stroke-miterlimit="10"/><path d="M-87.727 498.03v-66.362l55.301-33.181 55.302 33.181v66.362l-55.302 33.181" stroke="#2F6799" stroke-miterlimit="10"/><path d="M78.177 531.211l-55.301 33.181-55.302-33.181v-66.362l55.302-33.181 55.301 33.181v66.362z" stroke="#2F6799" stroke-miterlimit="10"/><path d="M133.479 564.392l-55.302 33.18-55.301-33.18V498.03l55.301-33.181 55.302 33.181" stroke="#2F6799" stroke-miterlimit="10"/><path d="M244.081 298.945l55.302 33.181v66.361l-55.302 33.181-55.301-33.181v-66.361" stroke="#4C6B89" stroke-miterlimit="10"/></g><defs><clipPath id="clip0"><path fill="#fff" d="M-254 0h553.751v598H-254z"/></clipPath></defs></svg>