<svg width="507" height="822" fill="none" xmlns="http://www.w3.org/2000/svg"><g clip-path="url(#clip0)"><path d="M126.125 228.83l75.924 45.554v91.109l-75.924-45.554V228.83z" fill="#7BA7D3"/><path d="M50.202 365.493l75.924-45.554 75.923 45.554-75.923 45.554-75.924-45.554zM-101.646 183.276l75.924-45.555 75.924 45.555-75.924 45.554-75.924-45.554z" fill="#6699CB"/><path d="M202.049 92.167l75.924 45.555v91.108l-75.924-45.554V92.167z" fill="#7BA7D3"/><path d="M353.897 365.493l-75.924 45.554v91.109l75.924-45.554v-91.109zM202.049 638.819l-75.924 45.554v91.109l75.924-45.555v-91.108z" fill="#6699CB"/><path d="M202.049 456.602l-75.923 45.554-75.924-45.554v-91.109l75.924-45.554 75.923 45.554v91.109z" stroke="#2F6799" stroke-miterlimit="10"/><path d="M126.126 502.156L50.202 547.71l-75.924-45.554v-91.109l75.924-45.554 75.924 45.554v91.109z" stroke="#4C6B89" stroke-miterlimit="10"/><path d="M50.202 456.602l-75.924 45.554-75.924-45.554v-91.109l75.924-45.554 75.924 45.554v91.109z" stroke="#2F6799" stroke-miterlimit="10"/><path d="M126.126 319.939l-75.924 45.554-75.924-45.554V228.83l75.924-45.554 75.924 45.554v91.109z" stroke="#2F6799" stroke-miterlimit="10"/><path d="M-25.722 137.721l75.924 45.555v91.108l-75.924 45.555-75.924-45.555v-91.108" stroke="#2F6799" stroke-miterlimit="10"/><path d="M50.202 365.493v-91.109l75.924-45.554 75.923 45.554v91.109" stroke="#2F6799" stroke-miterlimit="10"/><path d="M277.973 319.939l-75.924 45.554-75.924-45.554V228.83l75.924-45.554 75.924 45.554v91.109zM353.897 92.167l-75.924-45.554-75.924 45.554m151.848 91.109l-75.924 45.554 75.924-45.554zM277.973 228.83v-91.108l75.924-45.555 75.924 45.555v91.108l-75.924 45.554" stroke="#2F6799" stroke-miterlimit="10"/><path d="M202.049 365.493l75.924 45.554v91.109" stroke="#2F6799" stroke-miterlimit="10"/><path d="M353.897 456.602l-75.924 45.554-75.924-45.554v-91.109l75.924-45.554 75.924 45.554v91.109z" stroke="#4C6B89" stroke-miterlimit="10"/><path d="M202.049 638.819l-75.923 45.554-75.924-45.554V547.71l75.924-45.554 75.923 45.554v91.109z" stroke="#2F6799" stroke-miterlimit="10"/><path d="M-25.722 684.373v-91.108l75.924-45.555 75.924 45.555v91.108l-75.924 45.555" stroke="#2F6799" stroke-miterlimit="10"/><path d="M50.202 547.71v91.109l-75.924 45.554-75.924-45.554V547.71M202.049 729.928l-75.923 45.554-75.924-45.554v-91.109l75.924-45.554 75.923 45.554v91.109z" stroke="#2F6799" stroke-miterlimit="10"/></g><defs><clipPath id="clip0"><path fill="#fff" d="M-254 .623h760.251v821H-254z"/></clipPath></defs></svg>