<svg width="199" height="135" fill="none" xmlns="http://www.w3.org/2000/svg"><path d="M113.231 49.46l32.527-12.975 52.383-20.902.063-.844-77.895-1.689-7.04 36.24-.038.17z" fill="#567EA6"/><path d="M113.231 49.46l32.527-12.975-11.023-7.486-21.466 20.29-.038.17z" fill="#3E6387"/><path d="M198.198 14.739l-63.463 14.26 25.784 18.646L199 14.858l-.802-.12z" fill="#6699CB"/><path d="M94.626 0l24.812 17.94L199 14.859 94.626 0z" fill="#7BA7D3"/><path d="M75.653 135a21.898 21.898 0 01-3.85-.58.622.622 0 01-.462-.762.624.624 0 01.764-.46c1.2.29 2.418.479 3.624.548a.63.63 0 01-.038 1.26c-.012-.006-.025-.006-.037-.006zm3.82-.769a.638.638 0 01.511-.731 20.226 20.226 0 003.536-.958.638.638 0 01.815.372.634.634 0 01-.373.813c-1.231.46-2.5.8-3.763 1.021-.038.006-.076.006-.107.006a.628.628 0 01-.619-.523zm-11.945-1.31a26.063 26.063 0 01-3.384-1.897.636.636 0 01-.177-.876.638.638 0 01.878-.176 23.897 23.897 0 003.213 1.802.634.634 0 01.31.838.627.627 0 01-.575.365.682.682 0 01-.265-.056zm19.641-1.399a.632.632 0 01.202-.87 21.826 21.826 0 002.949-2.199.63.63 0 01.84.939 23.041 23.041 0 01-3.12 2.325.642.642 0 01-.334.095.6.6 0 01-.537-.29zm-26.56-3.315a27.42 27.42 0 01-2.627-2.842.634.634 0 01.991-.787c.77.964 1.617 1.871 2.507 2.715a.628.628 0 01-.436 1.084.641.641 0 01-.435-.17zm32.735-2.016a.632.632 0 01-.133-.882 19.277 19.277 0 001.894-3.126.63.63 0 011.137.542 19.957 19.957 0 01-2.02 3.333.64.64 0 01-.878.133zm-37.887-4.562a27.162 27.162 0 01-1.66-3.491.625.625 0 01.36-.813.627.627 0 01.814.359 25.486 25.486 0 001.584 3.333.629.629 0 11-1.098.612zm41.485-2.729a.634.634 0 01-.498-.737 15.57 15.57 0 00.303-3.05v-.139c0-.145-.007-.283-.007-.428a.628.628 0 01.613-.649c.366-.032.638.258.65.611.006.151.006.303.013.454v.151c0 1.096-.108 2.205-.329 3.296a.628.628 0 01-.618.51l-.127-.019zm-44.421-5.091a30.068 30.068 0 01-.53-3.819.628.628 0 01.58-.674c.341-.025.65.233.676.579.095 1.242.265 2.477.511 3.662a.63.63 0 01-.492.743c-.044.006-.082.013-.126.013a.634.634 0 01-.619-.504zm-52.206.289a.622.622 0 01-.234-.857c.348-.598.701-1.197 1.061-1.783a.628.628 0 01.871-.201.63.63 0 01.202.869c-.36.58-.707 1.16-1.041 1.746a.63.63 0 01-.55.315.727.727 0 01-.309-.089zm95.775-3.755a20.967 20.967 0 00-1.288-3.428.623.623 0 01.297-.838.626.626 0 01.84.296 21.807 21.807 0 011.37 3.636.632.632 0 01-.613.8.652.652 0 01-.606-.466zm-92.309-1.708a.626.626 0 01-.132-.882 57.829 57.829 0 012.36-3.006.632.632 0 01.967.813 61.89 61.89 0 00-2.317 2.943.632.632 0 01-.512.258.642.642 0 01-.366-.126zm48.759-2.476a.637.637 0 01-.6-.662c.07-1.248.202-2.533.404-3.819a.638.638 0 01.72-.529.63.63 0 01.53.719 38.155 38.155 0 00-.391 3.698.635.635 0 01-.632.599c-.006-.006-.018-.006-.031-.006zm40.065-2.937a31.12 31.12 0 00-2.336-2.873.633.633 0 01.038-.889.636.636 0 01.89.038c.89.971 1.711 1.979 2.437 2.993a.635.635 0 01-.511 1.002.665.665 0 01-.518-.271zm-83.59-.888a.633.633 0 01-.013-.889 60.754 60.754 0 012.76-2.646.63.63 0 01.845.932 61.727 61.727 0 00-2.702 2.59.642.642 0 01-.454.189.601.601 0 01-.436-.176zm44.693-4.273a.632.632 0 01-.455-.768c.31-1.204.682-2.439 1.099-3.668a.639.639 0 01.802-.397.64.64 0 01.397.8c-.404 1.198-.77 2.401-1.073 3.58a.633.633 0 01-.612.472.332.332 0 01-.158-.019zm33.436-.724a40.1 40.1 0 00-2.942-2.294.629.629 0 01.732-1.02 44.02 44.02 0 013.03 2.362.629.629 0 11-.82.952zm-72.068-.517a.624.624 0 01.114-.882 56.842 56.842 0 013.1-2.243.631.631 0 11.707 1.046 56.976 56.976 0 00-3.03 2.199.633.633 0 01-.386.132.67.67 0 01-.505-.252zm65.458-4.127a55.044 55.044 0 00-3.296-1.777.63.63 0 11.562-1.128 59.625 59.625 0 013.371 1.815.633.633 0 01-.316 1.178.725.725 0 01-.321-.088zm-58.696-.51a.63.63 0 01.233-.864 59.94 59.94 0 013.378-1.802.635.635 0 01.846.284.627.627 0 01-.284.844 59.688 59.688 0 00-3.308 1.764.639.639 0 01-.316.082.61.61 0 01-.55-.309zm34.44-1.891a.632.632 0 01-.335-.826A66.594 66.594 0 0157.553 86a.633.633 0 01.846-.283.625.625 0 01.284.845c-.366.73-.72 1.474-1.054 2.205-.177.397-.354.794-.524 1.191a.63.63 0 01-.827.334zm16.976-1.172a58.75 58.75 0 00-3.516-1.292.625.625 0 01-.398-.794.632.632 0 01.795-.397c1.206.397 2.412.845 3.593 1.323a.628.628 0 01-.24 1.21.82.82 0 01-.234-.05zm-44.08-.599a.628.628 0 01.347-.819 61.37 61.37 0 013.599-1.31.63.63 0 11.391 1.197c-1.174.384-2.361.819-3.516 1.279a.614.614 0 01-.234.044.613.613 0 01-.587-.39zm36.372-1.915a60.104 60.104 0 00-3.662-.8.632.632 0 11.233-1.242c1.25.233 2.513.504 3.738.813a.63.63 0 01-.151 1.241.436.436 0 01-.158-.012zm-28.594-.675a.63.63 0 01.467-.762 57.305 57.305 0 013.75-.775c.348-.057.67.17.733.517a.638.638 0 01-.518.73 59.07 59.07 0 00-3.668.757.639.639 0 01-.764-.466zm20.607-.762a56.973 56.973 0 00-3.737-.29.627.627 0 01-.6-.655c.019-.347.29-.63.663-.599 1.269.057 2.55.158 3.813.296.347.038.6.347.556.694a.633.633 0 01-.625.56c-.026 0-.045-.006-.07-.006zm-12.532-.674a.63.63 0 01.568-.687 58.9 58.9 0 013.82-.233c.353.006.637.264.65.611a.633.633 0 01-.612.649 60.94 60.94 0 00-3.738.227h-.057a.617.617 0 01-.631-.567zm14.874-1.55a.629.629 0 01-.227-.864 69.119 69.119 0 012.014-3.239.63.63 0 01.878-.176c.29.189.372.58.176.876a72.091 72.091 0 00-1.982 3.182.633.633 0 01-.543.315.732.732 0 01-.316-.094zm4.483-6.85a.631.631 0 01-.126-.882 71.37 71.37 0 012.386-2.98.632.632 0 01.966.812 64.294 64.294 0 00-2.342 2.93.64.64 0 01-.505.252.705.705 0 01-.379-.132zm5.26-6.289a.627.627 0 01-.02-.888 72.63 72.63 0 012.709-2.69.63.63 0 01.865.913c-.903.85-1.8 1.739-2.665 2.64a.623.623 0 01-.454.195.599.599 0 01-.436-.17zm5.946-5.64a.63.63 0 01.082-.888 67.602 67.602 0 013-2.363.631.631 0 01.758 1.008 65.214 65.214 0 00-2.943 2.326.613.613 0 01-.404.144.629.629 0 01-.493-.226zm6.541-4.94a.627.627 0 01.177-.87 81.733 81.733 0 013.245-2.016.631.631 0 11.638 1.09 78.936 78.936 0 00-3.189 1.98.642.642 0 01-.347.106.652.652 0 01-.524-.29zm7.058-4.171a.629.629 0 01.278-.844 74.745 74.745 0 013.454-1.633.635.635 0 01.833.322.633.633 0 01-.322.832 69.149 69.149 0 00-3.39 1.6.636.636 0 01-.852-.277zm7.495-3.34a.63.63 0 01.372-.806c1.2-.441 2.418-.851 3.624-1.217.328-.1.688.089.789.416a.633.633 0 01-.417.788c-1.186.36-2.38.762-3.554 1.197a.632.632 0 01-.814-.378zm7.828-2.426a.626.626 0 01.467-.756 70.599 70.599 0 013.744-.769c.348-.063.67.17.733.51a.634.634 0 01-.512.732 61.348 61.348 0 00-3.674.756.579.579 0 01-.145.019.646.646 0 01-.613-.492z" fill="#AFD5E6"/></svg>