<svg width="22" height="22" fill="none" xmlns="http://www.w3.org/2000/svg"><path d="M18.46 22H.453A.455.455 0 010 21.543V3.193c0-.253.201-.456.452-.456h12.53c.25 0 .45.203.45.457a.453.453 0 01-.45.457H.902v17.434h17.11V8.628c0-.254.201-.457.451-.457.251 0 .452.203.452.457v12.915a.46.46 0 01-.455.457zM21.548 7.931a.453.453 0 01-.451-.457V.914h-6.592a.453.453 0 01-.451-.457c0-.253.204-.457.451-.457h7.04c.25 0 .451.204.451.457v7.02a.45.45 0 01-.448.454z" fill="#fff"/><path d="M9.703 12.63a.451.451 0 01-.32-.137.461.461 0 01.003-.646L20.793.407a.448.448 0 01.639.004.461.461 0 01-.004.646l-11.407 11.44a.44.44 0 01-.318.132z" fill="#fff"/></svg>