<svg width="22" height="22" viewBox="0 0 22 22" fill="none" xmlns="http://www.w3.org/2000/svg">
<path d="M18.4609 22H0.451644C0.201123 22 0 21.7928 0 21.5427V3.19389C0 2.94024 0.201123 2.7366 0.451644 2.7366H12.9812C13.2318 2.7366 13.4329 2.94024 13.4329 3.19389C13.4329 3.44755 13.2318 3.65119 12.9812 3.65119H0.903288V21.0854H18.0128V8.6278C18.0128 8.37415 18.214 8.17051 18.4645 8.17051C18.715 8.17051 18.9161 8.37415 18.9161 8.6278V21.5427C18.9126 21.7928 18.7115 22 18.4609 22Z" fill="white"/>
<path d="M21.5484 7.93115C21.2979 7.93115 21.0968 7.72751 21.0968 7.47386V0.914583H14.5056C14.2551 0.914583 14.054 0.710945 14.054 0.457291C14.054 0.203638 14.2586 0 14.5056 0H21.5449C21.7954 0 21.9965 0.203638 21.9965 0.457291V7.47743C22.0001 7.72751 21.7954 7.93115 21.5484 7.93115Z" fill="white"/>
<path d="M9.70337 12.6291C9.58693 12.6291 9.47049 12.5827 9.38228 12.4933C9.20585 12.3147 9.20938 12.0253 9.3858 11.8467L20.7933 0.407269C20.9698 0.22864 21.2556 0.232213 21.432 0.410842C21.6084 0.589471 21.6049 0.878851 21.4285 1.05748L10.0209 12.4969C9.93272 12.5862 9.81981 12.6291 9.70337 12.6291Z" fill="white"/>
</svg>
