<svg width="117" height="345" fill="none" xmlns="http://www.w3.org/2000/svg"><path d="M52.298 138.223l51.298 34.306v68.612l-51.298-34.306v-68.612z" fill="#7BA7D3"/><path d="M1 241.141l51.298-34.305 51.298 34.305-51.298 34.306L1 241.141z" fill="#6699CB"/><path d="M103.596 35.306l51.298 34.306v68.611l-51.298-34.305V35.306z" fill="#7BA7D3"/><path d="M1 241.141v-68.612l51.298-34.306 51.298 34.306v68.612" stroke="#2F6799" stroke-miterlimit="10"/><path d="M154.894 206.835l-51.298 34.306-51.298-34.306v-68.612l51.298-34.306 51.298 34.306v68.612zM206.192 35.306L154.894 1l-51.298 34.306m102.596 68.612l-51.298 34.305 51.298-34.305z" stroke="#2F6799" stroke-miterlimit="10"/><path d="M103.596 241.141l51.298 34.306v68.612" stroke="#2F6799" stroke-miterlimit="10"/><path d="M206.192 309.753l-51.298 34.306-51.298-34.306v-68.611l51.298-34.306 51.298 34.306v68.611z" stroke="#4C6B89" stroke-miterlimit="10"/></svg>