<svg width="11" height="12" fill="none" xmlns="http://www.w3.org/2000/svg"><path d="M10.835 10.864l-2.922-2.88c.283-.442.494-.926.628-1.443a5.315 5.315 0 00-.293-3.488 4.772 4.772 0 00-1.019-1.46C6.364.753 5.254.33 4.105.403c-1.16.074-2.227.643-3.001 1.603S-.06 4.201.007 5.485c.066 1.283.581 2.462 1.45 3.317.805.794 1.824 1.221 2.892 1.221a4.024 4.024 0 001.725-.388c.433-.204.83-.485 1.182-.834l2.92 2.88c.092.09.208.138.33.138.01 0 .019 0 .028-.002a.475.475 0 00.341-.182.588.588 0 00-.04-.771zM6.896 7.646c-.6.765-1.435 1.218-2.35 1.276-.917.058-1.793-.287-2.467-.97C.75 6.602.63 4.28 1.812 2.772c.6-.763 1.434-1.216 2.35-1.274.066-.005.132-.006.198-.006.844 0 1.642.342 2.268.977 1.331 1.347 1.451 3.67.27 5.177z" fill="#fff"/></svg>