<svg xmlns="http://www.w3.org/2000/svg" width="194.782" height="219.942" viewBox="0 0 77912 87976" shape-rendering="geometricPrecision" text-rendering="geometricPrecision" image-rendering="optimizeQuality" fill-rule="evenodd" clip-rule="evenodd"><path d="M60071 40088c-1188 0-1991 115-2409 230v7605c495 115 1108 154 1949 154 3095 0 5007-1569 5007-4204 0-2371-1643-3785-4547-3785zm12910-8620h-2112V21276c0-64-10-128-19-192-3-405-132-803-409-1118L53479 590c-5-5-10-7-14-12-101-113-219-207-344-288-36-25-73-46-112-67-108-59-223-108-340-143-33-9-61-22-93-31-128-30-261-49-396-49H10493C8590 0 7043 1548 7043 3450v28018H4931C2208 31468 0 33675 0 36399v25642c0 2723 2208 4931 4931 4931h2112v17554c0 1902 1547 3450 3450 3450h56926c1901 0 3450-1548 3450-3450V66972h2112c2723 0 4931-2208 4931-4930V36400c0-2724-2208-4932-4931-4932zM10493 3451h39962v17652c0 953 773 1724 1725 1724h15239v8643H10493V3451zm36352 32433v25760h-5848V35884h5848zm-28401 4815v-4815h18689v3364L25133 56676v152h12192v4816H17298v-3135l12269-17656v-154H18444zm48975 42893H10493V66972h56926v16620zm600-33757c-1987 1873-4930 2712-8370 2712-766 0-1452-37-1987-114v9211h-5771V36228c1796-307 4318-536 7872-536 3594 0 6153 688 7875 2064 1642 1299 2751 3440 2751 5963 0 2522-841 4662-2370 6116z" fill="#606060"/></svg>